<svg width="111" height="111" viewBox="0 0 111 111" fill="none" xmlns="http://www.w3.org/2000/svg">
<g clip-path="url(#clip0_57_215)">
<path d="M55.3388 109.947C85.4059 109.947 109.78 85.5726 109.78 55.5056C109.78 25.4386 85.4059 1.06445 55.3388 1.06445C25.2718 1.06445 0.897705 25.4386 0.897705 55.5056C0.897705 85.5726 25.2718 109.947 55.3388 109.947Z" stroke="#F06419" stroke-miterlimit="10"/>
<path d="M55.339 7.5C28.8184 7.5 7.33325 28.9852 7.33325 55.5057C7.33325 82.0263 28.8297 103.511 55.339 103.511C81.8483 103.511 103.345 82.015 103.345 55.5057C103.345 28.9965 81.8483 7.5 55.339 7.5ZM29.5523 73.1184V42.2511C30.7265 42.0479 32.2168 41.8221 33.7071 42.0253V68.7039C33.7071 69.4491 34.249 70.0813 34.9828 70.183C35.0732 70.1942 40.3005 71.0071 45.9795 73.7619C39.1602 72.4297 32.578 72.8248 29.5523 73.1184ZM36.7215 67.4507V37.385C37.828 37.5657 39.3521 38.006 40.8763 38.8979V64.2669C40.8763 64.854 41.2263 65.3959 41.7682 65.633C41.8247 65.6556 45.923 67.5523 49.9084 72.4297C44.5682 69.3023 39.1376 67.9362 36.7102 67.4394L36.7215 67.4507ZM54.1535 73.1297C50.2923 67.3265 45.7762 64.3911 43.8795 63.3411V34.9915C51.1616 39.5302 53.8035 45.6607 54.1535 46.5527V73.1184V73.1297ZM56.5245 46.5639C56.8857 45.672 59.5164 39.5415 66.7985 35.0028V63.3524C64.9018 64.3911 60.3744 67.3265 56.5132 73.141V46.5752L56.5245 46.5639ZM60.7583 72.4297C64.7437 67.5523 68.8533 65.6556 68.8985 65.633C69.4404 65.3959 69.7904 64.854 69.7904 64.2669V38.8979C71.3146 38.006 72.8387 37.5657 73.9452 37.385V67.4507C71.5291 67.9475 66.0872 69.3136 60.747 72.441L60.7583 72.4297ZM81.1144 73.1184C78.0774 72.8248 71.5065 72.441 64.6872 73.7619C70.3549 71.0184 75.5935 70.2055 75.6839 70.183C76.4177 70.07 76.9709 69.4378 76.9709 68.7039V42.0253C78.4612 41.8221 79.9628 42.0592 81.1257 42.2511V73.1184H81.1144Z" fill="#F06419"/>
</g>
<defs>
<clipPath id="clip0_57_215">
<rect width="110" height="110" fill="white" transform="translate(0.333252 0.5)"/>
</clipPath>
</defs>
</svg>
