<svg width="112" height="111" viewBox="0 0 112 111" fill="none" xmlns="http://www.w3.org/2000/svg">
<path d="M55.667 110.5C86.0427 110.5 110.667 85.8757 110.667 55.5C110.667 25.1243 86.0427 0.5 55.667 0.5C25.2913 0.5 0.666992 25.1243 0.666992 55.5C0.666992 85.8757 25.2913 110.5 55.667 110.5Z" stroke="#C30F28" stroke-miterlimit="10"/>
<path d="M85.0393 48.8012C85.4985 49.0422 86.061 48.87 86.3021 48.4223C86.5432 47.9631 86.371 47.4235 85.9233 47.1824C85.8085 47.125 85.6822 47.0791 85.5674 47.0676C85.2115 47.0332 84.8441 47.2284 84.6604 47.5613C84.4194 48.0205 84.5916 48.5601 85.0393 48.8012Z" fill="#C30F28"/>
<path d="M55.6729 6.69165C28.7058 6.69165 6.85889 28.5386 6.85889 55.5057C6.85889 82.4728 28.7173 104.32 55.6729 104.32C82.6286 104.32 104.487 82.4614 104.487 55.5057C104.487 28.5501 82.6286 6.69165 55.6729 6.69165ZM23.1379 63.6452L29.1076 52.3716L32.8846 54.3577L26.8919 65.6313L23.1379 63.6452ZM55.8337 78.5581C53.4802 79.3847 50.415 80.2916 47.9927 79.465C44.9963 78.4433 41.8737 77.7085 39.0955 76.1702C37.2701 75.1599 36.168 73.2083 34.8937 71.601C33.4127 69.7298 32.4484 67.4222 30.6001 65.9068C29.9686 65.3902 29.475 65.0114 28.878 64.4374L33.1257 56.4126C35.2266 56.78 37.7523 57.5836 39.922 58.7431C40.5649 59.0876 41.1619 59.4434 41.7244 59.8452C43.4809 61.0966 44.4223 63.1286 45.9721 64.5636C48.0386 66.4694 50.6561 67.6748 52.6422 69.7412C54.0198 71.1763 52.4814 73.7823 50.725 73.2657C49.0144 72.7605 47.6482 71.4403 46.0755 70.6022C44.9504 69.9938 43.7794 68.8917 42.551 68.8573C43.9631 71.3944 46.7643 72.7146 49.3703 73.7593C51.012 74.4137 52.757 74.3333 54.4101 73.966C55.8451 73.6445 58.0608 73.943 58.2101 75.4814C58.3364 76.859 57.969 77.8004 55.8337 78.5581ZM60.6669 60.7522C58.8645 62.3939 56.6602 63.9322 54.6742 65.8839C52.6881 63.9322 50.4839 62.3939 48.6815 60.7522C46.3969 58.6743 44.4797 56.6537 44.4567 53.4737C44.4338 50.707 46.3739 49.1456 48.7733 49.1342C51.3793 49.1227 53.0669 51.1662 54.6742 52.7964C56.2699 51.1662 57.969 49.1456 60.575 49.1342C63.0548 49.1342 64.8916 50.707 64.8686 53.4737C64.8457 56.6423 62.9399 58.6743 60.6669 60.7522ZM71.4239 52.2798C70.781 51.9353 70.161 51.5565 69.5985 51.1547C67.842 49.9033 66.9236 47.8943 65.3738 46.4593C63.3073 44.5535 60.6669 43.3481 58.6808 41.2817C57.3031 39.8466 58.8645 37.2406 60.6209 37.7572C62.3315 38.2624 63.6976 39.5826 65.2704 40.4207C66.3955 41.0291 67.5665 42.1197 68.7949 42.1656C67.3828 39.6285 64.5816 38.3083 61.9756 37.2636C60.3339 36.6092 58.566 36.6896 56.9128 37.0569C55.4778 37.3784 53.285 37.0799 53.1358 35.5415C53.0095 34.1639 53.3769 33.2225 55.5122 32.4648C57.2802 31.8449 59.4385 31.1676 61.436 31.225C62.1019 31.2479 62.7563 31.3627 63.3532 31.5694C66.1659 32.5337 69.0819 33.2455 71.7338 34.6002C71.906 34.692 72.0782 34.7953 72.2504 34.8986C74.0758 35.9089 75.1779 37.8376 76.4522 39.4448C77.9332 41.3161 78.8975 43.6236 80.7458 45.139C81.3772 45.6556 81.8709 46.0345 82.4679 46.6085L78.2202 54.6332C76.1193 54.2658 73.5936 53.4622 71.4239 52.3027V52.2798ZM82.2498 58.6743L78.4727 56.6652L84.4654 45.3916L88.2195 47.3777L82.2498 58.6743Z" fill="#C30F28"/>
<path d="M26.2948 62.2217C26.18 62.1643 26.0538 62.1184 25.939 62.1069C25.5716 62.0725 25.2157 62.2677 25.032 62.6006C24.7909 63.0598 24.9631 63.6223 25.4109 63.8634C25.8701 64.1045 26.4326 63.9093 26.6737 63.4616C26.9148 63.0024 26.7426 62.4628 26.2948 62.2217Z" fill="#C30F28"/>
</svg>
