<svg width="110" height="111" viewBox="0 0 110 111" fill="none" xmlns="http://www.w3.org/2000/svg">
<g clip-path="url(#clip0_57_221)">
<path d="M55.0056 109.947C85.0726 109.947 109.447 85.5726 109.447 55.5056C109.447 25.4386 85.0726 1.06445 55.0056 1.06445C24.9386 1.06445 0.564453 25.4386 0.564453 55.5056C0.564453 85.5726 24.9386 109.947 55.0056 109.947Z" stroke="#0A4BA5" stroke-miterlimit="10"/>
<path d="M55.0057 7.5C28.4852 7.5 7 28.9852 7 55.5057C7 82.0263 28.4965 103.511 55.0057 103.511C81.515 103.511 103.011 82.015 103.011 55.5057C103.011 28.9965 81.515 7.5 55.0057 7.5ZM43.8624 56.409C43.7495 57.5041 43.3769 59.0621 42.5866 61.2524L42.4172 61.704C41.1189 65.204 41.593 69.1104 43.6704 72.1926C38.3302 68.5685 34.8302 62.4379 34.8302 55.5057C34.8302 53.1913 35.2254 50.9671 35.9367 48.8897C36.0722 49.0478 36.2076 49.2284 36.3431 49.4429C36.6931 49.9736 36.9754 50.5268 37.3592 51.1703C38.0254 52.3106 39.0302 53.8687 40.9382 54.0154L41.1866 54.038C41.4463 54.0493 41.7059 54.0606 41.9205 54.0719C42.2366 54.0832 42.5075 54.1058 42.7559 54.1396C43.2527 54.2187 43.4785 54.3541 43.6027 54.5348C43.7495 54.738 43.9527 55.2235 43.8285 56.4202L43.8624 56.409ZM55.0057 75.67C52.3074 75.67 49.7332 75.1393 47.3736 74.1797C47.3736 74.1571 47.351 74.1345 47.3397 74.1006L47.2946 73.999L45.7252 71.2216L45.6688 71.1313L45.4994 70.8942C43.8511 68.4104 43.4898 65.283 44.5285 62.4831L44.6978 62.0202C45.5107 59.7396 45.951 57.9896 46.0865 56.6348C46.2333 55.2009 46.0527 54.0493 45.443 53.2138C44.8107 52.3445 43.8962 52.051 43.1398 51.9268C42.7559 51.8703 42.3834 51.8477 42.0446 51.8252C41.864 51.8252 41.7059 51.8252 41.5592 51.8026L41.1301 51.78C40.4979 51.7348 40.0237 51.2494 39.3124 50.0413C39.0076 49.5107 38.6237 48.7994 38.2286 48.201C37.8786 47.6704 37.4383 47.1172 36.885 46.6656C40.1592 39.9592 47.0462 35.3302 55.017 35.3302C59.4879 35.3302 63.6201 36.7867 66.9733 39.2479H66.7362C65.8669 39.2479 64.7943 38.9882 63.5298 38.627C62.4008 38.3108 61.125 37.9044 59.917 37.6899L59.6799 37.656C58.8783 37.5318 58.1218 37.656 57.4896 38.0173C56.8573 38.3786 56.4057 38.9318 56.1348 39.5415C55.5815 40.7269 55.6041 42.2398 56.0444 43.5721L56.1009 43.7414C56.5751 45.3672 56.0219 46.9139 54.6106 47.9526L54.4638 48.0542C54.0009 48.3591 53.5267 48.7317 53.1655 49.1494C52.8155 49.5558 52.4316 50.1768 52.5219 50.9445L52.5671 51.2268C53.0751 54.1622 55.7396 56.2509 58.7315 56.0251L59.5218 55.9686H59.7589C62.2202 55.9009 64.2637 57.888 64.2637 60.3718V64.3572C64.2637 64.775 64.0153 65.1588 63.6427 65.3282L63.5637 65.3621C61.6218 66.062 60.7863 68.3539 61.825 70.1378L63.8798 73.6603C61.204 74.97 58.2009 75.7038 55.0283 75.7038L55.0057 75.67ZM65.8217 72.5313L63.7443 68.9749C63.4056 68.3991 63.6766 67.6652 64.3088 67.4394L64.433 67.3943C65.6749 66.8975 66.4991 65.6782 66.4991 64.3346V60.3492C66.4991 56.5331 63.304 53.5187 59.5218 53.6993H59.3412L58.5509 53.7671C56.6767 53.9138 55.017 52.5703 54.7461 50.7187C54.7574 50.6961 54.7912 50.651 54.8364 50.5945C55.0057 50.4026 55.288 50.1655 55.6944 49.8945L55.909 49.7365C58.0428 48.1784 58.9799 45.6833 58.2234 43.0979L58.1444 42.8382C57.8396 41.9237 57.8847 41.0205 58.1444 40.456C58.2686 40.185 58.4154 40.0269 58.5734 39.9479C58.7202 39.8689 58.946 39.8011 59.3186 39.8576L59.7363 39.9366C60.7186 40.1286 61.7685 40.456 62.8976 40.7834C64.1282 41.1334 65.4943 41.4947 66.7136 41.4947H69.5136C73.0135 45.1188 75.17 50.0639 75.17 55.5057C75.17 62.6637 71.4329 68.9523 65.8104 72.5313H65.8217Z" fill="#0A4BA5"/>
</g>
<defs>
<clipPath id="clip0_57_221">
<rect width="110" height="110" fill="white" transform="translate(0 0.5)"/>
</clipPath>
</defs>
</svg>
