<svg width="90" height="90" viewBox="0 0 90 90" fill="none" xmlns="http://www.w3.org/2000/svg">
<g clip-path="url(#clip0_4830_695)">
<path d="M45.0047 89.5474C69.6049 89.5474 89.5474 69.6049 89.5474 45.0047C89.5474 20.4044 69.6049 0.461914 45.0047 0.461914C20.4044 0.461914 0.461914 20.4044 0.461914 45.0047C0.461914 69.6049 20.4044 89.5474 45.0047 89.5474Z" stroke="#F06419" stroke-miterlimit="10"/>
<path d="M43.573 26.5391C40.8849 26.8624 38.3724 28.0725 36.4417 29.9661C34.5111 31.8691 33.2548 34.3539 32.8761 37.0328C32.3126 41.1711 33.9107 45.3187 37.1068 48.016C38.2246 48.9398 38.8896 50.3069 38.9081 51.7572V52.8102H51.1107V51.7572C51.1292 50.3069 51.7851 48.9398 52.9028 48.016C55.6001 45.7436 57.1797 42.4089 57.2444 38.8802C57.309 35.3516 55.8403 31.9707 53.2169 29.6059C50.5934 27.2411 47.0832 26.1142 43.5822 26.5298L43.573 26.5391ZM48.4134 40.0257L49.7805 45.4942L44.9956 42.76L40.2106 45.4942L41.5777 40.0257L38.1599 36.7095H43.0372L44.9863 31.8321L46.9354 36.7095H51.8128L48.3949 40.0257H48.4134Z" fill="#F06419"/>
<path d="M44.9952 5.71802C23.3058 5.71802 5.71777 23.306 5.71777 44.9954C5.71777 66.6849 23.3058 84.2729 44.9952 84.2729C66.6846 84.2729 84.2726 66.6941 84.2726 44.9954C84.2726 23.2968 66.6846 5.71802 44.9952 5.71802ZM24.4974 39.1482C24.4974 38.6124 24.9316 38.169 25.4766 38.169H27.361C27.8968 38.169 28.3402 38.6032 28.3402 39.1482C28.3402 39.6932 27.906 40.1273 27.361 40.1273H25.4766C24.9408 40.1273 24.4974 39.6932 24.4974 39.1482ZM29.0884 44.8199L28.0446 45.8638C27.8598 46.0485 27.6104 46.1501 27.3518 46.1501C26.9546 46.1501 26.6035 45.91 26.4465 45.5497C26.2987 45.1894 26.3818 44.7645 26.659 44.4874L27.7028 43.4436C28.0815 43.0648 28.7004 43.0648 29.0792 43.4436C29.4579 43.8223 29.4579 44.4412 29.0792 44.8199H29.0884ZM29.0884 34.8435C28.7097 35.2223 28.0908 35.2223 27.712 34.8435L26.6682 33.7997C26.4835 33.615 26.3818 33.3656 26.3818 33.1069C26.3818 32.8483 26.4835 32.5989 26.6682 32.4141C26.8529 32.2294 27.1024 32.1277 27.361 32.1277C27.6197 32.1277 27.8691 32.2294 28.0538 32.4141L29.0976 33.4579C29.4764 33.8367 29.4764 34.4556 29.0976 34.8343L29.0884 34.8435ZM59.1654 39.4715C58.9437 43.3697 57.1332 47 54.1495 49.5125C53.4659 50.0668 53.0687 50.8889 53.0502 51.7572V53.1428C53.937 53.6509 54.4081 54.667 54.2326 55.6739C54.0571 56.6808 53.2627 57.4659 52.2558 57.6415C53.1334 58.2511 53.5029 59.3596 53.1888 60.3757C52.8655 61.3918 51.9233 62.0846 50.861 62.0754H50.7409L50.2605 64.0153C50.0388 64.8836 49.2629 65.4932 48.3669 65.4932H41.6513C40.7552 65.4932 39.9701 64.8836 39.7576 64.0153L39.268 62.0754H39.1479C38.0856 62.0754 37.1434 61.3826 36.8201 60.3757C36.4968 59.3596 36.8755 58.2511 37.7531 57.6415C36.7462 57.4659 35.9518 56.6808 35.7763 55.6739C35.6008 54.667 36.0719 53.6509 36.9587 53.1428V51.7572C36.9402 50.8797 36.5337 50.0575 35.8502 49.5033C32.8757 46.9907 31.056 43.3512 30.8435 39.453C30.631 35.5641 32.0259 31.749 34.7047 28.9131C37.3836 26.0772 41.1155 24.4699 45.0137 24.4792C48.9119 24.4792 52.6438 26.0865 55.3226 28.9224C58.0015 31.7583 59.3963 35.5733 59.1746 39.4622L59.1654 39.4715ZM60.902 33.4672L61.9458 32.4233C62.3246 32.0446 62.9435 32.0446 63.3314 32.4233C63.7102 32.8021 63.7102 33.421 63.3314 33.7997L62.2876 34.8435C62.1029 35.0283 61.8535 35.1299 61.5948 35.1299C61.1976 35.1299 60.8466 34.8897 60.6895 34.5295C60.5417 34.1692 60.6249 33.7443 60.902 33.4672ZM63.5347 45.5405C63.3869 45.9007 63.0266 46.1409 62.6294 46.1409C62.3708 46.1409 62.1213 46.0393 61.9366 45.8545L60.8928 44.8107C60.514 44.432 60.514 43.8131 60.8928 43.4343C61.2715 43.0556 61.8904 43.0556 62.2691 43.4343L63.313 44.4782C63.5901 44.7553 63.6732 45.1802 63.5254 45.5405H63.5347ZM65.493 39.1389C65.493 39.3976 65.3914 39.647 65.2066 39.8317C65.0219 40.0165 64.7725 40.1181 64.5138 40.1181H62.6294C62.0936 40.1181 61.6502 39.6839 61.6502 39.1389C61.6502 38.5939 62.0844 38.1598 62.6294 38.1598H64.5138C64.7725 38.1598 65.0219 38.2614 65.2066 38.4461C65.3914 38.6309 65.493 38.8803 65.493 39.1389Z" fill="#F06419"/>
</g>
<defs>
<clipPath id="clip0_4830_695">
<rect width="90" height="90" fill="white"/>
</clipPath>
</defs>
</svg>
