<svg width="160" height="160" viewBox="0 0 160 160" fill="none" xmlns="http://www.w3.org/2000/svg">
<g clip-path="url(#clip0_4227_2074)">
<path d="M78.6611 117.101C78.6611 117.833 79.2562 118.428 79.988 118.428C80.7197 118.428 81.3148 117.833 81.3148 117.101C81.3148 116.369 80.7197 115.774 79.988 115.774C79.2562 115.774 78.6611 116.369 78.6611 117.101Z" fill="#FAF2D7"/>
<path d="M81.3148 42.8907C81.3148 42.159 80.7197 41.564 79.988 41.564C79.2562 41.564 78.6611 42.159 78.6611 42.8907C78.6611 43.6225 79.2562 44.2095 79.988 44.2095C80.7197 44.2095 81.3148 43.6225 81.3148 42.8907Z" fill="#FAF2D7"/>
<path d="M80.1097 5.99951C39.2432 5.99951 6 39.241 6 80.1055C6 120.97 39.2432 154.203 80.1097 154.203C120.976 154.203 154.219 120.962 154.219 80.1055C154.219 39.2491 120.968 5.99951 80.1097 5.99951ZM76.3302 38.7023C77.5605 38.4852 78.815 38.3565 80.1097 38.3565C81.4043 38.3565 82.6507 38.4852 83.873 38.7023L84.6772 43.8727C83.085 45.6739 81.3963 47.9655 80.1016 50.6512C78.815 47.9655 77.1343 45.6739 75.5421 43.8727L76.3302 38.7023ZM63.4639 46.1804C66.0292 47.0247 75.7914 50.7638 79.4181 59.633C78.043 56.0387 74.2796 48.5686 65.7638 43.8325C66.3347 43.3259 66.9217 42.8515 67.5409 42.4092C68.128 41.983 68.7391 41.5971 69.3744 41.2272C69.3985 41.2111 69.4307 41.195 69.4548 41.1789C70.9183 42.2966 79.3779 49.0913 80.1016 58.8531C80.8334 49.0993 89.2849 42.3047 90.7565 41.1789C90.8128 41.2111 90.861 41.2433 90.9173 41.2754C91.5124 41.6212 92.0914 41.9911 92.6462 42.3931C92.6704 42.4092 92.6945 42.4253 92.7186 42.4414C93.3137 42.8756 93.8926 43.3339 94.4395 43.8325C85.9236 48.5686 82.1763 56.0387 80.7851 59.633C84.4199 50.7638 94.1821 47.0247 96.7474 46.1804C97.6882 47.3223 98.5165 48.5606 99.208 49.8793C98.9909 49.9195 98.7738 49.9517 98.5647 50.008C93.4504 51.0131 89.3975 53.2083 86.4222 55.4276C86.1246 55.6367 85.8593 55.8457 85.602 56.0548C85.4411 56.1754 85.2964 56.3041 85.1516 56.4247C85.1114 56.4649 85.0793 56.489 85.0391 56.5212C84.5727 56.8991 84.1465 57.2851 83.7524 57.6469C83.7283 57.663 83.7122 57.671 83.7042 57.7112C83.3745 57.9927 83.0528 58.2982 82.7714 58.6038C81.4847 59.8823 80.6726 60.9357 80.3187 61.4262C80.2222 61.5388 80.174 61.6192 80.1338 61.6755C80.1338 61.6755 80.1338 61.6996 80.1177 61.6996C80.1016 61.6996 80.1016 61.7157 80.1016 61.7157C80.1016 61.7157 80.0614 61.6674 80.0051 61.579C79.6835 61.1287 78.5175 59.5526 76.5071 57.7112C76.491 57.671 76.483 57.663 76.4589 57.6469C76.089 57.3011 75.6949 56.9473 75.2687 56.5935C75.2044 56.5533 75.1481 56.481 75.0757 56.4327C74.7219 56.1272 74.3279 55.8216 73.9097 55.516C73.8695 55.4758 73.8213 55.4517 73.7891 55.4276C70.6851 53.1198 66.4151 50.8281 61.0033 49.8793C61.7029 48.5606 62.5231 47.3223 63.4639 46.1804ZM32.5527 51.8413H55.5271C55.7201 51.8413 55.905 51.8574 56.106 51.8654C56.3151 51.8654 56.5322 51.8654 56.7413 51.8815C57.0388 51.8976 57.3444 51.9056 57.6339 51.9298C57.9877 51.9539 58.3335 51.9941 58.6793 52.0262C59.0251 52.0665 59.3628 52.1147 59.7086 52.1629C60.1991 52.2353 60.6816 52.3318 61.1561 52.4203C61.5983 52.5087 62.0245 52.6052 62.4427 52.7178C62.4909 52.7178 62.5392 52.7339 62.5794 52.7419C63.0538 52.8786 63.5202 52.9992 63.9786 53.1439C64.445 53.2806 64.8953 53.4415 65.3376 53.6103C65.6914 53.7309 66.0372 53.8676 66.383 54.0285C66.4071 54.0285 66.4312 54.0445 66.4553 54.0526C66.6162 54.1169 66.777 54.1893 66.9378 54.2616C67.1952 54.3581 67.4444 54.4788 67.6857 54.6074C67.8787 54.6959 68.0797 54.7924 68.2647 54.8888C68.5059 55.0255 68.7552 55.1381 69.0045 55.2829C69.0206 55.2829 69.0206 55.2989 69.0286 55.2989C69.1975 55.3874 69.3744 55.4839 69.5432 55.5804C69.5674 55.5965 69.5915 55.6206 69.6156 55.6286C69.6156 55.6286 69.621 55.634 69.6317 55.6447C69.889 55.7894 70.1464 55.9503 70.4037 56.095C70.7575 56.3041 71.1033 56.5373 71.433 56.7704C71.5697 56.8669 71.6903 56.9393 71.827 57.0438C72.1567 57.2609 72.4784 57.5102 72.7839 57.7514C73.186 58.057 73.58 58.4028 73.958 58.7244C74.0786 58.8209 74.2153 58.9415 74.3359 59.0461C74.4807 59.1827 74.6174 59.3275 74.7621 59.4722C74.8586 59.5205 74.9471 59.6089 75.0355 59.7054C75.2526 59.8984 75.4778 60.1235 75.6949 60.3567C75.912 60.5738 76.1452 60.807 76.3543 61.0563C76.4508 61.1689 76.5473 61.2493 76.6358 61.3619C76.7725 61.5066 76.8931 61.6674 77.0298 61.8122C77.1424 61.9489 77.2469 62.0695 77.3515 62.2062C77.4882 62.367 77.6249 62.5278 77.7535 62.6806C77.9626 62.962 78.1797 63.2595 78.3888 63.541C78.4612 63.6535 78.5496 63.75 78.622 63.8626C77.1745 66.1704 76.0246 68.6953 75.2366 71.3568C75.2205 71.2845 75.1883 71.2121 75.1722 71.1397C75.0355 70.6975 74.9149 70.2713 74.7702 69.8371C74.746 69.7728 74.73 69.7165 74.7058 69.6763V69.6602C74.6415 69.4752 74.5852 69.3064 74.5128 69.1214C74.4485 68.9285 74.3922 68.7274 74.3038 68.5344C74.2314 68.3495 74.159 68.1565 74.0866 67.9796C74.0706 67.9394 74.0625 67.9072 74.0464 67.8831L74.0304 67.867C74.0304 67.867 74.0143 67.851 74.0143 67.8429C73.9499 67.6821 73.8937 67.5374 73.8213 67.3926C73.8052 67.3524 73.7972 67.3202 73.773 67.272C73.6765 67.0388 73.564 66.8297 73.4675 66.5885C73.4192 66.4679 73.3468 66.3553 73.2825 66.2347C73.1699 66.0015 73.0654 65.7844 72.9367 65.5512C72.8643 65.4145 72.792 65.2698 72.7196 65.1251C72.6311 64.9642 72.5347 64.8034 72.4382 64.6346C72.3175 64.4255 72.1889 64.2164 72.0683 64.0234C71.9718 63.8546 71.8753 63.6777 71.7627 63.5088C71.6662 63.3641 71.5697 63.2274 71.4651 63.0907C71.3204 62.8736 71.1837 62.6484 71.0229 62.4394C70.9827 62.375 70.9505 62.3187 70.9022 62.2544C70.9022 62.2383 70.8862 62.2383 70.8862 62.2303C70.7655 62.0695 70.653 61.9086 70.5323 61.7639C70.4439 61.6433 70.3474 61.5307 70.2589 61.4101C70.1866 61.3377 70.1383 61.2493 70.0659 61.1769C69.9936 61.0804 69.9212 60.992 69.8488 60.8955C69.6558 60.6623 69.4548 60.4452 69.2618 60.22C69.1733 60.1316 69.0929 60.0512 69.0206 59.9466L68.908 59.8341C68.723 59.6491 68.5542 59.4642 68.3531 59.2712C68.2807 59.1988 68.1923 59.1265 68.1119 59.0541C67.8545 58.8048 67.6053 58.5797 67.3399 58.3465C67.2514 58.2741 67.171 58.1857 67.0665 58.1133C66.978 58.0409 66.8976 57.9766 66.8092 57.9042C66.5036 57.655 66.1819 57.4137 65.8522 57.1805C65.804 57.1403 65.7557 57.0921 65.7075 57.0599C65.4984 56.8991 65.2813 56.7544 65.0561 56.6096H65.0401C64.8229 56.4649 64.5737 56.3282 64.3405 56.1915C64.1475 56.0709 63.9384 55.9422 63.7293 55.8216C63.7132 55.8216 63.7052 55.8055 63.6811 55.7975C63.5604 55.7332 63.4318 55.6769 63.3111 55.6125C63.2629 55.5884 63.2147 55.5643 63.1503 55.5241C62.9332 55.4276 62.7241 55.315 62.499 55.2185C62.4588 55.2024 62.4266 55.1944 62.3783 55.1703C62.1049 55.0497 61.8235 54.9371 61.542 54.8406C61.4053 54.7763 61.2847 54.728 61.148 54.6798C61.0596 54.6557 60.9631 54.6155 60.8666 54.5913C60.6334 54.5029 60.4002 54.4305 60.167 54.3742C60.1187 54.3501 60.0785 54.334 60.0303 54.326C59.8453 54.2777 59.6604 54.2375 59.4754 54.2054C59.0733 54.0928 58.6552 54.0124 58.237 53.948C58.1003 53.9239 57.9797 53.8998 57.843 53.8757C57.7545 53.8596 57.6741 53.8596 57.5696 53.8516C57.3525 53.8113 57.1273 53.7872 56.9102 53.7792C56.7252 53.7631 56.5403 53.739 56.3553 53.7309C56.1463 53.7309 55.9372 53.7149 55.7281 53.7149C55.6557 53.7149 55.5834 53.6988 55.511 53.6988H39.8946V104.116H32.5367V51.8735L32.5527 51.8413ZM32.5527 108.354V106.536H55.5271C64.6299 106.536 72.3819 99.1305 75.2366 88.838C75.3974 88.259 75.5421 87.672 75.6628 87.069C75.6788 87.0448 75.6788 87.0046 75.6869 86.9725C75.7271 86.8277 75.7512 86.6669 75.7834 86.5061C75.8075 86.3935 75.8316 86.289 75.8477 86.1764C75.912 85.8709 75.9603 85.5653 76.0085 85.2597C76.0327 85.1472 76.0488 85.0426 76.0568 84.9301C76.097 84.6727 76.1292 84.4154 76.1533 84.1581C76.1694 84.1179 76.1694 84.0858 76.1694 84.0455C76.2417 83.5711 76.282 83.0726 76.3141 82.5821C76.3302 82.4213 76.3382 82.2604 76.3543 82.1077C76.3704 81.9147 76.3784 81.7056 76.3784 81.4965C76.3865 81.3357 76.3784 81.1749 76.3945 81.0221H68.2405V79.1968H76.4508C76.6036 74.4848 77.8983 70.0462 80.1016 66.1784C80.5519 65.3824 81.0425 64.6104 81.5732 63.8626C81.6456 63.7661 81.734 63.6535 81.8064 63.5571C82.0235 63.2595 82.2326 62.9701 82.4578 62.6886C82.5945 62.5278 82.7151 62.367 82.8518 62.2142C82.9724 62.0695 83.1011 61.9328 83.2056 61.788C83.3262 61.6513 83.4388 61.5066 83.5594 61.3699C83.6479 61.2573 83.7444 61.1769 83.8409 61.0643C84.05 60.8151 84.2832 60.5899 84.5003 60.3648C84.7174 60.1316 84.9426 59.9145 85.1597 59.7135C85.2481 59.617 85.3285 59.5285 85.4331 59.4803C85.5698 59.3436 85.6904 59.223 85.8271 59.1023C85.8512 59.0782 85.8673 59.0621 85.8754 59.0541C85.996 58.9415 86.1327 58.837 86.2453 58.7325C86.6232 58.4108 87.0172 58.0731 87.4193 57.7595C87.7249 57.5102 88.0465 57.269 88.3762 57.0519C88.5129 56.9554 88.6336 56.883 88.7703 56.7785C89.1 56.5453 89.4457 56.3121 89.7996 56.103C90.0167 55.9663 90.2418 55.8216 90.475 55.7251C90.5153 55.6849 90.5394 55.6769 90.5715 55.6527C90.8289 55.4919 91.1023 55.3472 91.3596 55.2105C91.4481 55.1462 91.5446 55.114 91.6411 55.0657C91.9386 54.9049 92.2442 54.7602 92.5578 54.6155C92.598 54.5913 92.6221 54.5752 92.6543 54.5672C92.6703 54.5511 92.7025 54.5431 92.7186 54.527C92.9035 54.4385 93.0724 54.3581 93.2574 54.2777C93.3539 54.2375 93.4665 54.1893 93.563 54.1571C93.6514 54.1169 93.7318 54.0847 93.8364 54.0445C94.1661 53.8998 94.5199 53.7631 94.8657 53.6264C95.3079 53.4575 95.7583 53.2967 96.2166 53.16C96.5222 53.0716 96.8278 52.9751 97.1494 52.8866C97.2459 52.8625 97.3424 52.8223 97.455 52.7982C97.455 52.7982 97.463 52.7928 97.4791 52.7821C97.5676 52.758 97.6641 52.7339 97.7606 52.7178C98.1787 52.6052 98.6049 52.5087 99.0392 52.4203C99.5136 52.3077 99.9961 52.2273 100.487 52.1629C100.832 52.1147 101.17 52.0665 101.516 52.0262C101.87 51.986 102.216 51.9539 102.569 51.9298C102.867 51.9056 103.172 51.8895 103.478 51.8815C103.687 51.8654 103.896 51.8654 104.113 51.8654C104.298 51.8493 104.491 51.8413 104.676 51.8413C114.133 51.8413 122.512 56.5131 127.642 63.6696H121.016C117.189 57.5826 111.286 53.6747 104.676 53.6747C103.446 53.6747 102.256 53.8194 101.082 54.0767H101.041C101.041 54.0767 101.017 54.0928 101.001 54.1008C100.905 54.1169 100.816 54.141 100.728 54.1652C100.615 54.1893 100.511 54.2134 100.398 54.2375C100.326 54.2616 100.253 54.2858 100.165 54.3099C99.393 54.519 98.6451 54.7843 97.9053 55.106C97.841 55.1301 97.7927 55.1542 97.7364 55.1703C97.5274 55.2587 97.3183 55.3552 97.1253 55.4678C97.0851 55.4919 97.0529 55.516 97.0127 55.5321C96.7956 55.6447 96.5624 55.7653 96.3372 55.8859C96.1925 55.9583 96.0397 56.0468 95.895 56.1191C95.7502 56.2156 95.5974 56.3121 95.4446 56.4166C95.324 56.489 95.1954 56.5614 95.0747 56.6337C95.0506 56.6579 95.0104 56.674 94.9863 56.682C94.8174 56.8026 94.6405 56.9152 94.4716 57.0358C94.3832 57.1082 94.3108 57.1725 94.2223 57.2449C93.9248 57.4539 93.6353 57.671 93.3539 57.9042C93.2815 57.9766 93.193 58.0248 93.1046 58.0892C92.984 58.2017 92.8714 58.3063 92.7508 58.4108C92.5578 58.5958 92.3567 58.7807 92.1477 58.9656C92.0351 59.0782 91.9305 59.1747 91.818 59.2712C91.7456 59.3436 91.6813 59.4159 91.625 59.4883C91.3676 59.7456 91.1103 60.019 90.861 60.2844C90.845 60.3085 90.8369 60.3246 90.8128 60.3326C90.6278 60.5176 90.4831 60.7025 90.3223 60.8874C90.2981 60.9276 90.2821 60.9357 90.2579 60.9598C90.2177 61.0081 90.1936 61.0563 90.1453 61.1045C90.0086 61.2734 89.8719 61.4503 89.7433 61.6192C89.6548 61.7398 89.5583 61.8524 89.4699 61.9649C89.309 62.174 89.1482 62.3911 88.9954 62.6163C88.9713 62.6404 88.9552 62.6645 88.9311 62.7047C88.7703 62.9379 88.6255 63.155 88.4647 63.4043C88.4004 63.4927 88.3441 63.5892 88.2958 63.6857C88.2074 63.8304 88.135 63.9591 88.0465 64.0878C87.9742 64.2245 87.9018 64.3451 87.8133 64.4818C87.7008 64.6748 87.5801 64.8758 87.4676 65.0848C87.3791 65.2296 87.3067 65.3904 87.2344 65.5351C87.1218 65.7442 87.0172 65.9533 86.9127 66.1704H86.8966C86.784 66.3634 86.7036 66.5644 86.5991 66.7735C86.583 66.7895 86.575 66.8217 86.575 66.8217C86.4785 67.0388 86.39 67.264 86.2935 67.473C86.2533 67.5695 86.2211 67.658 86.1729 67.7545C86.1488 67.8268 86.1246 67.8912 86.0844 67.9474C85.996 68.1404 85.9236 68.3495 85.8512 68.5505C85.7869 68.7113 85.7387 68.8722 85.6904 69.0169C85.602 69.2501 85.5215 69.4833 85.4331 69.7245C85.417 69.7647 85.3929 69.813 85.3848 69.8451C85.2481 70.2472 85.1275 70.6653 85.0149 71.0834C84.9747 71.1799 84.9506 71.2684 84.9184 71.3649C84.2349 73.8174 83.8489 76.4548 83.7685 79.1807H91.9386V81.006H83.7122C83.7042 81.2634 83.7042 81.5207 83.6881 81.778C83.672 81.9147 83.664 82.0514 83.664 82.18C83.6238 82.5982 83.5755 83.0243 83.5273 83.4425C83.4871 83.7721 83.4388 84.1018 83.3906 84.4235C83.2941 85.0828 83.1574 85.7342 83.0126 86.3855C82.9402 86.7312 82.8518 87.085 82.7633 87.4389C82.6507 87.8409 82.5221 88.251 82.3934 88.637C82.305 88.9184 82.2246 89.1918 82.12 89.4571C81.9753 89.8753 81.8144 90.2934 81.6536 90.7115C81.6295 90.7598 81.6054 90.8241 81.5812 90.8724C81.139 91.9499 80.6243 92.9952 80.0453 94.0003C79.6031 94.7964 79.1125 95.5683 78.5738 96.3161C73.4594 103.577 65.0159 108.337 55.4788 108.337H32.5045L32.5527 108.354ZM83.865 121.501C82.6427 121.718 81.3883 121.846 80.1016 121.846C78.815 121.846 77.5525 121.718 76.3222 121.501L75.5341 116.33C77.1263 114.529 78.807 112.237 80.0936 109.544C81.3883 112.237 83.077 114.529 84.6692 116.33L83.865 121.501ZM96.7393 114.022C94.1821 113.178 84.4118 109.439 80.7771 100.57C82.1602 104.164 85.9156 111.634 94.4314 116.37C93.8846 116.869 93.3056 117.327 92.7106 117.762C92.6864 117.778 92.6623 117.794 92.6382 117.81C92.0833 118.212 91.5043 118.574 90.9093 118.927C90.853 118.96 90.8047 118.992 90.7485 119.024C89.2769 117.898 80.8253 111.112 80.0936 101.35C79.3699 111.112 70.9103 117.906 69.4468 119.024C69.4226 119.008 69.3905 118.992 69.3663 118.976C68.7311 118.606 68.1199 118.22 67.5329 117.794C66.9217 117.351 66.3267 116.877 65.7557 116.37C74.2716 111.634 78.035 104.164 79.4101 100.57C75.7834 109.431 66.0211 113.178 63.4559 114.022C62.5151 112.881 61.6868 111.642 60.9952 110.324C66.4071 109.375 70.6771 107.083 73.7811 104.775C73.8213 104.751 73.8695 104.727 73.9017 104.687C74.3198 104.381 74.7139 104.076 75.0677 103.77C75.1401 103.722 75.2044 103.65 75.2607 103.609C75.6869 103.256 76.0809 102.902 76.4508 102.556C76.4749 102.54 76.491 102.532 76.4991 102.492C78.5094 100.65 79.6754 99.0822 79.9971 98.6239C80.0614 98.5354 80.0936 98.4872 80.0936 98.4872C80.0936 98.4872 80.0936 98.5033 80.1097 98.5033C80.1257 98.5033 80.1257 98.5274 80.1257 98.5274C80.166 98.5757 80.2142 98.6641 80.3107 98.7767C80.6645 99.2672 81.4767 100.321 82.7633 101.599C83.0448 101.905 83.3664 102.21 83.6961 102.492C83.7122 102.532 83.7203 102.54 83.7444 102.556C84.1384 102.926 84.5646 103.304 85.031 103.682C85.0712 103.722 85.1034 103.746 85.1436 103.778C85.2883 103.899 85.4411 104.019 85.5939 104.148C85.8512 104.357 86.1246 104.566 86.4141 104.775C89.3975 106.995 93.4423 109.19 98.5567 110.195C98.7738 110.251 98.9909 110.283 99.2 110.324C98.5004 111.642 97.6802 112.881 96.7393 114.022ZM104.684 108.362C95.1391 108.362 86.6875 103.601 81.5732 96.3402C83.0287 94.0244 84.1867 91.4996 84.9586 88.8219C87.8053 99.1224 95.5813 106.536 104.684 106.536C111.294 106.536 117.197 102.612 121.032 96.5252H127.659C122.528 103.682 114.141 108.362 104.684 108.362Z" fill="#FAF2D7"/>
<path d="M80.004 0C35.8888 0 0 35.887 0 80C0 124.113 35.8888 160 80.004 160C124.119 160 160.008 124.113 160.008 80C160.008 35.887 124.111 0 80.004 0ZM80.004 159.196C36.3311 159.196 0.804141 123.663 0.804141 80C0.804141 36.3373 36.3311 0.804101 80.004 0.804101C123.677 0.804101 159.204 36.3293 159.204 80C159.204 123.671 123.677 159.196 80.004 159.196Z" fill="#FAF2D7"/>
</g>
<defs>
<clipPath id="clip0_4227_2074">
<rect width="160" height="160" fill="white"/>
</clipPath>
</defs>
</svg>
