<svg width="90" height="90" viewBox="0 0 90 90" fill="none" xmlns="http://www.w3.org/2000/svg">
<g clip-path="url(#clip0_4830_679)">
<path d="M45.0047 89.5474C69.6049 89.5474 89.5474 69.6049 89.5474 45.0047C89.5474 20.4044 69.6049 0.461914 45.0047 0.461914C20.4044 0.461914 0.461914 20.4044 0.461914 45.0047C0.461914 69.6049 20.4044 89.5474 45.0047 89.5474Z" stroke="#C30F28" stroke-miterlimit="10"/>
<path d="M45.005 5.71802C23.3156 5.71802 5.72754 23.306 5.72754 44.9954C5.72754 66.6849 23.3156 84.2729 45.005 84.2729C66.6944 84.2729 84.2824 66.6941 84.2824 44.9954C84.2824 23.2968 66.6944 5.71802 45.005 5.71802ZM22.789 47.702L18.6045 45.485C18.3735 45.3557 18.2904 45.0786 18.4105 44.8384L25.9759 30.6128C26.0313 30.502 26.133 30.4188 26.253 30.3819C26.2992 30.3726 26.3454 30.3634 26.3916 30.3634C26.4655 30.3634 26.5394 30.3819 26.6133 30.4188L30.7886 32.645C30.8995 32.7005 30.9826 32.8021 31.0195 32.9222C31.0565 33.0422 31.0473 33.1716 30.9826 33.2824L23.4172 47.508C23.2971 47.739 23.0107 47.8221 22.7798 47.702H22.789ZM59.3229 51.2676C59.1844 51.4339 58.6763 51.7665 56.8843 51.4432L50.5566 47.4988C50.2426 47.3233 49.8454 47.4341 49.6514 47.739C49.4574 48.0438 49.5405 48.4502 49.8361 48.6535L55.9975 52.4962C56.0991 53.0412 55.9605 53.6139 55.6187 54.0481C55.2123 54.473 54.3717 54.6301 53.2078 54.51L48.2935 51.4986C48.1364 51.4062 47.9517 51.3693 47.7762 51.4154C47.6007 51.4616 47.4436 51.5725 47.3513 51.7295C47.2589 51.8866 47.2312 52.0713 47.2681 52.2468C47.3143 52.4223 47.4252 52.5794 47.5822 52.6717L52.2748 55.5446C52.2748 55.988 52.0901 56.4129 51.776 56.7177C51.3234 57.041 50.5012 56.884 49.8731 56.69L46.8709 55.369C46.7047 55.2952 46.5107 55.2859 46.3444 55.3506C46.1689 55.4152 46.0303 55.5446 45.9564 55.7201C45.8825 55.8863 45.8825 56.0803 45.9564 56.2466C46.0211 56.4221 46.1596 56.5514 46.3259 56.6253L48.9124 57.7615C48.7738 58.8054 48.4043 59.4797 47.8039 59.7476C44.9588 61.0408 37.107 55.0273 31.9063 51.0459C29.1998 48.9768 26.9736 47.2771 25.5048 46.5104L30.9456 36.2753C32.4236 37.2083 34.1141 37.9658 35.9985 37.2176C38.2524 36.3215 40.5895 36.4509 43.1021 37.6148C40.9867 39.0281 38.9175 40.8848 38.197 42.603C37.7813 43.4066 37.8183 44.3765 38.2986 45.1432C39.5549 46.8891 41.8735 47.4895 43.8133 46.5843C44.6355 46.1132 45.3468 45.4758 45.901 44.7091C46.5199 43.9516 47.0002 43.3604 47.8131 43.2496C48.82 43.111 50.3165 43.7115 52.3857 45.0878H52.4041C57.0136 47.9976 58.6763 49.2262 59.2306 49.7435C59.4892 50.4732 59.5262 51.0182 59.3229 51.2676ZM59.9326 48.5426C57.7526 46.8891 55.4894 45.3557 53.1431 43.9516C50.7506 42.3628 49.0048 41.7069 47.6284 41.9009C46.289 42.0857 45.5223 43.0279 44.8479 43.85C44.4138 44.4689 43.8595 44.9862 43.2037 45.3742C41.8735 45.9839 40.3031 45.5774 39.4348 44.4043C39.3609 44.2842 39.1207 43.9331 39.4533 43.148C40.5433 40.5523 45.9934 37.1067 47.9887 36.7187C49.171 36.5525 50.3811 36.5709 51.5635 36.7926C53.6235 37.0605 55.9513 37.3654 59.0273 35.9058L64.5144 46.2333L59.9326 48.5426ZM71.3962 45.171L67.2209 47.3972C66.99 47.5173 66.7036 47.4341 66.5835 47.2032L59.0181 32.9776C58.898 32.7467 58.9812 32.4603 59.2121 32.3402L63.3874 30.1232C63.4521 30.0863 63.5352 30.0678 63.6091 30.0678C63.7846 30.0678 63.9509 30.1602 64.034 30.3172L71.5995 44.5428C71.7195 44.7738 71.6272 45.0601 71.4055 45.1802L71.3962 45.171Z" fill="#C30F28"/>
</g>
<defs>
<clipPath id="clip0_4830_679">
<rect width="90" height="90" fill="white"/>
</clipPath>
</defs>
</svg>
