<svg width="90" height="90" viewBox="0 0 90 90" fill="none" xmlns="http://www.w3.org/2000/svg">
<g clip-path="url(#clip0_4830_671)">
<path d="M0.462347 45.0047C0.462346 69.6049 20.4048 89.5474 45.0051 89.5474C69.6054 89.5474 89.5478 69.6049 89.5478 45.0047C89.5479 20.4044 69.6054 0.461913 45.0051 0.461912C20.4048 0.461911 0.462348 20.4044 0.462347 45.0047Z" stroke="#F06419" stroke-miterlimit="10"/>
<path d="M84.0098 45.2774C84.0098 23.588 66.4218 6 44.7323 6C23.0429 6 5.4549 23.588 5.4549 45.2774C5.4549 66.9668 23.0337 84.5549 44.7323 84.5549C66.431 84.5549 84.0098 66.9669 84.0098 45.2774ZM69.3223 45.4899C69.3223 47.5129 67.6688 49.1664 65.6458 49.1664C63.6228 49.1664 61.9693 47.5129 61.9693 45.4899C61.9693 43.4669 63.6228 41.8134 65.6458 41.8134C67.6688 41.8134 69.3223 43.4669 69.3223 45.4899ZM56.2514 32.4929C56.2514 32.4929 56.2698 32.5021 56.2698 32.5113C56.2791 32.5206 56.2883 32.5298 56.2976 32.5483C59.3274 35.8553 61.1102 39.3932 61.5444 43.6147C61.5998 44.1782 61.3319 44.6216 61.101 45.028C60.9624 45.2774 60.907 45.3513 60.8146 45.4807C60.907 45.61 60.9624 45.6839 61.101 45.9333C61.3135 46.312 61.5629 46.7277 61.5536 47.245C61.5536 47.245 61.5536 47.3097 61.5536 47.3466C61.1472 51.5496 59.1057 55.6695 56.353 58.4777L56.3345 58.4961C55.8357 58.9857 55.1521 59.2906 54.4039 59.2906C52.8797 59.2906 51.6419 58.0528 51.6419 56.5286C51.6419 55.7619 51.956 55.0598 52.4733 54.5518C53.5263 53.4895 54.3947 52.1131 55.0228 50.6721L52.1038 51.9561C52.0206 52.0207 51.919 52.0577 51.8174 52.0577C51.5495 52.0577 51.3371 51.8545 51.3371 51.5866C51.3371 51.5866 51.3371 51.5773 51.3371 51.5681L51.3371 39.5041C51.2816 39.3008 51.3648 39.0976 51.5403 38.9868C51.7158 38.8667 51.9467 38.8759 52.113 39.0052L55.0413 40.2985C54.3854 38.802 53.4709 37.4811 52.3162 36.3449C52.3162 36.3449 52.307 36.3356 52.2978 36.3264C51.8636 35.8368 51.5957 35.1902 51.5957 34.4881C51.5957 32.964 52.8335 31.7262 54.3577 31.7262C55.0967 31.7262 55.771 32.0125 56.2606 32.4836L56.2514 32.4929ZM29.2043 28.1236C28.1881 26.3685 28.7978 24.1145 30.5529 23.0984C32.308 22.0823 34.562 22.692 35.5781 24.4471C35.8275 24.8812 35.9845 25.3524 36.0399 25.8327C36.0584 25.962 36.0676 26.1006 36.0676 26.2299C36.0861 27.5231 35.421 28.7794 34.2294 29.4722C32.4743 30.4883 30.2204 29.8787 29.2043 28.1236ZM26.0451 42.9311C25.6756 42.2845 25.5924 41.5455 25.7587 40.8804C25.7587 40.8804 25.7587 40.8804 25.7587 40.8712C25.7587 40.862 25.7587 40.8527 25.7587 40.8342C25.7587 40.8158 25.7587 40.8065 25.7772 40.7881C26.8395 37.01 29.3705 33.2041 32.7976 30.7562C33.2595 30.4237 33.7768 30.4422 34.2479 30.4329C34.5342 30.4329 34.6266 30.4422 34.7837 30.4514C34.8576 30.3128 34.8853 30.2205 35.0331 29.9803C35.2732 29.5831 35.5226 29.1212 36.0399 28.8903C39.9196 27.1536 43.8733 26.9319 48.2425 27.9019C48.2425 27.9019 48.2518 27.9019 48.261 27.9019C48.2887 27.9019 48.3164 27.9111 48.3349 27.9204C48.9815 28.1143 49.5635 28.5485 49.933 29.1859C50.127 29.5184 50.2378 29.8694 50.284 30.2205C50.3025 30.3498 50.3117 30.4883 50.3025 30.6177C50.2748 31.5506 49.7852 32.4559 48.9169 32.9547C48.3164 33.2965 47.6421 33.3981 47.0047 33.278C47.0047 33.278 46.9863 33.278 46.977 33.278C46.977 33.278 46.9585 33.278 46.9493 33.278C45.3882 32.8439 43.7809 32.7053 42.1643 32.8901L44.7785 34.8022C44.9356 34.8761 45.0372 35.0331 45.0372 35.2087C45.0372 35.2364 45.0372 35.2548 45.0372 35.2826C45.0372 35.2826 45.0372 35.2918 45.0372 35.301C45.0372 35.301 45.0372 35.3103 45.0372 35.3195C45.0095 35.4858 44.8986 35.6243 44.7416 35.6798L34.3218 41.6933C34.2109 41.7857 34.0539 41.8226 33.9153 41.7949C33.6752 41.7487 33.5089 41.527 33.5274 41.2776L33.1763 38.0907C32.2434 39.3655 31.4859 40.7973 31.0887 42.2476C30.9132 42.9404 30.4606 43.5593 29.7955 43.9472C28.4745 44.7047 26.7841 44.2521 26.0174 42.9404L26.0451 42.9311ZM37.2685 45.3236C37.2685 45.3236 37.9336 43.8087 39.2268 42.2937C40.5201 40.7788 42.4784 39.2085 45.0741 39.2085C45.9979 39.2085 46.9124 39.578 47.6144 40.1784C48.3164 40.7788 48.8153 41.6287 48.8153 42.5986C48.8153 43.8179 48.1132 44.8987 47.1433 45.5176C48.1132 46.1457 48.8153 47.2173 48.8153 48.4274C48.8153 49.3973 48.3164 50.2564 47.6144 50.8476C46.9124 51.448 46.0071 51.8175 45.0741 51.8175C42.4784 51.8175 40.5108 50.2471 39.2268 48.7322C37.9336 47.2173 37.2685 45.7023 37.2685 45.7023C37.2131 45.5823 37.2131 45.4437 37.2685 45.3236ZM34.2571 60.593C33.786 60.593 33.2687 60.593 32.8068 60.2697C29.3798 57.8218 26.8395 54.016 25.7864 50.2379C25.7864 50.2194 25.7772 50.2102 25.7679 50.1917C25.7679 50.1917 25.7679 50.1825 25.7679 50.1732C25.7679 50.1732 25.7679 50.1548 25.7679 50.1455C25.6017 49.4712 25.6848 48.7415 26.0543 48.0948C26.8118 46.7739 28.5115 46.3213 29.8232 47.0787C30.4883 47.4667 30.9409 48.0948 31.1164 48.7876C31.5136 50.2287 32.2618 51.6697 33.2041 52.9445L33.5551 49.7576C33.5366 49.5451 33.6567 49.3511 33.8507 49.268C33.8507 49.268 33.8599 49.268 33.8691 49.268C34.0354 49.2033 34.2202 49.2403 34.3587 49.3511L44.76 55.3554C44.9356 55.4201 45.0464 55.5771 45.0649 55.7619C45.0649 55.7619 45.0649 55.7711 45.0649 55.7804C45.0649 55.7804 45.0649 55.7896 45.0649 55.7988C45.0649 55.7988 45.0649 55.8081 45.0649 55.8173C45.0649 55.9928 44.9633 56.1591 44.8062 56.233L42.192 58.1544C43.8086 58.3391 45.4159 58.2006 46.977 57.7664C46.9955 57.7664 47.014 57.7572 47.0417 57.7572C47.6698 57.6371 48.3534 57.7294 48.9538 58.0805C49.8221 58.5793 50.3117 59.4846 50.3302 60.4175C50.3302 60.5469 50.3302 60.6854 50.3117 60.8147C50.2655 61.175 50.1547 61.526 49.9607 61.8493C49.5912 62.4867 49 62.9209 48.3442 63.1149C48.3442 63.1149 48.3257 63.1149 48.3164 63.1149C48.298 63.1149 48.2795 63.1241 48.261 63.1333C43.8917 64.1033 39.9381 63.8723 36.0676 62.1449C35.5504 61.914 35.3009 61.4521 35.0608 61.0549C34.913 60.8055 34.876 60.7224 34.8114 60.5838C34.6543 60.593 34.562 60.6115 34.2756 60.6023L34.2571 60.593ZM30.5437 67.9275C28.7886 66.9114 28.1881 64.6575 29.195 62.9024C30.2111 61.1473 32.4651 60.5468 34.2202 61.5537C35.4118 62.2465 36.0769 63.5028 36.0584 64.7961C36.0584 64.9254 36.0492 65.0639 36.0307 65.1933C35.9753 65.6644 35.8182 66.1355 35.5688 66.5789C34.5527 68.334 32.2988 68.9344 30.5437 67.9275Z" fill="#F06419"/>
</g>
<defs>
<clipPath id="clip0_4830_671">
<rect width="90" height="90" fill="white"/>
</clipPath>
</defs>
</svg>
