<svg width="90" height="90" viewBox="0 0 90 90" fill="none" xmlns="http://www.w3.org/2000/svg">
<g clip-path="url(#clip0_4830_688)">
<path d="M45.0047 89.5474C69.6049 89.5474 89.5474 69.6049 89.5474 45.0047C89.5474 20.4044 69.6049 0.461914 45.0047 0.461914C20.4044 0.461914 0.461914 20.4044 0.461914 45.0047C0.461914 69.6049 20.4044 89.5474 45.0047 89.5474Z" stroke="#C30F28" stroke-miterlimit="10"/>
<path d="M44.9952 5.71802C23.3058 5.71802 5.71777 23.306 5.71777 44.9954C5.71777 66.6849 23.3058 84.2729 44.9952 84.2729C66.6846 84.2729 84.2726 66.6941 84.2726 44.9954C84.2726 23.2968 66.6846 5.71802 44.9952 5.71802ZM64.6062 45.2264C64.6062 45.8638 64.0889 46.3811 63.4515 46.3811H60.2C59.5626 46.3811 59.0453 45.8545 59.0453 45.2264C59.0453 44.5982 59.5718 44.0532 60.2 44.0532H63.4515C64.0982 44.0532 64.6062 44.5798 64.6062 45.2264ZM63.3407 47.5265V60.2002H60.3108V47.5265H63.3407ZM63.8857 40.8479C63.8857 41.9841 62.962 42.9078 61.8258 42.9078C60.6896 42.9078 59.775 41.9841 59.775 40.8479C59.775 39.7117 60.6896 38.7972 61.8258 38.7972C62.962 38.7972 63.8857 39.7117 63.8857 40.8479ZM39.0186 29.2549C39.111 28.987 39.3234 28.8023 39.6006 28.7561C40.6813 28.5898 41.7529 28.4513 42.8337 28.3589C43.2586 27.2873 43.7574 26.2435 44.3024 25.2274C44.441 24.978 44.6811 24.8394 44.949 24.8394C45.2169 24.8394 45.4756 24.978 45.6049 25.2366C46.1406 26.2158 46.621 27.2227 47.0367 28.2573C48.1729 28.3127 49.3183 28.4513 50.436 28.6822C50.7039 28.7376 50.9164 28.9224 50.9995 29.181C51.0734 29.4489 51.0088 29.726 50.8055 29.92C50.0111 30.7144 49.189 31.4904 48.3484 32.2294C48.6255 33.3656 48.8472 34.5202 49.0042 35.6934C49.0412 35.9613 48.9303 36.2199 48.7086 36.3862C48.4869 36.534 48.2098 36.5802 47.9604 36.4601C46.9258 35.989 45.9189 35.4347 44.9583 34.8066C44.0068 35.4347 42.9999 35.989 41.9561 36.4601C41.6975 36.5802 41.4296 36.5432 41.2079 36.3862C40.9862 36.2199 40.8846 35.9705 40.9123 35.6934C41.0693 34.5202 41.291 33.3656 41.5774 32.2294C40.7645 31.5181 39.9701 30.7699 39.1941 29.9939C39.0001 29.7999 38.9355 29.5136 39.0186 29.2457V29.2549ZM29.4579 32.6358C29.5318 32.4233 29.7073 32.2755 29.929 32.2386C30.7881 32.1093 31.6379 31.9892 32.497 31.9153C32.8388 31.0747 33.2268 30.2341 33.6702 29.4304C33.7718 29.2364 33.975 29.1164 34.1967 29.1164C34.4091 29.1164 34.6031 29.2364 34.714 29.4304C35.1297 30.2156 35.5084 31.0193 35.8502 31.8414C36.7554 31.8783 37.6607 31.9892 38.5567 32.1739C38.7692 32.2294 38.9355 32.3679 38.9909 32.5804C39.0556 32.7928 39.0001 33.0053 38.8431 33.1716C38.2057 33.809 37.5591 34.4186 36.8755 35.0098C37.1065 35.9151 37.282 36.8296 37.4021 37.7626C37.4298 37.975 37.3559 38.1782 37.1804 38.3076C36.9956 38.4461 36.7832 38.4646 36.5892 38.3815C35.7486 38.0027 34.9541 37.5593 34.1874 37.0698C33.43 37.5686 32.6356 38.012 31.7857 38.3815C31.5917 38.4646 31.3793 38.4461 31.1945 38.3076C31.019 38.1782 30.9451 37.975 30.9728 37.7626C31.0929 36.8296 31.2684 35.9151 31.4994 35.0098C30.8527 34.4463 30.2338 33.8551 29.6149 33.2455C29.4487 33.0792 29.3932 32.8667 29.4671 32.645L29.4579 32.6358ZM28.1647 38.7972C29.2916 38.7972 30.2154 39.7117 30.2154 40.8479C30.2154 41.9841 29.2916 42.9078 28.1647 42.9078C27.0377 42.9078 26.1047 41.9841 26.1047 40.8479C26.1047 39.7117 27.0285 38.7972 28.1647 38.7972ZM26.5389 44.0532H29.7812C30.4278 44.0532 30.9359 44.5798 30.9359 45.2264C30.9359 45.873 30.4186 46.3811 29.7812 46.3811H26.5389C25.9015 46.3811 25.3842 45.8545 25.3842 45.2264C25.3842 44.5798 25.9015 44.0532 26.5389 44.0532ZM29.6796 47.5265V60.2002H26.6405V47.5265H29.6796ZM31.4809 65.1422H24.8392V63.7104C24.8392 62.408 25.9107 61.3364 27.204 61.3364H29.1161C30.4186 61.3364 31.4809 62.408 31.4809 63.7104V65.1422ZM55.1194 49.2077C48.644 51.8866 41.3464 51.8866 34.8618 49.2077C34.0766 48.8844 33.8272 48.2285 33.9103 47.6004C33.1713 47.2401 32.4508 46.8522 31.7488 46.418C31.952 46.0762 32.0813 45.6883 32.0906 45.2726C32.848 45.7529 33.624 46.1871 34.4184 46.5658C34.8433 46.1224 35.4807 45.8915 36.1827 46.1778C41.8175 48.4872 48.1636 48.4872 53.7985 46.1778C54.4913 45.8915 55.1379 46.1224 55.5536 46.5658C56.348 46.1778 57.1331 45.7529 57.8906 45.2726C57.8999 45.6883 58.0292 46.0762 58.2324 46.418C57.5211 46.8429 56.7914 47.2401 56.0616 47.6004C56.154 48.2285 55.8953 48.8752 55.1102 49.2077H55.1194ZM58.14 38.3722C57.2994 37.9935 56.505 37.5501 55.7475 37.0605C54.9716 37.5593 54.1957 38.012 53.3551 38.3722C53.1518 38.4554 52.9394 38.4369 52.7639 38.2983C52.5883 38.169 52.5052 37.9658 52.5329 37.7533C52.6622 36.8203 52.8378 35.9058 53.0595 35.0006C52.4128 34.4371 51.7939 33.8459 51.175 33.2362C51.0088 33.07 50.9533 32.8575 51.0272 32.6358C51.1011 32.4233 51.2766 32.2755 51.4983 32.2386C52.3574 32.1093 53.2073 31.9892 54.0663 31.9153C54.4081 31.0747 54.8053 30.2341 55.2487 29.4304C55.3411 29.2364 55.5443 29.1164 55.766 29.1164C55.9877 29.1164 56.1725 29.2364 56.2833 29.4304C56.7082 30.2156 57.087 31.0193 57.4195 31.8414C58.3248 31.8783 59.23 31.9892 60.1261 32.1739C60.3385 32.2294 60.5048 32.3679 60.5695 32.5804C60.6249 32.7928 60.5695 33.0053 60.4124 33.1716C59.7751 33.809 59.1284 34.4186 58.4449 35.0098C58.6758 35.9151 58.8513 36.8296 58.9806 37.7626C59.0083 37.9843 58.9252 38.1782 58.7497 38.2983C58.5742 38.4369 58.3617 38.4554 58.1585 38.3722H58.14ZM65.1604 65.1422H58.5188V63.7104C58.5188 62.408 59.5718 61.3364 60.8835 61.3364H62.7864C64.0889 61.3364 65.1604 62.408 65.1604 63.7104V65.1422Z" fill="#C30F28"/>
</g>
<defs>
<clipPath id="clip0_4830_688">
<rect width="90" height="90" fill="white"/>
</clipPath>
</defs>
</svg>
