<svg width="48" height="25" viewBox="0 0 48 25" fill="none" xmlns="http://www.w3.org/2000/svg">
<path d="M3.50651 18.9047C6.65936 17.8778 18.6721 13.3228 23.142 2.52765C21.4392 6.89837 16.823 15.9953 6.34008 21.7615C7.01854 22.367 7.72361 22.9331 8.45528 23.4597C8.48189 23.486 8.50849 23.4992 8.5351 23.5255C9.21356 24.0126 9.93193 24.4602 10.6636 24.8815C10.7301 24.921 10.7966 24.9605 10.8631 25C12.6724 23.6309 23.0754 15.3633 23.98 3.47552C24.8714 15.3633 35.2744 23.6309 37.0836 25C37.1235 24.9868 37.1502 24.9605 37.1901 24.9342C37.975 24.4866 38.7199 24.0126 39.4516 23.4992C40.2099 22.9595 40.9416 22.3802 41.6333 21.7615C31.1637 15.9953 26.5209 6.89837 24.8314 2.52765C29.3013 13.3228 41.3007 17.8778 44.4669 18.9047C45.6243 17.5224 46.6353 16.0084 47.5 14.4023C40.8351 13.2438 35.5937 10.466 31.7624 7.64876C31.7225 7.62243 31.656 7.58294 31.616 7.54344C31.0972 7.17483 30.6183 6.79305 30.1793 6.42443C30.0862 6.35861 30.0197 6.27962 29.9399 6.22696C29.4077 5.79252 28.9288 5.35808 28.4765 4.93681L28.41 4.87099C25.9356 2.63297 24.5122 0.710903 24.1264 0.15798C24.0466 0.0526618 24.0067 -1.46505e-07 24.0067 -1.46505e-07C24.0067 -1.46505e-07 24.0067 0.0131663 23.9934 0.0131663C23.98 0.0131663 23.98 0.0394972 23.98 0.0394972C23.9401 0.105322 23.8736 0.197473 23.7539 0.342287C23.3149 0.934704 22.3172 2.22486 20.7341 3.77831C20.3882 4.14692 19.9891 4.55503 19.5767 4.89731L19.5235 4.94997C19.0446 5.39758 18.5125 5.85835 17.9404 6.31911C17.9005 6.35861 17.8473 6.3981 17.8074 6.4376C17.6211 6.58241 17.4482 6.74039 17.2487 6.8852C16.9294 7.13533 16.5968 7.39863 16.2376 7.64876C12.5659 10.3476 7.59058 13.02 1.2982 14.2575C1.03213 14.3233 0.766061 14.3628 0.500001 14.4155C1.3514 16.0216 2.37575 17.5355 3.53312 18.9178L3.50651 18.9047Z" fill="#0A4BA5"/>
</svg>
