<svg width="20" height="35" viewBox="0 0 20 35" fill="none" xmlns="http://www.w3.org/2000/svg">
<path d="M5.20986 2.23889C5.97798 4.58676 9.38528 13.5324 17.4604 16.861C14.1909 15.593 7.3862 12.1554 3.07292 4.349C2.61992 4.85423 2.19647 5.37929 1.80257 5.92415C1.78287 5.94396 1.77302 5.96377 1.75333 5.98359C1.38896 6.48882 1.05414 7.02378 0.739019 7.56864C0.709476 7.61817 0.679932 7.66771 0.650389 7.71724C1.67455 9.06454 7.85889 16.8115 16.7513 17.4851C7.85889 18.1489 1.67455 25.8958 0.65039 27.2431C0.660238 27.2729 0.679933 27.2927 0.699628 27.3224C1.03445 27.9069 1.38897 28.4617 1.77303 29.0065C2.17678 29.5712 2.61008 30.1161 3.07292 30.6312C7.3862 22.8347 14.1909 19.3773 17.4604 18.1192C9.38528 21.4478 5.97798 30.3835 5.20986 32.7413C6.24387 33.6032 7.37635 34.3561 8.57777 35C9.44437 30.0368 11.5222 26.1336 13.6296 23.2805C13.6493 23.2508 13.6789 23.2012 13.7084 23.1715C13.9841 22.7852 14.2697 22.4285 14.5455 22.1016C14.5947 22.0323 14.6538 21.9827 14.6932 21.9233C15.0182 21.527 15.3431 21.1704 15.6583 20.8336L15.7075 20.784C17.3816 18.9414 18.8194 17.8814 19.233 17.5941C19.3117 17.5347 19.3511 17.505 19.3511 17.505C19.3511 17.505 19.3413 17.505 19.3413 17.495C19.3413 17.4851 19.3216 17.4851 19.3216 17.4851C19.2723 17.4554 19.2034 17.4059 19.0951 17.3167C18.6519 16.9898 17.6869 16.2468 16.5248 15.0679C16.2491 14.8104 15.9438 14.5132 15.6878 14.2061L15.6484 14.1664C15.3136 13.8098 14.9689 13.4135 14.6242 12.9875C14.5947 12.9578 14.5652 12.9182 14.5356 12.8885C14.4273 12.7498 14.3091 12.621 14.2008 12.4724C14.0137 12.2346 13.8167 11.987 13.6296 11.7195C11.6109 8.98528 9.61178 5.28022 8.68609 0.594402C8.63686 0.39627 8.60731 0.198131 8.56792 -3.46086e-07C7.3665 0.634021 6.23402 1.39684 5.20002 2.25871L5.20986 2.23889Z" fill="#0A4BA5"/>
</svg>
