<svg width="48" height="25" viewBox="0 0 48 25" fill="none" xmlns="http://www.w3.org/2000/svg">
<path d="M44.4935 6.09531C41.3406 7.12217 29.3279 11.6772 24.858 22.4724C26.5609 18.1016 31.177 9.00474 41.6599 3.23854C40.9815 2.63296 40.2764 2.06688 39.5447 1.54028C39.5181 1.51395 39.4915 1.50079 39.4649 1.47446C38.7864 0.98736 38.0681 0.539758 37.3364 0.118484C37.2699 0.0789891 37.2034 0.0394945 37.1369 0C35.3276 1.36914 24.9246 9.63665 24.02 21.5245C23.1286 9.63665 12.7256 1.36914 10.9164 0C10.8765 0.0131648 10.8498 0.0394935 10.8099 0.0658231C10.025 0.513427 9.28007 0.987361 8.54839 1.50079C7.79012 2.04055 7.05844 2.6198 6.36668 3.23854C16.8363 9.00474 21.4791 18.1016 23.1686 22.4724C18.6987 11.6772 6.69926 7.12217 3.53311 6.09531C2.37574 7.47762 1.3647 8.99157 0.5 10.5977C7.16487 11.7562 12.4063 14.534 16.2376 17.3512C16.2775 17.3776 16.344 17.4171 16.384 17.4566C16.9028 17.8252 17.3817 18.2069 17.8207 18.5756C17.9138 18.6414 17.9803 18.7204 18.0601 18.773C18.5923 19.2075 19.0712 19.6419 19.5235 20.0632L19.59 20.129C22.0644 22.367 23.4878 24.2891 23.8736 24.842C23.9534 24.9473 23.9933 25 23.9933 25C23.9933 25 23.9933 24.9868 24.0066 24.9868C24.02 24.9868 24.02 24.9605 24.02 24.9605C24.0599 24.8947 24.1264 24.8025 24.2461 24.6577C24.6851 24.0653 25.6828 22.7751 27.2659 21.2217C27.6118 20.8531 28.0109 20.445 28.4233 20.1027L28.4765 20.05C28.9554 19.6024 29.4875 19.1417 30.0596 18.6809C30.0995 18.6414 30.1527 18.6019 30.1926 18.5624C30.3789 18.4176 30.5518 18.2596 30.7513 18.1148C31.0706 17.8647 31.4032 17.6014 31.7624 17.3512C35.4341 14.6524 40.4094 11.98 46.7018 10.7425C46.9679 10.6767 47.2339 10.6372 47.5 10.5845C46.6486 8.97841 45.6242 7.46445 44.4669 6.08215L44.4935 6.09531Z" fill="#0A4BA5"/>
</svg>
