<svg width="88" height="88" viewBox="0 0 88 88" fill="none" xmlns="http://www.w3.org/2000/svg">
<path d="M43.9819 3.21948C21.5042 3.21948 3.21948 21.5023 3.21948 43.9777C3.21948 66.4532 21.5042 84.7316 43.9819 84.7316C66.4596 84.7316 84.7442 66.4487 84.7442 43.9777C84.7442 21.5067 66.4551 3.21948 43.9819 3.21948ZM41.9031 21.206C42.5798 21.0866 43.2698 21.0158 43.9819 21.0158C44.694 21.0158 45.3795 21.0866 46.0518 21.206L46.4941 24.0497C45.6184 25.0404 44.6895 26.3008 43.9774 27.7779C43.2698 26.3008 42.3454 25.0404 41.4696 24.0497L41.9031 21.206ZM34.8263 25.319C36.2372 25.7834 41.6067 27.8398 43.6015 32.7179C42.8451 30.741 40.7752 26.6325 36.0912 24.0276C36.4053 23.749 36.7281 23.488 37.0687 23.2448C37.3916 23.0104 37.7277 22.7981 38.0772 22.5947C38.0904 22.5858 38.1081 22.577 38.1214 22.5682C38.9264 23.1829 43.5794 26.9199 43.9774 32.2889C44.3799 26.9244 49.0285 23.1873 49.8379 22.5682C49.8689 22.5858 49.8954 22.6035 49.9264 22.6212C50.2537 22.8114 50.5721 23.0148 50.8773 23.236C50.8906 23.2448 50.9039 23.2537 50.9171 23.2625C51.2444 23.5013 51.5629 23.7534 51.8637 24.0276C47.1797 26.6325 45.1186 30.741 44.3534 32.7179C46.3526 27.8398 51.7221 25.7834 53.1331 25.319C53.6505 25.947 54.1061 26.6281 54.4865 27.3534C54.3671 27.3755 54.2477 27.3932 54.1327 27.4241C51.3196 27.9769 49.0904 29.1843 47.4539 30.4049C47.2903 30.5199 47.1443 30.6349 47.0028 30.7499C46.9143 30.8162 46.8347 30.887 46.7551 30.9533C46.733 30.9754 46.7153 30.9887 46.6932 31.0064C46.4366 31.2143 46.2022 31.4265 45.9855 31.6255C45.9722 31.6344 45.9634 31.6388 45.9589 31.6609C45.7776 31.8157 45.6007 31.9838 45.4459 32.1518C44.7382 32.855 44.2915 33.4344 44.0969 33.7041C44.0438 33.7661 44.0172 33.8103 43.9951 33.8412C43.9951 33.8412 43.9951 33.8545 43.9863 33.8545C43.9774 33.8545 43.9774 33.8634 43.9774 33.8634C43.9774 33.8634 43.9553 33.8368 43.9244 33.7882C43.7474 33.5405 43.1061 32.6737 42.0004 31.6609C41.9915 31.6388 41.9871 31.6344 41.9738 31.6255C41.7704 31.4354 41.5536 31.2408 41.3192 31.0462C41.2838 31.0241 41.2529 30.9843 41.2131 30.9577C41.0185 30.7897 40.8017 30.6216 40.5717 30.4536C40.5496 30.4315 40.5231 30.4182 40.5054 30.4049C38.7981 29.1357 36.4495 27.8752 33.4728 27.3534C33.8576 26.6281 34.3088 25.947 34.8263 25.319ZM17.8242 28.4325H30.4607C30.5669 28.4325 30.6686 28.4413 30.7792 28.4457C30.8942 28.4457 31.0136 28.4457 31.1286 28.4546C31.2923 28.4634 31.4603 28.4678 31.6196 28.4811C31.8142 28.4944 32.0044 28.5165 32.1946 28.5342C32.3848 28.5563 32.5705 28.5828 32.7607 28.6094C33.0305 28.6492 33.2959 28.7022 33.5568 28.7509C33.8001 28.7995 34.0345 28.8526 34.2645 28.9145C34.2911 28.9145 34.3176 28.9234 34.3397 28.9278C34.6007 29.003 34.8572 29.0693 35.1093 29.1489C35.3659 29.2241 35.6135 29.3126 35.8568 29.4054C36.0514 29.4718 36.2416 29.5469 36.4318 29.6354C36.4451 29.6354 36.4583 29.6442 36.4716 29.6487C36.5601 29.684 36.6485 29.7239 36.737 29.7637C36.8785 29.8167 37.0156 29.8831 37.1483 29.9538C37.2545 30.0025 37.3651 30.0555 37.4668 30.1086C37.5995 30.1838 37.7366 30.2457 37.8737 30.3253C37.8825 30.3253 37.8825 30.3342 37.887 30.3342C37.9799 30.3828 38.0772 30.4359 38.17 30.489C38.1833 30.4978 38.1966 30.5111 38.2098 30.5155C38.2098 30.5155 38.2128 30.5184 38.2187 30.5243C38.3602 30.6039 38.5018 30.6924 38.6433 30.772C38.8379 30.887 39.0281 31.0152 39.2094 31.1435C39.2846 31.1966 39.351 31.2364 39.4262 31.2939C39.6075 31.4133 39.7844 31.5504 39.9525 31.683C40.1737 31.8511 40.3904 32.0413 40.5983 32.2182C40.6646 32.2712 40.7398 32.3376 40.8061 32.3951C40.8858 32.4703 40.961 32.5499 41.0406 32.6295C41.0936 32.656 41.1423 32.7047 41.1909 32.7577C41.3104 32.8639 41.4342 32.9877 41.5536 33.1159C41.6731 33.2354 41.8013 33.3636 41.9163 33.5007C41.9694 33.5626 42.0225 33.6069 42.0711 33.6688C42.1463 33.7484 42.2127 33.8368 42.2879 33.9164C42.3498 33.9916 42.4073 34.058 42.4648 34.1331C42.54 34.2216 42.6152 34.31 42.6859 34.3941C42.8009 34.5489 42.9203 34.7125 43.0353 34.8673C43.0751 34.9292 43.1238 34.9823 43.1636 35.0442C42.3675 36.3135 41.735 37.7021 41.3015 39.166C41.2927 39.1262 41.275 39.0864 41.2661 39.0466C41.1909 38.8034 41.1246 38.569 41.045 38.3301C41.0317 38.2948 41.0229 38.2638 41.0096 38.2417V38.2328C40.9742 38.1311 40.9433 38.0383 40.9035 37.9365C40.8681 37.8304 40.8371 37.7198 40.7885 37.6137C40.7486 37.512 40.7088 37.4058 40.669 37.3085C40.6602 37.2864 40.6558 37.2687 40.6469 37.2555L40.6381 37.2466C40.6381 37.2466 40.6292 37.2378 40.6292 37.2333C40.5938 37.1449 40.5629 37.0653 40.5231 36.9857C40.5142 36.9636 40.5098 36.9459 40.4965 36.9193C40.4435 36.7911 40.3815 36.6761 40.3285 36.5434C40.3019 36.4771 40.2621 36.4152 40.2267 36.3488C40.1648 36.2206 40.1073 36.1012 40.0365 35.9729C39.9967 35.8977 39.9569 35.8181 39.9171 35.7385C39.8685 35.6501 39.8154 35.5616 39.7623 35.4688C39.696 35.3538 39.6252 35.2388 39.5589 35.1326C39.5058 35.0398 39.4527 34.9425 39.3908 34.8496C39.3377 34.77 39.2846 34.6948 39.2271 34.6196C39.1475 34.5002 39.0723 34.3764 38.9839 34.2614C38.9618 34.226 38.9441 34.1951 38.9175 34.1597C38.9175 34.1508 38.9087 34.1508 38.9087 34.1464C38.8423 34.058 38.7804 33.9695 38.7141 33.8899C38.6654 33.8236 38.6123 33.7616 38.5637 33.6953C38.5239 33.6555 38.4973 33.6069 38.4575 33.567C38.4177 33.514 38.3779 33.4653 38.3381 33.4123C38.232 33.284 38.1214 33.1646 38.0152 33.0408C37.9666 32.9921 37.9223 32.9479 37.8825 32.8904L37.8206 32.8285C37.7189 32.7268 37.626 32.625 37.5154 32.5189C37.4756 32.4791 37.427 32.4393 37.3827 32.3995C37.2412 32.2624 37.1041 32.1386 36.9581 32.0103C36.9095 31.9705 36.8653 31.9219 36.8078 31.8821C36.7591 31.8423 36.7149 31.8069 36.6662 31.7671C36.4981 31.63 36.3212 31.4973 36.1399 31.369C36.1133 31.3469 36.0868 31.3204 36.0603 31.3027C35.9453 31.2143 35.8258 31.1346 35.702 31.055H35.6932C35.5737 30.9754 35.4366 30.9002 35.3084 30.8251C35.2022 30.7587 35.0872 30.688 34.9722 30.6216C34.9634 30.6216 34.9589 30.6128 34.9457 30.6084C34.8793 30.573 34.8086 30.542 34.7422 30.5066C34.7157 30.4934 34.6891 30.4801 34.6538 30.458C34.5343 30.4049 34.4193 30.343 34.2955 30.2899C34.2734 30.2811 34.2557 30.2767 34.2291 30.2634C34.0788 30.1971 33.924 30.1351 33.7692 30.0821C33.694 30.0467 33.6276 30.0202 33.5524 29.9936C33.5038 29.9804 33.4507 29.9582 33.3976 29.945C33.2694 29.8963 33.1411 29.8565 33.0128 29.8256C32.9863 29.8123 32.9642 29.8035 32.9376 29.799C32.8359 29.7725 32.7342 29.7504 32.6324 29.7327C32.4113 29.6708 32.1813 29.6266 31.9513 29.5912C31.8761 29.5779 31.8098 29.5646 31.7346 29.5514C31.6859 29.5425 31.6417 29.5425 31.5842 29.5381C31.4648 29.516 31.3409 29.5027 31.2215 29.4983C31.1198 29.4895 31.018 29.4762 30.9163 29.4718C30.8013 29.4718 30.6863 29.4629 30.5713 29.4629C30.5315 29.4629 30.4917 29.4541 30.4519 29.4541H21.8624V57.1835H17.8154V28.4502L17.8242 28.4325ZM17.8242 59.5142V58.5147H30.4607C35.4676 58.5147 39.7314 54.4415 41.3015 48.7806C41.39 48.4622 41.4696 48.1394 41.5359 47.8077C41.5448 47.7944 41.5448 47.7723 41.5492 47.7546C41.5713 47.675 41.5846 47.5865 41.6023 47.4981C41.6156 47.4362 41.6288 47.3787 41.6377 47.3168C41.6731 47.1487 41.6996 46.9807 41.7261 46.8126C41.7394 46.7507 41.7482 46.6932 41.7527 46.6313C41.7748 46.4898 41.7925 46.3482 41.8057 46.2067C41.8146 46.1846 41.8146 46.1669 41.8146 46.1448C41.8544 45.8839 41.8765 45.6097 41.8942 45.3399C41.903 45.2514 41.9075 45.163 41.9163 45.079C41.9252 44.9728 41.9296 44.8578 41.9296 44.7428C41.934 44.6544 41.9296 44.5659 41.9384 44.4819H37.4535V43.478H41.9694C42.0534 40.8864 42.7655 38.4451 43.9774 36.3179C44.2251 35.88 44.4949 35.4555 44.7868 35.0442C44.8267 34.9911 44.8753 34.9292 44.9151 34.8761C45.0345 34.7125 45.1495 34.5533 45.2734 34.3985C45.3486 34.31 45.4149 34.2216 45.4901 34.1376C45.5564 34.058 45.6272 33.9828 45.6847 33.9032C45.7511 33.828 45.813 33.7484 45.8793 33.6732C45.928 33.6113 45.9811 33.567 46.0341 33.5051C46.1491 33.368 46.2774 33.2442 46.3968 33.1204C46.5162 32.9921 46.6401 32.8727 46.7595 32.7621C46.8082 32.7091 46.8524 32.6604 46.9099 32.6339C46.9851 32.5587 47.0514 32.4924 47.1266 32.426C47.1399 32.4128 47.1487 32.4039 47.1532 32.3995C47.2195 32.3376 47.2947 32.2801 47.3566 32.2226C47.5645 32.0457 47.7812 31.8599 48.0024 31.6875C48.1704 31.5504 48.3474 31.4177 48.5287 31.2983C48.6039 31.2452 48.6702 31.2054 48.7454 31.1479C48.9268 31.0197 49.117 30.8914 49.3116 30.7764C49.431 30.7012 49.5548 30.6216 49.6831 30.5686C49.7052 30.5464 49.7185 30.542 49.7362 30.5288C49.8777 30.4403 50.0281 30.3607 50.1696 30.2855C50.2183 30.2501 50.2714 30.2324 50.3244 30.2059C50.4881 30.1175 50.6562 30.0379 50.8287 29.9582C50.8508 29.945 50.8641 29.9361 50.8817 29.9317C50.8906 29.9229 50.9083 29.9184 50.9171 29.9096C51.0189 29.8609 51.1117 29.8167 51.2135 29.7725C51.2665 29.7504 51.3285 29.7239 51.3815 29.7062C51.4302 29.684 51.4744 29.6664 51.5319 29.6442C51.7133 29.5646 51.9079 29.4895 52.0981 29.4143C52.3413 29.3214 52.589 29.2329 52.8411 29.1578C53.0092 29.1091 53.1773 29.056 53.3542 29.0074C53.4073 28.9941 53.4604 28.972 53.5223 28.9587C53.5223 28.9587 53.5267 28.9558 53.5355 28.9499C53.5842 28.9366 53.6373 28.9234 53.6904 28.9145C53.9203 28.8526 54.1548 28.7995 54.3936 28.7509C54.6546 28.689 54.9199 28.6447 55.1898 28.6094C55.3799 28.5828 55.5657 28.5563 55.7559 28.5342C55.9505 28.5121 56.1407 28.4944 56.3353 28.4811C56.499 28.4678 56.667 28.459 56.8351 28.4546C56.9501 28.4457 57.0651 28.4457 57.1845 28.4457C57.2863 28.4369 57.3924 28.4325 57.4941 28.4325C62.6956 28.4325 67.3044 31.002 70.1262 34.938H66.4817C64.3763 31.5902 61.1298 29.4408 57.4941 29.4408C56.8174 29.4408 56.1628 29.5204 55.5171 29.6619H55.4949C55.4949 29.6619 55.4817 29.6708 55.4728 29.6752C55.4197 29.684 55.3711 29.6973 55.3224 29.7106C55.2605 29.7239 55.203 29.7371 55.1411 29.7504C55.1013 29.7637 55.0615 29.7769 55.0128 29.7902C54.5882 29.9052 54.1769 30.0511 53.77 30.228C53.7346 30.2413 53.708 30.2546 53.6771 30.2634C53.5621 30.3121 53.4471 30.3651 53.3409 30.427C53.3188 30.4403 53.3011 30.4536 53.279 30.4624C53.1596 30.5243 53.0313 30.5907 52.9075 30.657C52.8279 30.6968 52.7438 30.7455 52.6642 30.7853C52.5846 30.8383 52.5006 30.8914 52.4165 30.9489C52.3502 30.9887 52.2794 31.0285 52.2131 31.0683C52.1998 31.0816 52.1777 31.0904 52.1644 31.0948C52.0715 31.1612 51.9742 31.2231 51.8813 31.2894C51.8327 31.3292 51.7929 31.3646 51.7442 31.4044C51.5806 31.5194 51.4214 31.6388 51.2665 31.7671C51.2267 31.8069 51.1781 31.8334 51.1294 31.8688C51.0631 31.9307 51.0012 31.9882 50.9348 32.0457C50.8287 32.1474 50.7181 32.2491 50.6031 32.3508C50.5412 32.4128 50.4837 32.4658 50.4218 32.5189C50.3819 32.5587 50.3466 32.5985 50.3156 32.6383C50.1741 32.7798 50.0325 32.9302 49.8954 33.0761C49.8866 33.0894 49.8821 33.0983 49.8689 33.1027C49.7672 33.2044 49.6875 33.3061 49.5991 33.4078C49.5858 33.4299 49.577 33.4344 49.5637 33.4476C49.5416 33.4742 49.5283 33.5007 49.5018 33.5272C49.4266 33.6201 49.3514 33.7174 49.2806 33.8103C49.232 33.8766 49.1789 33.9385 49.1302 34.0005C49.0418 34.1154 48.9533 34.2349 48.8693 34.3587C48.856 34.372 48.8472 34.3852 48.8339 34.4073C48.7454 34.5356 48.6658 34.655 48.5774 34.7921C48.542 34.8407 48.511 34.8938 48.4845 34.9469C48.4358 35.0265 48.396 35.0973 48.3474 35.168C48.3076 35.2432 48.2677 35.3095 48.2191 35.3847C48.1572 35.4909 48.0908 35.6014 48.0289 35.7164C47.9803 35.796 47.9404 35.8845 47.9006 35.9641C47.8387 36.0791 47.7812 36.194 47.7237 36.3135H47.7149C47.653 36.4196 47.6087 36.5302 47.5512 36.6451C47.5424 36.654 47.538 36.6717 47.538 36.6717C47.4849 36.7911 47.4362 36.9149 47.3832 37.0299C47.361 37.083 47.3433 37.1316 47.3168 37.1847C47.3035 37.2245 47.2903 37.2599 47.2682 37.2908C47.2195 37.397 47.1797 37.512 47.1399 37.6225C47.1045 37.711 47.078 37.7994 47.0514 37.879C47.0028 38.0073 46.9585 38.1355 46.9099 38.2682C46.901 38.2903 46.8878 38.3169 46.8834 38.3346C46.8082 38.5557 46.7418 38.7857 46.6799 39.0156C46.6578 39.0687 46.6445 39.1174 46.6268 39.1704C46.2509 40.5193 46.0386 41.9699 45.9943 43.4691H50.4881V44.4731H45.9634C45.9589 44.6146 45.9589 44.7561 45.9501 44.8976C45.9413 44.9728 45.9368 45.048 45.9368 45.1188C45.9147 45.3487 45.8882 45.5831 45.8616 45.8131C45.8395 45.9944 45.813 46.1758 45.7864 46.3527C45.7334 46.7153 45.6582 47.0735 45.5786 47.4318C45.5388 47.6219 45.4901 47.8165 45.4415 48.0111C45.3795 48.2322 45.3088 48.4578 45.238 48.6701C45.1893 48.8249 45.1451 48.9752 45.0876 49.1212C45.008 49.3511 44.9195 49.5811 44.8311 49.8111C44.8178 49.8376 44.8045 49.873 44.7913 49.8995C44.548 50.4922 44.2649 51.0671 43.9465 51.6199C43.7032 52.0577 43.4334 52.4823 43.1371 52.8936C40.324 56.8872 35.6799 59.5053 30.4342 59.5053H17.7977L17.8242 59.5142ZM46.0474 66.7451C45.3751 66.8645 44.6851 66.9352 43.9774 66.9352C43.2698 66.9352 42.5753 66.8645 41.8986 66.7451L41.4652 63.9013C42.3409 62.9107 43.2653 61.6503 43.973 60.1687C44.6851 61.6503 45.614 62.9107 46.4897 63.9013L46.0474 66.7451ZM53.1286 62.6321C51.7221 62.1677 46.3482 60.1112 44.349 55.2331C45.1097 57.21 47.1753 61.3186 51.8592 63.9235C51.5585 64.1977 51.24 64.4497 50.9127 64.6886C50.8994 64.6974 50.8862 64.7063 50.8729 64.7151C50.5677 64.9362 50.2493 65.1352 49.922 65.3298C49.891 65.3475 49.8645 65.3652 49.8335 65.3829C49.0241 64.7637 44.3755 61.0311 43.973 55.6621C43.5749 61.0311 38.922 64.7682 38.117 65.3829C38.1037 65.3741 38.086 65.3652 38.0727 65.3564C37.7233 65.1529 37.3872 64.9407 37.0643 64.7063C36.7281 64.463 36.4008 64.2021 36.0868 63.9235C40.7708 61.3186 42.8407 57.21 43.5971 55.2331C41.6023 60.1068 36.2328 62.1677 34.8218 62.6321C34.3043 62.0041 33.8488 61.323 33.4684 60.5977C36.4451 60.0758 38.7937 58.8154 40.501 57.5461C40.5231 57.5329 40.5496 57.5196 40.5673 57.4975C40.7973 57.3294 41.014 57.1614 41.2086 56.9933C41.2484 56.9668 41.2838 56.927 41.3148 56.9049C41.5492 56.7103 41.7659 56.5157 41.9694 56.3255C41.9827 56.3167 41.9915 56.3122 41.9959 56.2901C43.1017 55.2774 43.743 54.415 43.9199 54.1629C43.9553 54.1142 43.973 54.0877 43.973 54.0877C43.973 54.0877 43.973 54.0965 43.9819 54.0965C43.9907 54.0965 43.9907 54.1098 43.9907 54.1098C44.0128 54.1364 44.0394 54.185 44.0924 54.2469C44.287 54.5167 44.7338 55.096 45.4415 55.7992C45.5963 55.9673 45.7732 56.1353 45.9545 56.2901C45.9634 56.3122 45.9678 56.3167 45.9811 56.3255C46.1978 56.529 46.4322 56.7368 46.6887 56.9447C46.7109 56.9668 46.7285 56.98 46.7507 56.9977C46.8303 57.0641 46.9143 57.1304 46.9983 57.2012C47.1399 57.3162 47.2903 57.4312 47.4495 57.5461C49.0904 58.7668 51.3152 59.9741 54.1282 60.5269C54.2477 60.5579 54.3671 60.5756 54.4821 60.5977C54.0973 61.323 53.6461 62.0041 53.1286 62.6321ZM57.4986 59.5186C52.2485 59.5186 47.5999 56.9004 44.7868 52.9069C45.5874 51.6332 46.2243 50.2445 46.6489 48.7718C48.2147 54.4371 52.4917 58.5147 57.4986 58.5147C61.1343 58.5147 64.3807 56.3565 66.4905 53.0086H70.1351C67.3132 56.9447 62.7 59.5186 57.4986 59.5186Z" fill="#EBF0EE"/>
<path d="M44.0022 0C19.7389 0 0 19.7379 0 44C0 68.2621 19.7389 88 44.0022 88C68.2656 88 88.0044 68.2621 88.0044 44C88.0044 19.7379 68.2612 0 44.0022 0ZM44.0022 87.5578C19.9821 87.5578 0.442278 68.0145 0.442278 44C0.442278 19.9855 19.9821 0.442256 44.0022 0.442256C68.0223 0.442256 87.5622 19.9811 87.5622 44C87.5622 68.0189 68.0223 87.5578 44.0022 87.5578Z" fill="#EBF0EE"/>
<path d="M43.2458 64.3704C43.2458 64.7728 43.5732 65.1001 43.9757 65.1001C44.3782 65.1001 44.7055 64.7728 44.7055 64.3704C44.7055 63.9679 44.3782 63.6406 43.9757 63.6406C43.5732 63.6406 43.2458 63.9679 43.2458 64.3704Z" fill="#EBF0EE"/>
<path d="M44.7055 23.5773C44.7055 23.1748 44.3782 22.8475 43.9757 22.8475C43.5732 22.8475 43.2458 23.1748 43.2458 23.5773C43.2458 23.9797 43.5732 24.3026 43.9757 24.3026C44.3782 24.3026 44.7055 23.9797 44.7055 23.5773Z" fill="#EBF0EE"/>
</svg>
