<svg width="120" height="55" viewBox="0 0 120 55" fill="none" xmlns="http://www.w3.org/2000/svg">
<g clip-path="url(#clip0_4310_705)">
<path d="M63.1732 31.1914H59.6592C59.0168 30.3809 58.2965 29.5117 57.5372 28.5938C56.7585 27.6465 56.009 26.7188 55.2498 25.8301C54.5002 24.9316 53.8286 24.1211 53.2154 23.4277C52.6021 22.7246 52.1544 22.2559 51.8818 21.9727C51.8331 21.9238 51.6871 21.8164 51.5995 21.7969C51.4925 21.7676 51.5119 21.7773 51.3562 21.748V25.4395C51.3562 26.4746 51.3854 27.4805 51.4146 28.457C51.4438 29.4043 51.473 30.3906 51.5801 31.2012H48.8254C48.9324 30.4199 48.9616 29.4629 48.9908 28.4863C49.0492 27.5098 49.0784 26.4746 49.0784 25.4395V18.4766C49.0784 17.4121 49.0492 16.4062 48.9908 15.4297C48.9616 14.4824 48.9032 13.5254 48.7962 12.7148H48.6501H51.6093C51.5022 13.4668 51.4438 14.4238 51.4146 15.4004C51.3854 16.377 51.3562 17.4121 51.3562 18.4766V21.3281C51.4438 21.3281 51.5217 21.3281 51.6677 21.2695C51.7747 21.2402 51.8915 21.1621 51.9694 21.0742C52.8065 20.3516 53.7021 19.5117 54.6171 18.584C55.532 17.6367 56.4568 16.6797 57.401 15.6445C58.3159 14.6387 59.1823 13.6914 60.0194 12.7051H62.8325C62.2193 13.2617 61.5476 13.877 60.7689 14.5801C59.9902 15.3027 59.1823 16.0645 58.3451 16.8457C57.5372 17.5977 56.7585 18.3594 56.0577 19.082C55.3568 19.8047 54.7436 20.4785 54.2764 21.0352V21.0938L63.1634 31.1914H63.1732Z" fill="#160A00"/>
<path d="M93.2706 36.3281H86.8462C86.9533 37.1387 87.0117 38.0859 87.0701 39.043C87.0993 40.0195 87.1285 41.0254 87.1285 42.0898V49.0527C87.1285 50.0879 87.0993 51.123 87.0701 52.0996C87.0117 53.0762 86.9825 54.0332 86.8754 54.8145H89.6301C89.523 54.0039 89.4938 53.0273 89.4646 52.0703C89.4354 51.0937 89.4062 50.0879 89.4062 49.0527V46.4746H92.268L94.1758 49.7168L97.1058 54.8047H100.25L99.0234 53.0664C98.5172 52.3633 97.9916 51.582 97.4075 50.7422C96.8527 49.9316 96.2881 49.1211 95.7625 48.3105C95.2076 47.5293 94.7015 46.8262 94.2829 46.2109C94.9838 46.0449 95.5678 45.8789 95.9864 45.6836C96.7359 45.293 97.4075 44.7363 97.9623 43.9746C98.5172 43.1934 98.7995 42.2363 98.7995 41.0938C98.7995 39.668 98.342 38.6035 97.3686 37.6172C96.074 36.3086 93.2609 36.3086 93.2609 36.3086L93.2706 36.3281ZM92.2096 37.3633C93.183 37.4121 93.4361 37.4512 94.0785 37.6465C94.6917 37.8418 95.159 38.2031 95.5775 38.7402C96.0253 39.2676 96.2492 40.1074 96.2492 41.1426C96.2492 42.2852 96.0253 43.1836 95.5483 43.8281C95.0714 44.4434 94.4581 44.8633 93.7086 45.1172C92.9591 45.3418 92.122 45.4492 91.1973 45.4492H89.4062V37.373H92.1999L92.2096 37.3633Z" fill="#160A00"/>
<path d="M15.0681 16.6309C15.0681 16.6309 15.0389 16.582 14.9903 16.5332C14.9513 16.4648 14.9027 16.4062 14.854 16.3379L14.7567 16.2109C14.6885 16.123 14.6204 16.0352 14.5425 15.9473L14.1239 15.4883C14.1239 15.4883 14.0461 15.4004 13.9974 15.3613C13.9487 15.3125 13.9001 15.2637 13.8514 15.2246C13.793 15.166 13.7249 15.1074 13.6665 15.0488C13.4912 14.8926 13.3258 14.7559 13.1603 14.6387C13.0532 14.5508 12.9461 14.4727 12.8391 14.3945L12.586 14.2188C12.5081 14.1699 12.44 14.1211 12.3426 14.0625C12.2648 14.0137 12.1869 13.9648 12.1382 13.9453L11.8851 13.7988C11.8851 13.7988 11.8267 13.7695 11.7975 13.75C11.7586 13.7305 11.7294 13.7109 11.6807 13.6816C11.6223 13.6523 11.5639 13.623 11.5055 13.5938L11.3984 13.5449C11.3498 13.5156 11.2914 13.4961 11.2427 13.4766L11.087 13.4082L11.0286 13.3887C11.0286 13.3887 10.9507 13.3594 10.9117 13.3398C10.8436 13.3203 10.7755 13.291 10.7365 13.2813C10.6976 13.2617 10.6587 13.252 10.5711 13.2129C10.464 13.1738 10.3666 13.1348 10.2693 13.1152C10.1233 13.0664 9.96755 13.0273 9.86048 12.998L9.77287 12.959H9.74367C9.55873 12.9102 9.36405 12.8711 9.11097 12.8223C9.04283 12.8125 8.95522 12.793 8.87735 12.7832C8.77028 12.7637 8.65347 12.7441 8.5464 12.7344C8.44906 12.7246 8.36145 12.7148 8.26411 12.7148C8.22518 12.7148 8.19598 12.7148 8.17651 12.7148L7.89422 12.6953C7.76768 12.6953 7.64114 12.6855 7.5146 12.6855H0V29.0234H2.78391V13.7207H7.82609C7.82609 13.7207 7.90396 13.7402 7.96236 13.7402C8.0597 13.7402 8.15704 13.7598 8.23491 13.7695C8.50746 13.8086 8.70214 13.8477 8.86762 13.8965C8.86762 13.8965 9.14017 13.9746 9.19857 14.0039L9.29591 14.043C9.40299 14.082 9.50033 14.1211 9.5782 14.1504L9.65607 14.1895C9.65607 14.1895 9.74367 14.2285 9.79234 14.2578L9.87995 14.2969C9.87995 14.2969 9.91888 14.3164 9.93835 14.3262C9.96755 14.3457 10.0065 14.3652 10.0162 14.3652C10.0649 14.3945 10.1136 14.4238 10.1622 14.4531L10.2498 14.502C10.2498 14.502 10.2985 14.5312 10.3374 14.5508C10.3764 14.5703 10.4056 14.5898 10.4445 14.6191L10.5029 14.6582C10.5029 14.6582 10.5516 14.6973 10.61 14.7363C10.6295 14.7461 10.6489 14.7656 10.6587 14.7656L10.7073 14.8047C10.7657 14.8438 10.8144 14.8828 10.8728 14.9316L11.0578 15.0781L11.1064 15.127L11.1551 15.1758C11.2038 15.2246 11.2524 15.2637 11.3108 15.3125L11.4082 15.4004C11.4763 15.459 11.5445 15.5273 11.6321 15.625C11.7002 15.7031 11.7683 15.7715 11.8365 15.8496L12.0409 16.084C12.0409 16.084 12.0798 16.1426 12.0993 16.1719L12.1382 16.2207C12.1772 16.2695 12.2064 16.3184 12.2453 16.3672L12.4302 16.6309C12.4302 16.6309 12.4886 16.709 12.5178 16.7578C12.547 16.8066 12.5762 16.8457 12.6347 16.9434C12.6639 17.002 12.7028 17.0605 12.732 17.0996C12.7612 17.1582 12.7904 17.2168 12.8196 17.2559C12.8391 17.3047 12.8683 17.3438 12.878 17.373C12.9169 17.4512 12.9461 17.5293 12.9948 17.6074L13.1603 17.9688C13.1603 17.9688 13.1992 18.0469 13.209 18.0859L13.3063 18.3301C13.3063 18.3301 13.3355 18.418 13.3647 18.5059C13.3842 18.5547 13.4036 18.6035 13.4134 18.6523V18.7109L13.4426 18.7402C13.462 18.7988 13.4815 18.8574 13.501 18.9258C13.5204 18.9941 13.5399 19.0527 13.5691 19.1309V19.1895C13.8222 20.0684 13.9487 20.9863 13.9487 21.9238C13.9487 22.1191 13.9487 22.2949 13.9293 22.5V22.5488C13.9293 22.6074 13.9195 22.666 13.9195 22.7051V22.8223C13.9001 22.8906 13.9001 22.9492 13.8806 23.0469C13.8806 23.1543 13.8611 23.252 13.8514 23.3594C13.8514 23.3984 13.8319 23.4473 13.8319 23.4766V23.5547C13.8125 23.6035 13.8027 23.6523 13.793 23.7109L13.7735 23.8574C13.7735 23.8574 13.7735 23.9063 13.7541 23.9551L13.7346 24.0332V24.0527L13.7151 24.1406C13.6762 24.3262 13.6275 24.5117 13.5788 24.6973L13.5107 24.9609C13.4328 25.1953 13.355 25.4199 13.2674 25.6445C13.2382 25.7227 13.209 25.8105 13.17 25.8887C12.9072 26.4941 12.5957 27.0508 12.2064 27.5781C12.1674 27.627 12.1285 27.6855 12.0798 27.7344C11.9241 27.9297 11.7586 28.1348 11.5542 28.3496C11.486 28.4277 11.4179 28.4863 11.3498 28.5547C10.756 29.1113 10.1136 29.5313 9.43219 29.8047L9.35431 29.834C9.05256 29.9512 8.78001 30.0293 8.49773 30.0781C8.43932 30.0879 8.37119 30.0977 8.30305 30.1074L8.18624 30.127C7.95263 30.1563 7.73848 30.1758 7.53407 30.1758H0V31.2012H7.53407C7.67034 31.2012 7.80662 31.2012 7.93316 31.1914C8.12784 31.1914 8.31278 31.1719 8.49773 31.1523C8.64374 31.1426 8.78975 31.123 8.92602 31.0938C9.24724 31.0449 9.549 30.9766 9.83128 30.9082C9.96755 30.8789 10.0941 30.8301 10.2596 30.791C10.4835 30.7227 10.7073 30.6445 10.9507 30.5469C11.0772 30.498 11.2038 30.4395 11.3011 30.3906L11.3692 30.3613C11.3692 30.3613 11.4471 30.3223 11.486 30.3027C11.525 30.2832 11.5542 30.2637 11.6029 30.2441L11.6807 30.2051C11.7391 30.1758 11.7878 30.1563 11.8365 30.127C12.1188 29.9805 12.4205 29.7949 12.7612 29.5508C12.8975 29.4531 13.0337 29.3555 13.209 29.2188C13.2284 29.1992 13.2479 29.1895 13.2576 29.1797C13.3647 29.0918 13.4718 29.0137 13.5496 28.9355L13.6372 28.8672C13.7638 28.75 13.8903 28.6328 14.0071 28.5156C14.1239 28.3984 14.2408 28.2715 14.377 28.125C14.4841 28.0078 14.5912 27.8809 14.6788 27.7734C14.708 27.7441 14.7372 27.7051 14.7956 27.6367C14.8832 27.5293 14.9611 27.4219 15.0097 27.334C15.0292 27.3145 15.0584 27.2852 15.0876 27.2363L15.1363 27.168C15.1752 27.1094 15.2141 27.0605 15.2628 26.9824C15.3018 26.9238 15.3407 26.8652 15.3602 26.8262C15.4283 26.7188 15.4867 26.6211 15.5451 26.5039L15.584 26.4355C15.623 26.377 15.6522 26.3086 15.6814 26.25C15.769 26.0742 15.8663 25.8984 15.9345 25.7227C15.9734 25.6445 16.0123 25.5566 16.0318 25.4883L16.061 25.4297C16.1194 25.293 16.1681 25.1563 16.207 25.0195C16.2362 24.9316 16.2654 24.8438 16.2946 24.7461L16.3238 24.6387L16.3628 24.5215C16.392 24.4336 16.4114 24.3457 16.4406 24.2188C16.4504 24.1504 16.4698 24.082 16.4893 24.0039C16.5185 23.8965 16.538 23.7891 16.5574 23.6816L16.5769 23.5938C16.5964 23.5156 16.6061 23.4375 16.6158 23.3691C16.6353 23.2715 16.645 23.1641 16.6548 23.0371C16.6645 22.9492 16.684 22.8613 16.684 22.7832C16.6937 22.6953 16.7034 22.6074 16.7132 22.5195V22.4609V22.4023C16.7132 22.2461 16.7229 22.1094 16.7229 21.9531C16.7229 20.3516 16.3043 18.7793 15.5159 17.4023C15.3796 17.1582 15.2239 16.8945 15.0389 16.6504L15.0681 16.6309Z" fill="#160A00"/>
<path d="M9.46142 37.0605C11.4666 37.0605 13.3453 38.2227 14.6204 40.2344L14.6885 40.3418H17.414L17.161 39.9902C15.3797 37.5 12.5081 36.0156 9.47115 36.0156C4.25376 36.0156 0.00976562 40.2734 0.00976562 45.5078C0.00976562 50.7422 4.25376 55 9.47115 55C12.5081 55 15.3797 53.5156 17.161 51.0254L17.414 50.6738H14.6885L14.6204 50.7812C13.355 52.8027 11.4763 53.9551 9.46142 53.9551C5.82093 53.9551 2.85208 50.166 2.85208 45.5078C2.85208 40.8496 5.82093 37.0605 9.46142 37.0605Z" fill="#160A00"/>
<path d="M24.3252 28.457C24.3544 29.4043 24.3836 30.3906 24.4907 31.2012H21.59C21.6971 30.4199 21.7263 29.4629 21.7555 28.4863C21.8139 27.5098 21.8139 26.4746 21.8139 25.4395V18.4766C21.8139 17.4121 21.8139 16.4062 21.7555 15.4297C21.7263 14.4824 21.6679 13.5254 21.5608 12.7148H24.5102C24.4031 13.4668 24.3447 14.4238 24.3155 15.4004C24.2571 16.377 24.2571 17.4121 24.2571 18.4766V25.4395C24.2571 26.4746 24.2571 27.4805 24.3155 28.457H24.3252Z" fill="#160A00"/>
<path d="M24.1109 48.0566H30.9441L31.0025 48.2227C31.7034 50.0684 32.229 51.5527 32.56 52.666C32.8909 53.7598 33.1148 54.4531 33.2024 54.7949H36.327C36.0447 54.209 35.6846 53.3984 35.2368 52.334C34.789 51.2695 34.2926 50.0684 33.728 48.7305C33.1732 47.3926 32.5892 45.9863 32.0051 44.4824C31.4211 42.998 30.8079 41.543 30.2238 40.0684C29.6982 38.7305 29.1628 37.5 28.6956 36.3281H27.6249C26.3205 39.375 24.9772 42.4219 23.6437 45.4102C22.2517 48.5156 20.8598 51.6504 19.4094 54.8047H21.2394L24.1012 48.0664L24.1109 48.0566ZM24.5295 47.0215L24.5976 46.8555L27.5762 39.8633H27.6346C28.2186 41.2012 28.754 42.4609 29.2212 43.6426C29.6982 44.8145 30.1168 45.8789 30.5061 46.8555L30.5645 47.0215H24.5295Z" fill="#160A00"/>
<path d="M70.9117 24.4531H77.7449L77.8033 24.6191C78.5042 26.4648 79.0298 27.9492 79.3608 29.0625C79.6917 30.1562 79.9156 30.8496 80.0032 31.1914H83.1278C82.8455 30.6055 82.4854 29.7949 82.0376 28.7305C81.5898 27.666 81.0934 26.4648 80.5288 25.127C79.974 23.7891 79.39 22.3828 78.8059 20.8789C78.2219 19.3945 77.6086 17.9395 77.0246 16.4648C76.499 15.127 75.9636 13.8965 75.4964 12.7246H74.4257C73.1213 15.7715 71.778 18.8184 70.4445 21.8066C69.0525 24.9121 67.6606 28.0469 66.2102 31.2012H68.0402L70.902 24.4629L70.9117 24.4531ZM71.3303 23.418L71.3984 23.252L74.377 16.2598H74.4354C75.0194 17.5977 75.5548 18.8574 76.022 20.0391C76.499 21.2109 76.9175 22.2754 77.3069 23.252L77.3653 23.418H71.3303Z" fill="#160A00"/>
<path d="M33.1051 24.4531H39.9383L39.9967 24.6191C40.6975 26.4648 41.2232 27.9492 41.5541 29.0625C41.8851 30.1562 42.1089 30.8496 42.1966 31.1914H45.3212C45.0389 30.6055 44.6787 29.7949 44.2309 28.7305C43.7832 27.666 43.2868 26.4648 42.7222 25.127C42.1674 23.7891 41.5833 22.3828 40.9993 20.8789C40.4152 19.3945 39.802 17.9395 39.218 16.4648C38.6923 15.127 38.157 13.8965 37.6897 12.7246H36.619C35.3147 15.7715 33.9714 18.8184 32.6378 21.8066C31.2459 24.9121 29.8539 28.0469 28.4036 31.2012H30.2335L33.0953 24.4629L33.1051 24.4531ZM33.5236 23.418L33.5918 23.252L36.5703 16.2598H36.6287C37.2128 17.5977 37.7481 18.8574 38.2154 20.0391C38.6923 21.2109 39.1109 22.2754 39.5003 23.252L39.5587 23.418H33.5236Z" fill="#160A00"/>
<path d="M70.5321 48.0664H77.3653L77.4237 48.2324C78.1245 50.0781 78.6502 51.5625 78.9811 52.6758C79.3121 53.7695 79.536 54.4629 79.6236 54.8047H82.7482C82.4659 54.2188 82.1057 53.4082 81.658 52.3438C81.2102 51.2793 80.7138 50.0781 80.1492 48.7402C79.5944 47.4023 79.0103 45.9961 78.4263 44.4922C77.8422 43.0078 77.229 41.5527 76.645 40.0781C76.1193 38.7402 75.584 37.5098 75.1167 36.3379H74.046C72.7417 39.3848 71.3984 42.4316 70.0648 45.4199C68.6729 48.5254 67.2809 51.6602 65.8306 54.8145H67.6606L70.5223 48.0762L70.5321 48.0664ZM70.9506 47.0313L71.0188 46.8652L73.9973 39.873H74.0557C74.6398 41.2109 75.1751 42.4707 75.6424 43.6523C76.1193 44.8242 76.5379 45.8887 76.9273 46.8652L76.9857 47.0313H70.9506Z" fill="#160A00"/>
<path d="M107.784 48.0664H114.617L114.676 48.2324C115.376 50.0781 115.902 51.5625 116.233 52.6758C116.564 53.7695 116.788 54.4629 116.876 54.8047H120C119.718 54.2188 119.358 53.4082 118.91 52.3438C118.462 51.2793 117.966 50.0781 117.401 48.7402C116.846 47.4023 116.262 45.9961 115.678 44.4922C115.094 43.0078 114.481 41.5527 113.897 40.0781C113.371 38.7402 112.836 37.5098 112.369 36.3379H111.298C109.994 39.3848 108.65 42.4316 107.317 45.4199C105.925 48.5254 104.533 51.6602 103.083 54.8145H104.912L107.774 48.0762L107.784 48.0664ZM108.203 47.0313L108.271 46.8652L111.249 39.873H111.308C111.892 41.2109 112.427 42.4707 112.894 43.6523C113.371 44.8242 113.79 45.8887 114.179 46.8652L114.238 47.0313H108.203Z" fill="#160A00"/>
<path d="M57.2549 41.2793H57.362C57.6443 43.5156 57.9168 45.752 58.1991 47.959C58.4522 50.166 58.7053 52.4609 58.9194 54.8047H61.7326C61.2264 51.7578 60.7592 48.7109 60.3114 45.6641C59.922 42.7246 59.6398 39.6289 59.2796 36.3281H58.2089L51.2394 50.7812H51.1128L45.0973 36.3281H44.0265C43.8026 37.6465 43.5496 39.043 43.277 40.5176C42.9655 42.168 42.6638 43.8184 42.3328 45.498C42.0311 47.207 41.6904 48.8281 41.3886 50.4199C41.0577 52.0117 40.7462 53.4668 40.4736 54.8145H42.2549L44.523 41.2012H44.6495L50.1492 54.1016H51.2394L57.2549 41.2891V41.2793Z" fill="#160A00"/>
<path d="M81.6873 8.33008L79.3123 3.89648L81.9794 2.46094L82.2811 3.03711L80.3343 4.08203L82.3979 7.93945L81.6776 8.33008H81.6873ZM80.9573 6.40625L80.6555 5.83008L82.8359 4.6582L83.1474 5.23438L80.967 6.40625H80.9573Z" fill="#160A00"/>
<path d="M87.9462 5.83985C87.4692 5.95704 87.0215 5.95704 86.5932 5.83985C86.1746 5.7129 85.8047 5.48829 85.503 5.16602C85.2012 4.84376 84.9871 4.4336 84.8703 3.95508C84.7729 3.57423 84.7535 3.20313 84.8216 2.85157C84.88 2.50977 84.9968 2.18751 85.1915 1.9043C85.3764 1.6211 85.61 1.38672 85.8923 1.18165C86.1746 0.976569 86.4861 0.83985 86.8462 0.751959C87.3232 0.634772 87.771 0.634772 88.1895 0.761725C88.6081 0.888678 88.9682 1.11329 89.2797 1.43555C89.5815 1.75782 89.7956 2.16797 89.9124 2.64649C90.0098 3.02735 90.0292 3.39844 89.9611 3.75001C89.9027 4.10157 89.7859 4.41407 89.601 4.69727C89.416 4.98047 89.1921 5.22462 88.9098 5.41993C88.6276 5.61524 88.3161 5.76172 87.9657 5.84962L87.9462 5.83985ZM87.9462 5.21485C88.2674 5.13672 88.5302 4.99024 88.7249 4.7754C88.9196 4.56055 89.0559 4.30665 89.1143 3.99415C89.1727 3.68165 89.1629 3.33985 89.0753 2.96876C88.978 2.5586 88.8028 2.2168 88.5789 1.94337C88.3453 1.67969 88.0825 1.49415 87.7807 1.39649C87.479 1.29883 87.1577 1.28907 86.8365 1.36719C86.5348 1.44532 86.2817 1.58204 86.0773 1.79688C85.8729 2.00196 85.7463 2.26563 85.6782 2.57813C85.61 2.89063 85.6295 3.23243 85.7268 3.61329C85.8242 4.03321 85.9897 4.36524 86.2233 4.63868C86.4569 4.90235 86.7197 5.0879 87.0215 5.18555C87.3232 5.28321 87.6347 5.30274 87.9559 5.22462L87.9462 5.21485Z" fill="#160A00"/>
<path d="M92.1221 5.01953L92.3849 0L93.0273 0.0292969L92.8716 5.05859L92.1221 5.01953ZM96.1422 5.23438L95.821 5.21484L92.6282 0.556641L92.6672 0.0195312L93.2025 0.0488281L96.1811 4.36523L96.1617 5.23438H96.1422ZM96.736 0.234375L96.4731 5.25391L95.8404 5.22461L95.9864 0.195312L96.736 0.234375Z" fill="#160A00"/>
<path d="M98.4102 5.6543L100.075 0.908203L101.603 1.44531C101.983 1.58203 102.323 1.75781 102.615 1.97266C102.907 2.1875 103.131 2.43164 103.306 2.71484C103.472 2.99805 103.579 3.30078 103.608 3.62305C103.637 3.94531 103.589 4.28711 103.472 4.64844C103.365 4.94141 103.219 5.21484 103.014 5.47852C102.81 5.74219 102.557 5.94727 102.255 6.11328C101.953 6.2793 101.603 6.36719 101.204 6.39648C100.805 6.41602 100.357 6.33789 99.8605 6.17188L98.4199 5.66406L98.4102 5.6543ZM99.3738 5.37109L100.123 5.63477C100.474 5.76172 100.795 5.81055 101.068 5.80078C101.34 5.79102 101.583 5.72266 101.778 5.5957C101.983 5.47852 102.148 5.32227 102.284 5.12695C102.421 4.94141 102.528 4.72656 102.605 4.48242C102.722 4.16016 102.761 3.82812 102.722 3.50586C102.683 3.18359 102.557 2.88086 102.323 2.61719C102.099 2.34375 101.749 2.12891 101.272 1.96289L100.629 1.73828L99.3641 5.36133L99.3738 5.37109Z" fill="#160A00"/>
<path d="M106.703 9.79492L107.94 5.06836L108.202 5.25391L104.26 8.10547L103.579 7.63672L108.095 4.64844L108.67 5.04883L107.433 10.293L106.703 9.78516V9.79492ZM105.185 6.88477L105.74 6.49414L107.55 7.74414L107.472 8.4668L105.185 6.89453V6.88477Z" fill="#160A00"/>
<path d="M108.913 11.875L112.602 8.47656L113.167 9.10156L109.478 12.5L108.913 11.8848V11.875ZM110.967 7.62695L111.434 7.19727L114.345 10.3809L113.877 10.8105L110.967 7.62695Z" fill="#160A00"/>
<path d="M111.454 15.1074L115.717 12.4707L116.165 13.1934L111.892 15.8301L111.454 15.1074Z" fill="#160A00"/>
<path d="M113.605 19.7461C113.439 19.2773 113.401 18.8281 113.488 18.3984C113.576 17.9688 113.761 17.5781 114.053 17.2461C114.345 16.9141 114.724 16.6602 115.192 16.5039C115.561 16.377 115.931 16.3184 116.282 16.3477C116.632 16.377 116.953 16.4648 117.255 16.6211C117.547 16.7773 117.81 16.9922 118.034 17.2461C118.258 17.5098 118.433 17.8125 118.55 18.1543C118.706 18.6133 118.744 19.0625 118.667 19.4922C118.579 19.9219 118.394 20.3027 118.102 20.6445C117.81 20.9766 117.43 21.2305 116.953 21.3867C116.584 21.5137 116.214 21.5723 115.863 21.543C115.513 21.5137 115.192 21.4258 114.89 21.2695C114.588 21.1133 114.335 20.9082 114.111 20.6445C113.887 20.3809 113.722 20.0781 113.595 19.7363L113.605 19.7461ZM114.218 19.6875C114.325 20 114.491 20.2441 114.724 20.4297C114.948 20.6055 115.221 20.7129 115.542 20.752C115.853 20.7813 116.194 20.7422 116.554 20.6152C116.953 20.4785 117.284 20.2734 117.518 20.0195C117.761 19.7656 117.917 19.4824 117.985 19.1699C118.053 18.8574 118.034 18.5449 117.927 18.2227C117.82 17.9199 117.654 17.6855 117.43 17.5098C117.206 17.334 116.934 17.2266 116.613 17.1875C116.301 17.1582 115.961 17.1973 115.591 17.3242C115.192 17.4609 114.861 17.666 114.617 17.9199C114.374 18.1738 114.218 18.457 114.15 18.7695C114.072 19.082 114.092 19.3945 114.199 19.707L114.218 19.6875Z" fill="#160A00"/>
<path d="M114.802 23.8281L119.815 23.6133L119.844 24.2578L114.841 24.5801L114.812 23.8281H114.802ZM114.977 27.8711V27.5391L119.29 23.9062L119.825 23.8867L119.844 24.4238L115.844 27.8125L114.977 27.8711ZM120 27.9883L114.987 28.2031L114.958 27.5684L119.961 27.2363L119.99 27.9883H120Z" fill="#160A00"/>
<path d="M109.75 24.5605C107.696 24.1016 99.6269 22.7051 93.6405 27.2363C96.0058 25.3711 101.525 21.8262 109.137 22.0508C108.962 21.4941 108.767 20.9473 108.533 20.4199C108.533 20.4004 108.514 20.3809 108.504 20.3613C108.29 19.873 108.047 19.3848 107.784 18.916C107.764 18.877 107.735 18.8281 107.716 18.7793C106.275 18.9453 97.8748 20.1465 93.4848 26.4355C96.9014 19.5605 93.9228 11.582 93.3874 10.2344C93.3582 10.2344 93.3388 10.2344 93.3096 10.2344C92.7352 10.2344 92.1707 10.2441 91.6061 10.293C91.0123 10.3418 90.4283 10.4297 89.8443 10.5469C93.6794 17.1582 93.2219 23.7109 92.7158 26.6895C93.8157 19.248 88.7541 12.8125 87.3621 11.2109C86.2719 11.6016 85.2206 12.1094 84.2278 12.7148C87.4887 15.5273 89.4452 18.7793 90.6132 21.582C90.6327 21.6113 90.6522 21.6504 90.6619 21.6895C90.8177 22.0605 90.9637 22.4316 91.0805 22.7734C91.1097 22.832 91.1194 22.9102 91.1486 22.959C91.2946 23.3691 91.4212 23.7695 91.5282 24.1504L91.5477 24.209C92.1609 26.2598 92.3167 27.7832 92.3459 28.2227C92.3459 28.3008 92.3556 28.3496 92.3556 28.3496C92.3556 28.3496 92.3556 28.3496 92.3654 28.3496C92.3751 28.3496 92.3848 28.3398 92.3848 28.3398C92.4335 28.3203 92.4919 28.2813 92.6087 28.252C93.0467 28.0664 94.0104 27.6758 95.3829 27.334C95.6944 27.2363 96.0448 27.1484 96.3757 27.0898H96.4244C96.8332 26.9922 97.281 26.9043 97.7385 26.8359C97.7774 26.8262 97.8164 26.8262 97.8553 26.8164C98.0013 26.7969 98.1473 26.7676 98.3031 26.748C98.5561 26.709 98.8287 26.6797 99.1012 26.6602C101.992 26.3574 105.594 26.5039 109.439 27.8711C109.604 27.9199 109.76 27.9883 109.925 28.0469C109.984 26.875 109.925 25.7129 109.75 24.5605Z" fill="#F06419"/>
<path d="M102.547 18.1641L104.075 14.3555C103.336 13.7207 102.547 13.125 101.681 12.6074C100.815 12.0898 99.919 11.6797 99.004 11.3281L96.405 14.502C96.7555 16.3574 96.9696 18.584 96.7652 20.9082C98.7022 19.6094 100.766 18.7402 102.557 18.1641H102.547ZM99.0819 15.293C99.3252 14.8828 99.8508 14.7559 100.25 14.9902C100.649 15.2246 100.795 15.7617 100.552 16.1719C100.308 16.582 99.7827 16.709 99.3739 16.4648C98.9651 16.2207 98.8385 15.6934 99.0721 15.293H99.0819Z" fill="#F06419"/>
</g>
<defs>
<clipPath id="clip0_4310_705">
<rect width="120" height="55" fill="white"/>
</clipPath>
</defs>
</svg>
