<svg width="186" height="60" viewBox="0 0 186 60" fill="none" xmlns="http://www.w3.org/2000/svg">
<g clip-path="url(#clip0_4310_168)">
<path d="M69.986 13.7744L69.3708 13.2932L67.9387 15.0977L66.3453 13.8446L67.9992 11.7694L67.384 11.2882L65.125 14.1353L69.865 17.8546L70.4701 17.0827L68.5539 15.5789L69.986 13.7744Z" fill="#FAF2D7"/>
<path d="M75.7444 7.87969C75.3713 7.41854 74.9275 7.08771 74.4334 6.89723C73.9392 6.70676 73.4249 6.64661 72.9004 6.72681C72.376 6.80701 71.8919 7.02756 71.4381 7.39849C71.0952 7.67919 70.8229 7.98997 70.6212 8.35087C70.4195 8.71177 70.2884 9.09272 70.2279 9.4837C70.1674 9.8847 70.1977 10.2857 70.3086 10.6867C70.4195 11.0877 70.6313 11.4787 70.9339 11.8496C71.307 12.3108 71.7407 12.6316 72.2449 12.8321C72.7391 13.0326 73.2534 13.0827 73.7778 13.0025C74.3023 12.9223 74.7964 12.6917 75.2503 12.3208C75.5932 12.0501 75.8554 11.7393 76.0671 11.3784C76.2789 11.0175 76.3999 10.6466 76.4504 10.2456C76.5008 9.8446 76.4705 9.4436 76.3596 9.0426C76.2487 8.6416 76.0369 8.25062 75.7343 7.87969H75.7444ZM75.5629 10.787C75.452 11.1178 75.2402 11.4085 74.9376 11.6591C74.625 11.9098 74.2821 12.0501 73.8989 12.1002C73.5156 12.1403 73.1324 12.0802 72.7492 11.9098C72.3659 11.7393 72.013 11.4586 71.6902 11.0576C71.3978 10.6967 71.2062 10.3358 71.1154 9.9649C71.0246 9.59398 71.0347 9.25312 71.1456 8.9223C71.2566 8.59147 71.4583 8.31077 71.7507 8.07017C72.0735 7.80952 72.4164 7.65914 72.7996 7.61904C73.1828 7.57894 73.5661 7.63909 73.9493 7.79949C74.3325 7.95989 74.6956 8.25062 75.0183 8.65162C75.3108 9.0025 75.5024 9.3634 75.5931 9.73433C75.6839 10.1053 75.6738 10.4561 75.5629 10.7769V10.787Z" fill="#FAF2D7"/>
<path d="M81.3417 1.86465L80.5248 2.23558L82.4712 6.28571L77.4388 3.60902L77.1765 3.72932L76.5513 4.01002L79.0221 9.4837L79.8491 9.11278L77.8018 4.8421L83.0965 7.66917L83.4494 7.49874L83.8226 7.33834L81.3417 1.86465Z" fill="#FAF2D7"/>
<path d="M90.045 1.6341C89.8231 1.3133 89.5407 1.05265 89.1978 0.86217C88.8549 0.671694 88.4717 0.551393 88.038 0.491242C87.6044 0.431092 87.1506 0.451142 86.6665 0.531343L84.7402 0.86217L85.7588 6.77696L87.5741 6.46618C88.1994 6.3559 88.7137 6.17545 89.1272 5.92483C89.5306 5.6742 89.8433 5.37345 90.0651 5.02257C90.287 4.67169 90.4282 4.31079 90.4887 3.91981C90.5492 3.52884 90.5492 3.14788 90.4887 2.78698C90.408 2.34588 90.2668 1.9549 90.0349 1.6341H90.045ZM89.2785 4.75189C89.1373 4.9925 88.9255 5.20302 88.6431 5.37345C88.3608 5.54387 87.9977 5.6742 87.554 5.74438L86.6161 5.90478L85.8395 1.3935L86.6463 1.25315C87.2413 1.1529 87.7254 1.17295 88.1288 1.32332C88.5322 1.4737 88.8348 1.70428 89.0667 2.02508C89.2886 2.34588 89.4399 2.70678 89.5105 3.10778C89.5609 3.39851 89.571 3.68924 89.5407 3.95991C89.5105 4.24062 89.4197 4.49124 89.2886 4.74187L89.2785 4.75189Z" fill="#FAF2D7"/>
<path d="M94.795 0L91.9712 5.83459L92.9595 5.89474L93.7361 4.11028L95.985 4.25063L96.5296 6.12531L97.5886 6.19549L95.6321 0.0501253L94.7849 0H94.795ZM94.0588 3.3584L95.0471 1.06266L95.7531 3.45865L94.0588 3.34837V3.3584Z" fill="#FAF2D7"/>
<path d="M104.285 1.74437L99.2627 0.431091L99.061 1.17295L101.078 1.69425L99.7266 6.75691L100.705 7.01756L102.056 1.9549L104.083 2.48623L104.285 1.74437Z" fill="#FAF2D7"/>
<path d="M106.565 2.72377L104.083 8.19891L105.012 8.61478L107.493 3.13963L106.565 2.72377Z" fill="#FAF2D7"/>
<path d="M113.513 10.3559C113.856 9.86468 114.058 9.36342 114.108 8.8321C114.159 8.30077 114.078 7.79951 113.856 7.32834C113.634 6.84713 113.291 6.44613 112.807 6.10528C112.444 5.85465 112.061 5.68423 111.658 5.58398C111.254 5.48372 110.851 5.46367 110.447 5.52382C110.044 5.57395 109.671 5.7143 109.308 5.93485C108.945 6.1554 108.632 6.45616 108.35 6.84713C108.007 7.32834 107.815 7.83961 107.755 8.37094C107.704 8.90227 107.785 9.40352 108.007 9.88473C108.229 10.3659 108.582 10.777 109.066 11.1078C109.419 11.3584 109.802 11.5288 110.195 11.6291C110.599 11.7293 110.992 11.7494 111.395 11.6892C111.799 11.6291 112.182 11.4887 112.535 11.2782C112.898 11.0577 113.211 10.7569 113.493 10.3659L113.513 10.3559ZM111.668 10.7168C111.335 10.9073 110.992 10.9875 110.649 10.9775C110.296 10.9674 109.963 10.8471 109.641 10.6166C109.318 10.386 109.076 10.0953 108.935 9.74438C108.783 9.3935 108.743 9.01255 108.804 8.59149C108.864 8.18047 109.036 7.75941 109.338 7.33836C109.61 6.95741 109.903 6.67671 110.236 6.48623C110.568 6.29575 110.901 6.21555 111.254 6.22558C111.607 6.24563 111.93 6.3559 112.243 6.57646C112.575 6.80703 112.817 7.10778 112.969 7.45866C113.12 7.80954 113.16 8.20052 113.1 8.61154C113.039 9.0326 112.868 9.44362 112.575 9.86468C112.313 10.2356 112.011 10.5163 111.678 10.7068L111.668 10.7168Z" fill="#FAF2D7"/>
<path d="M120.29 13.3935L116.902 16.3609L118.112 10.817L117.698 10.3258L117.487 10.0752L112.868 13.9348L113.443 14.6266L117.023 11.4988L115.742 17.3333L115.762 17.3534V17.3634L116.256 17.9348L120.865 14.0752L120.29 13.3935Z" fill="#FAF2D7"/>
<path d="M55.9777 59.8396H52.9522C52.3975 59.1479 51.7722 58.406 51.1268 57.6241C50.4511 56.812 49.8057 56.02 49.1602 55.2581C48.5148 54.4962 47.9399 53.8045 47.4054 53.203C46.881 52.6015 46.4877 52.2005 46.2557 51.9599C46.2154 51.9198 46.0944 51.8296 46.0137 51.8095C45.9128 51.7895 45.933 51.7895 45.8019 51.7694V54.9173C45.8019 55.7995 45.8221 56.6617 45.8523 57.4937C45.8725 58.3058 45.9027 59.1378 45.9935 59.8296H43.6134C43.7143 59.1579 43.7345 58.3459 43.7546 57.5138C43.8051 56.6817 43.8252 55.7995 43.8252 54.9073V48.9624C43.8252 48.0501 43.8051 47.198 43.7546 46.3559C43.7345 45.5439 43.684 44.7318 43.5832 44.0401H43.4622H46.0036C45.9027 44.6817 45.8624 45.4937 45.8321 46.3358C45.812 47.1679 45.7817 48.0501 45.7817 48.9624V51.3985C45.8523 51.3985 45.9229 51.3985 46.0439 51.3484C46.1448 51.3283 46.2355 51.2481 46.3061 51.1779C47.0222 50.5564 47.7987 49.8446 48.5854 49.0526C49.3821 48.2406 50.1687 47.4286 50.9856 46.5464C51.7823 45.6842 52.5185 44.8722 53.2446 44.0401H55.6751C55.1507 44.5213 54.5658 45.0426 53.9002 45.6441C53.2245 46.2657 52.5286 46.9073 51.8126 47.5789C51.1167 48.2206 50.441 48.8722 49.846 49.4937C49.251 50.1153 48.7165 50.6867 48.3131 51.1679V51.218L55.9777 59.8396Z" fill="#FAF2D7"/>
<path d="M162.466 44.0602H156.929C157.03 44.7519 157.07 45.5639 157.121 46.3759C157.141 47.208 157.171 48.0702 157.171 48.9825V54.9273C157.171 55.8095 157.151 56.6917 157.121 57.5338C157.07 58.3659 157.05 59.1779 156.949 59.8496H159.329C159.229 59.1579 159.208 58.3258 159.188 57.5138C159.168 56.6817 159.138 55.8195 159.138 54.9373V52.7419H161.599L163.242 55.5088L165.774 59.8496H168.487L167.428 58.3659C166.994 57.7644 166.54 57.1028 166.036 56.381C165.552 55.6892 165.078 54.9975 164.614 54.3058C164.13 53.6341 163.696 53.0426 163.343 52.5113C163.948 52.3709 164.453 52.2206 164.806 52.0601C165.451 51.7293 166.026 51.2481 166.51 50.6065C166.994 49.9348 167.226 49.1228 167.226 48.1504C167.226 46.9373 166.833 46.0251 165.996 45.183C164.876 44.0601 162.456 44.0602 162.456 44.0602H162.466ZM161.548 44.9424C162.385 44.9825 162.607 45.0125 163.162 45.183C163.686 45.3534 164.09 45.6642 164.453 46.1153C164.836 46.5664 165.027 47.2882 165.027 48.1704C165.027 49.1529 164.836 49.9148 164.422 50.4662C164.019 50.9875 163.484 51.3484 162.839 51.5689C162.194 51.7594 161.467 51.8596 160.681 51.8596H159.138V44.9624H161.548V44.9424Z" fill="#FAF2D7"/>
<path d="M13.4895 47.3985C13.4895 47.3985 13.4593 47.3584 13.4189 47.3083C13.3786 47.2582 13.3383 47.198 13.2979 47.1479L13.2172 47.0376C13.1668 46.9574 13.1063 46.8872 13.0357 46.8171L12.6726 46.4261C12.6726 46.4261 12.602 46.3559 12.5617 46.3158C12.5214 46.2757 12.481 46.2356 12.4407 46.1955C12.3903 46.1454 12.3298 46.0953 12.2793 46.0451C12.1281 45.9148 11.9869 45.7945 11.8457 45.6943C11.7549 45.6241 11.6641 45.5539 11.5734 45.4938L11.3515 45.3434C11.291 45.3033 11.2305 45.2632 11.1397 45.213C11.0691 45.1729 11.0086 45.1228 10.9582 45.1128L10.7363 44.9925C10.7363 44.9925 10.6859 44.9624 10.6556 44.9524C10.6254 44.9323 10.5951 44.9223 10.5548 44.9023C10.5044 44.8722 10.4539 44.8521 10.4035 44.8321L10.3127 44.782C10.3127 44.782 10.222 44.7419 10.1816 44.7218L10.0505 44.6617L10.0001 44.6416C10.0001 44.6416 9.9396 44.6115 9.89926 44.6015C9.83875 44.5815 9.78832 44.5614 9.74798 44.5514C9.71773 44.5313 9.67739 44.5213 9.60679 44.5013C9.51603 44.4712 9.42526 44.4311 9.34458 44.4211C9.22356 44.381 9.09246 44.3409 8.9916 44.3208L8.91092 44.2907H8.89075C8.72939 44.2506 8.55795 44.2105 8.34616 44.1805C8.28565 44.1704 8.21506 44.1604 8.14446 44.1504C8.0537 44.1404 7.95285 44.1203 7.86208 44.1103C7.7814 44.1103 7.7108 44.1003 7.62004 44.0902C7.58978 44.0902 7.55953 44.0902 7.53936 44.0902L7.29732 44.0702C7.18638 44.0702 7.08553 44.0702 6.9746 44.0702H0.5V58.0151H2.90024V44.9424H7.24689C7.24689 44.9424 7.31749 44.9524 7.35783 44.9624C7.43851 44.9624 7.51919 44.9724 7.59987 44.9825C7.83183 45.0125 8.00327 45.0526 8.14446 45.0927C8.14446 45.0927 8.37642 45.1629 8.42684 45.183L8.51761 45.213C8.60837 45.2431 8.69914 45.2732 8.75965 45.3033L8.83024 45.3334C8.83024 45.3334 8.91092 45.3734 8.95127 45.3935L9.02186 45.4336C9.02186 45.4336 9.05212 45.4537 9.07229 45.4537C9.10254 45.4637 9.1328 45.4837 9.14288 45.4837C9.18322 45.5038 9.22356 45.5339 9.2639 45.5639L9.34458 45.604C9.34458 45.604 9.38492 45.6241 9.41518 45.6441C9.44543 45.6642 9.47569 45.6842 9.50594 45.7043L9.55637 45.7344C9.55637 45.7344 9.60679 45.7644 9.64713 45.7945C9.6673 45.8045 9.67739 45.8146 9.68747 45.8246L9.72781 45.8547C9.72781 45.8547 9.81858 45.9248 9.869 45.9549L10.0304 46.0752L10.0707 46.1153L10.111 46.1554C10.111 46.1554 10.2018 46.2356 10.2422 46.2757L10.3228 46.3559C10.3833 46.406 10.4338 46.4662 10.5245 46.5464C10.585 46.6065 10.6456 46.6767 10.696 46.7369L10.8674 46.9374C10.8674 46.9374 10.8977 46.9875 10.9178 47.0075L10.9481 47.0476C10.9481 47.0476 11.0086 47.1278 11.049 47.178L11.2002 47.4085C11.2002 47.4085 11.2507 47.4787 11.2809 47.5188C11.3112 47.5589 11.3313 47.599 11.3818 47.6792C11.412 47.7293 11.4423 47.7795 11.4624 47.8095C11.4927 47.8597 11.5129 47.9098 11.5431 47.9399C11.5633 47.98 11.5835 48.0201 11.5935 48.0401C11.6238 48.1103 11.6541 48.1704 11.6944 48.2406L11.8356 48.5514C11.8356 48.5514 11.8658 48.6115 11.886 48.6516L11.9768 48.8622C11.9768 48.8622 12.007 48.9323 12.0272 49.0125C12.0474 49.0526 12.0575 49.0927 12.0675 49.1328V49.183L12.0978 49.213C12.0978 49.213 12.1381 49.3133 12.1482 49.3734C12.1684 49.4336 12.1785 49.4837 12.2087 49.5539V49.604C12.4306 50.3559 12.5315 51.1379 12.5315 51.9399C12.5315 52.1003 12.5315 52.2607 12.5113 52.4311V52.4712C12.5113 52.4712 12.5012 52.5714 12.5113 52.6015V52.7018C12.5012 52.7619 12.4911 52.812 12.481 52.8922C12.481 52.9825 12.4709 53.0727 12.4508 53.1529C12.4508 53.193 12.4407 53.2231 12.4407 53.2531V53.3133C12.4407 53.3133 12.4104 53.4035 12.4104 53.4436L12.3903 53.5639C12.3903 53.5639 12.3903 53.604 12.3701 53.6441V53.7143V53.7344L12.3499 53.8045C12.3197 53.9649 12.2793 54.1153 12.2289 54.2757L12.1684 54.4963C12.1079 54.6968 12.0373 54.8872 11.9566 55.0777C11.9364 55.1479 11.9062 55.2181 11.8759 55.2882C11.6541 55.8095 11.3818 56.2807 11.049 56.7318C11.0187 56.782 10.9784 56.8221 10.9481 56.8622C10.817 57.0326 10.6657 57.203 10.4943 57.3835C10.4338 57.4436 10.3833 57.5038 10.3127 57.5639C9.79841 58.0451 9.24373 58.396 8.6588 58.6266L8.5882 58.6567C8.33608 58.7569 8.09404 58.8171 7.852 58.8672C7.80157 58.8772 7.74106 58.8872 7.68055 58.8973L7.5797 58.9173C7.378 58.9474 7.19647 58.9574 7.01494 58.9574H0.5V59.8296H6.99477C7.1057 59.8296 7.22672 59.8296 7.33766 59.8196C7.49902 59.8196 7.66038 59.7995 7.82174 59.7795C7.94276 59.7694 8.07387 59.7494 8.1848 59.7293C8.4571 59.6892 8.71931 59.6291 8.96135 59.5689C9.08237 59.5389 9.19331 59.5088 9.32441 59.4687C9.52611 59.4085 9.71773 59.3384 9.91943 59.2582C10.0304 59.2181 10.1413 59.1679 10.222 59.1278L10.2825 59.1078C10.2825 59.1078 10.3531 59.0777 10.3833 59.0577C10.4136 59.0376 10.4439 59.0276 10.4842 59.0075L10.5548 58.9775C10.5548 58.9775 10.6456 58.9273 10.6859 58.9073C10.938 58.777 11.1901 58.6266 11.4826 58.4161C11.6036 58.3359 11.7146 58.2557 11.8658 58.1354C11.886 58.1253 11.8961 58.1053 11.9062 58.0953C11.9969 58.0251 12.0877 57.9549 12.1583 57.8847L12.2289 57.8246C12.3398 57.7243 12.4508 57.6241 12.5516 57.5238C12.6525 57.4236 12.7533 57.3133 12.8643 57.183C12.955 57.0827 13.0458 56.9724 13.1164 56.8822C13.1466 56.8521 13.1668 56.8221 13.2172 56.7619C13.2878 56.6717 13.3584 56.5815 13.3988 56.5113C13.4189 56.4912 13.4391 56.4712 13.4593 56.4311L13.4996 56.381C13.4996 56.381 13.5702 56.2807 13.6005 56.2206C13.6307 56.1704 13.6711 56.1203 13.6811 56.0902C13.7417 56 13.7921 55.9098 13.8425 55.8196L13.8728 55.7594C13.903 55.7093 13.9333 55.6592 13.9635 55.599C14.0442 55.4486 14.1249 55.2983 14.1854 55.1479C14.2157 55.0777 14.2459 55.0075 14.2762 54.9474L14.3064 54.8973C14.3568 54.777 14.3972 54.6667 14.4375 54.5464C14.4678 54.4762 14.488 54.396 14.5182 54.3158L14.5485 54.2256L14.5787 54.1253C14.5989 54.0552 14.6191 53.975 14.6493 53.8647C14.6594 53.8045 14.6695 53.7444 14.6897 53.6842C14.7098 53.594 14.73 53.5038 14.7502 53.4035V53.3334C14.7804 53.2632 14.7905 53.193 14.8006 53.1429C14.8208 53.0526 14.8308 52.9624 14.8409 52.8622C14.851 52.792 14.8611 52.7118 14.8712 52.6516C14.8813 52.5714 14.8914 52.5013 14.8914 52.4211V52.3709V52.3208C14.8914 52.1905 14.9014 52.0702 14.9014 51.9399C14.9014 50.5765 14.5384 49.2331 13.8627 48.0501C13.7517 47.8396 13.6106 47.6191 13.4492 47.4085L13.4895 47.3985Z" fill="#FAF2D7"/>
<path d="M90.2268 44.6917C91.9615 44.6917 93.5751 45.6842 94.6643 47.3985L94.7248 47.4887H97.0645L96.8527 47.188C95.3198 45.0627 92.8389 43.7995 90.2268 43.7995C85.7289 43.7995 82.0781 47.4386 82.0781 51.8998C82.0781 56.3609 85.739 60 90.2268 60C92.8389 60 95.3198 58.7368 96.8527 56.6115L97.0645 56.3108H94.7248L94.6643 56.401C93.5751 58.1253 91.9514 59.1078 90.2268 59.1078C87.0904 59.1078 84.5288 55.8697 84.5288 51.8998C84.5288 47.9298 87.0803 44.6917 90.2268 44.6917Z" fill="#FAF2D7"/>
<path d="M21.7088 57.4937C21.7289 58.3058 21.7592 59.1378 21.8499 59.8296H19.3489C19.4497 59.1579 19.4699 58.3459 19.49 57.5138C19.5405 56.6817 19.5405 55.7995 19.5405 54.9073V48.9624C19.5405 48.0501 19.5405 47.198 19.49 46.3559C19.4699 45.5439 19.4195 44.7318 19.3186 44.0401H21.86C21.7592 44.6817 21.7188 45.4937 21.6886 46.3358C21.6382 47.1679 21.6382 48.0501 21.6382 48.9624V54.9073C21.6382 55.7895 21.6382 56.6516 21.6886 57.4837L21.7088 57.4937Z" fill="#FAF2D7"/>
<path d="M102.853 54.0752H108.743L108.793 54.2155C109.398 55.7895 109.852 57.0526 110.134 58.015C110.427 58.9474 110.618 59.5388 110.689 59.8296H113.382C113.14 59.3283 112.827 58.6366 112.444 57.7243C112.061 56.8221 111.627 55.7895 111.143 54.6466C110.659 53.5038 110.155 52.3108 109.65 51.0175C109.146 49.7544 108.622 48.5113 108.117 47.2481C107.664 46.1053 107.21 45.0526 106.796 44.0602H105.879C104.749 46.6566 103.599 49.2632 102.45 51.8095C101.249 54.4561 100.049 57.1328 98.7988 59.8296H100.372L102.843 54.0752H102.853ZM103.216 53.193L103.277 53.0526L105.848 47.0877H105.899C106.403 48.2306 106.857 49.3033 107.27 50.3158C107.674 51.3183 108.037 52.2306 108.38 53.0627L108.43 53.203H103.226L103.216 53.193Z" fill="#FAF2D7"/>
<path d="M62.4624 54.0852H68.3521L68.4025 54.2256C69.0076 55.7995 69.4614 57.0627 69.7438 58.0251C70.0363 58.9574 70.2279 59.5489 70.2985 59.8396H72.9912C72.7491 59.3384 72.4365 58.6466 72.0533 57.7344C71.67 56.8321 71.2364 55.7995 70.7523 54.6567C70.2682 53.5138 69.764 52.3208 69.2597 51.0276C68.7555 49.7644 68.231 48.5213 67.7268 47.2582C67.273 46.1153 66.8191 45.0627 66.4056 44.0702H65.4879C64.3584 46.6667 63.2087 49.2732 62.059 51.8196C60.8589 54.4662 59.6587 57.1429 58.4082 59.8396H59.9815L62.4523 54.0852H62.4624ZM62.8255 53.203L62.886 53.0627L65.4577 47.0978H65.5081C66.0123 48.2406 66.4662 49.3133 66.8796 50.3258C67.283 51.3283 67.6461 52.2406 67.989 53.0727L68.0394 53.213H62.8355L62.8255 53.203Z" fill="#FAF2D7"/>
<path d="M29.4946 54.0852H35.3843L35.4347 54.2256C36.0398 55.7995 36.4936 57.0627 36.776 58.0251C37.0685 58.9574 37.2601 59.5489 37.3307 59.8396H40.0234C39.7814 59.3384 39.4687 58.6466 39.0855 57.7344C38.7023 56.8321 38.2686 55.7995 37.7845 54.6567C37.3004 53.5138 36.7962 52.3208 36.2919 51.0276C35.7877 49.7644 35.2633 48.5213 34.759 47.2582C34.3052 46.1153 33.8514 45.0627 33.4379 44.0702H32.5201C31.3906 46.6667 30.2409 49.2732 29.0912 51.8196C27.8911 54.4662 26.691 57.1429 25.4404 59.8396H27.0137L29.4845 54.0852H29.4946ZM29.8577 53.203L29.9182 53.0627L32.4899 47.0978H32.5403C33.0446 48.2406 33.4984 49.3133 33.9119 50.3258C34.3153 51.3283 34.6783 52.2406 35.0212 53.0727L35.0716 53.213H29.8678L29.8577 53.203Z" fill="#FAF2D7"/>
<path d="M142.86 54.0852H148.75L148.8 54.2256C149.406 55.7995 149.859 57.0627 150.142 58.0251C150.434 58.9574 150.626 59.5489 150.696 59.8396H153.389C153.147 59.3384 152.834 58.6466 152.451 57.7344C152.068 56.8321 151.634 55.7995 151.15 54.6567C150.666 53.5138 150.162 52.3208 149.658 51.0276C149.153 49.7644 148.629 48.5213 148.125 47.2582C147.671 46.1153 147.217 45.0627 146.804 44.0702H145.886C144.756 46.6667 143.607 49.2732 142.457 51.8196C141.257 54.4662 140.057 57.1429 138.806 59.8396H140.379L142.85 54.0852H142.86ZM143.223 53.203L143.284 53.0627L145.856 47.0978H145.906C146.41 48.2406 146.864 49.3133 147.278 50.3258C147.681 51.3283 148.044 52.2406 148.387 53.0727L148.437 53.213H143.233L143.223 53.203Z" fill="#FAF2D7"/>
<path d="M174.961 54.0852H180.851L180.901 54.2256C181.506 55.7995 181.96 57.0627 182.242 58.0251C182.535 58.9574 182.726 59.5489 182.797 59.8396H185.49C185.248 59.3384 184.935 58.6466 184.552 57.7344C184.169 56.8321 183.735 55.7995 183.251 54.6567C182.767 53.5138 182.262 52.3208 181.758 51.0276C181.254 49.7644 180.73 48.5213 180.225 47.2582C179.771 46.1153 179.318 45.0627 178.904 44.0702H177.986C176.857 46.6667 175.707 49.2732 174.558 51.8196C173.357 54.4662 172.157 57.1429 170.907 59.8396H172.48L174.951 54.0852H174.961ZM175.324 53.203L175.384 53.0627L177.956 47.0978H178.007C178.511 48.2406 178.965 49.3133 179.378 50.3258C179.782 51.3283 180.145 52.2406 180.488 53.0727L180.538 53.213H175.334L175.324 53.203Z" fill="#FAF2D7"/>
<path d="M131.424 48.2807H131.525C131.767 50.1955 132.009 52.1002 132.241 53.985C132.453 55.8697 132.674 57.8246 132.866 59.8396H135.286C134.853 57.2331 134.449 54.6366 134.066 52.0301C133.733 49.5238 133.491 46.8772 133.179 44.0602H132.261L126.25 56.401H126.139L120.956 44.0602H120.038C119.846 45.183 119.634 46.3759 119.392 47.6391C119.13 49.0526 118.868 50.4561 118.576 51.8897C118.313 53.3434 118.021 54.7268 117.759 56.0902C117.466 57.4536 117.204 58.6967 116.962 59.8396H118.495L120.451 48.2105H120.562L125.302 59.218H126.24L131.424 48.2807Z" fill="#FAF2D7"/>
<path d="M108.521 21.2732C106.131 22.0551 97.0237 25.5238 93.6351 33.7443C94.926 30.416 98.4255 23.4887 106.373 19.0977C105.858 18.6366 105.324 18.2055 104.769 17.8045C104.749 17.7844 104.729 17.7744 104.709 17.7544C104.194 17.3834 103.65 17.0426 103.095 16.7218C103.044 16.6917 102.994 16.6616 102.944 16.6316C101.572 17.6742 93.6856 23.9699 92.9998 33.0225C92.3241 23.9699 84.4376 17.6742 83.066 16.6316C83.0358 16.6416 83.0156 16.6616 82.9853 16.6817C82.3903 17.0225 81.8256 17.3834 81.2709 17.7744C80.696 18.1854 80.1414 18.6265 79.6169 19.0977C87.5539 23.4887 91.0735 30.416 92.3543 33.7443C88.9658 25.5238 79.8691 22.0551 77.4688 21.2732C76.5914 22.3258 75.825 23.4787 75.1694 24.7017C80.222 25.5839 84.1955 27.6992 87.1 29.8446C87.1303 29.8646 87.1807 29.8947 87.211 29.9248C87.6043 30.2055 87.9673 30.4962 88.3002 30.7769C88.3707 30.8271 88.4212 30.8872 88.4817 30.9273C88.8851 31.2581 89.2481 31.589 89.591 31.9098L89.6415 31.9599C91.5173 33.6641 92.5964 35.1278 92.8888 35.5489C92.9494 35.6291 92.9796 35.6692 92.9796 35.6692C92.9796 35.6692 92.9796 35.6591 92.9897 35.6591C92.9998 35.6591 92.9998 35.6391 92.9998 35.6391C93.03 35.589 93.0805 35.5188 93.1712 35.4085C93.504 34.9574 94.2604 33.9749 95.4605 32.792C95.7227 32.5113 96.0253 32.2005 96.3379 31.9398L96.3783 31.8997C96.7413 31.5589 97.1447 31.208 97.5784 30.8571C97.6087 30.8271 97.649 30.797 97.6792 30.7669C97.8204 30.6566 97.9515 30.5363 98.1028 30.426C98.3449 30.2356 98.597 30.0351 98.8693 29.8446C101.653 27.7895 105.425 25.7544 110.195 24.812C110.396 24.7619 110.598 24.7318 110.8 24.6917C110.154 23.4687 109.378 22.3158 108.5 21.2631L108.521 21.2732Z" fill="#F06419"/>
<path d="M97.266 19.1378L96.5197 14.3459C95.3801 14.1454 94.2102 14.0251 93 14.0251C91.7898 14.0251 90.62 14.1454 89.4804 14.3459L88.7441 19.1378C90.2266 20.812 91.7999 22.9373 93 25.4236C94.2001 22.9373 95.7835 20.802 97.266 19.1378ZM91.9714 18.3258C91.9714 17.7644 92.4252 17.3133 92.9899 17.3133C93.5547 17.3133 94.0186 17.7644 94.0186 18.3258C94.0186 18.8872 93.5648 19.3383 92.9899 19.3383C92.4151 19.3383 91.9714 18.8872 91.9714 18.3258Z" fill="#F06419"/>
</g>
<defs>
<clipPath id="clip0_4310_168">
<rect width="185" height="60" fill="white" transform="translate(0.5)"/>
</clipPath>
</defs>
</svg>
