<svg width="90" height="90" viewBox="0 0 90 90" fill="none" xmlns="http://www.w3.org/2000/svg">
<g clip-path="url(#clip0_4672_212)">
<path d="M45.0047 89.5474C69.6049 89.5474 89.5474 69.6049 89.5474 45.0047C89.5474 20.4044 69.6049 0.461914 45.0047 0.461914C20.4044 0.461914 0.461914 20.4044 0.461914 45.0047C0.461914 69.6049 20.4044 89.5474 45.0047 89.5474Z" stroke="#F06419" stroke-miterlimit="10"/>
<path d="M44.9024 5.625C23.2038 5.625 5.625 23.2038 5.625 44.9024C5.625 66.6011 23.213 84.1799 44.9024 84.1799C66.5919 84.1799 84.1799 66.5919 84.1799 44.9024C84.1799 23.213 66.5919 5.625 44.9024 5.625ZM23.8042 59.3128V34.0577C24.7649 33.8914 25.9842 33.7067 27.2036 33.873V55.701C27.2036 56.3106 27.647 56.8279 28.2474 56.9111C28.3213 56.9203 32.5982 57.5854 37.2446 59.8393C31.6652 58.7493 26.2798 59.0726 23.8042 59.3128ZM29.67 54.6756V30.0764C30.5752 30.2242 31.8223 30.5845 33.0693 31.3142V52.0707C33.0693 52.551 33.3557 52.9944 33.7991 53.1884C33.8453 53.2069 37.1984 54.7587 40.4592 58.7493C36.0899 56.1905 31.6468 55.0728 29.6607 54.6664L29.67 54.6756ZM43.9325 59.322C40.7733 54.574 37.0784 52.1723 35.5265 51.3132V28.1181C41.4846 31.8315 43.6461 36.8474 43.9325 37.5772V59.3128V59.322ZM45.8724 37.5864C46.168 36.8567 48.3203 31.8407 54.2784 28.1273V51.3224C52.7265 52.1723 49.0223 54.574 45.8631 59.3312V37.5956L45.8724 37.5864ZM49.3364 58.7493C52.5972 54.7587 55.9596 53.2069 55.9965 53.1884C56.4399 52.9944 56.7263 52.551 56.7263 52.0707V31.3142C57.9734 30.5845 59.2204 30.2242 60.1257 30.0764V54.6756C58.1489 55.082 53.6964 56.1998 49.3271 58.7585L49.3364 58.7493ZM65.9914 59.3128C63.5066 59.0726 58.1304 58.7585 52.551 59.8393C57.1882 57.5946 61.4743 56.9295 61.5482 56.9111C62.1487 56.8187 62.6013 56.3014 62.6013 55.701V33.873C63.8206 33.7067 65.0492 33.9007 66.0007 34.0577V59.3128H65.9914Z" fill="#F06419"/>
</g>
<defs>
<clipPath id="clip0_4672_212">
<rect width="90" height="90" fill="white"/>
</clipPath>
</defs>
</svg>
