<svg width="90" height="90" viewBox="0 0 90 90" fill="none" xmlns="http://www.w3.org/2000/svg">
<g clip-path="url(#clip0_4058_1444)">
<path d="M45.0047 89.5474C69.6049 89.5474 89.5474 69.6049 89.5474 45.0047C89.5474 20.4044 69.6049 0.461914 45.0047 0.461914C20.4044 0.461914 0.461914 20.4044 0.461914 45.0047C0.461914 69.6049 20.4044 89.5474 45.0047 89.5474Z" stroke="#F06419" stroke-miterlimit="10"/>
<path d="M84.282 45.0045C84.282 23.3058 66.7032 5.72705 45.0046 5.72705C23.3059 5.72705 5.72712 23.3151 5.72712 45.0045C5.72712 66.6939 23.3151 84.2819 45.0045 84.2819C66.694 84.2819 84.282 66.6939 84.282 45.0045ZM44.2656 35.8872C43.3695 35.7948 42.0948 35.49 40.3027 34.8433L39.9332 34.7048C37.0696 33.6425 33.8735 34.0304 31.3517 35.7301C34.3169 31.3608 39.3328 28.4972 45.0045 28.4972C46.8982 28.4972 48.718 28.8206 50.4177 29.4025C50.2883 29.5134 50.1405 29.6242 49.965 29.7351C49.5309 30.0214 49.0782 30.2524 48.5517 30.5664C47.6187 31.1114 46.344 31.9336 46.2239 33.4947L46.2054 33.6979C46.1962 33.9104 46.1869 34.1228 46.1777 34.2983C46.1685 34.557 46.15 34.7787 46.1223 34.9819C46.0576 35.3883 45.9468 35.5731 45.799 35.6747C45.6327 35.7948 45.2355 35.9611 44.2563 35.8595L44.2656 35.8872ZM28.5065 45.0045C28.5065 42.7967 28.9407 40.6906 29.7259 38.76C29.7444 38.76 29.7628 38.7415 29.7905 38.7323L29.8737 38.6953L32.1461 37.4113L32.22 37.3651L32.414 37.2266C34.4462 35.8779 37.005 35.5823 39.2958 36.4322L39.6746 36.5707C41.5405 37.2358 42.9723 37.5961 44.0808 37.7069C45.254 37.827 46.1962 37.6792 46.8797 37.1804C47.591 36.6631 47.8312 35.9149 47.9328 35.296C47.979 34.9819 47.9975 34.6771 48.0159 34.3999C48.0159 34.2521 48.0159 34.1228 48.0344 34.0027L48.0529 33.6517C48.0898 33.1344 48.4871 32.7464 49.4755 32.1645C49.9096 31.9151 50.4916 31.601 50.9812 31.2777C51.4153 30.9913 51.8679 30.6311 52.2374 30.1784C57.7245 32.8573 61.5118 38.4921 61.5118 45.0137C61.5118 48.6717 60.3202 52.0526 58.3064 54.7961L58.3064 54.6021C58.3064 53.8909 58.5189 53.0133 58.8145 51.9787C59.0731 51.055 59.4057 50.0112 59.5812 49.0227L59.6089 48.8288C59.7105 48.1729 59.6089 47.554 59.3133 47.0367C59.0177 46.5194 58.5651 46.1499 58.0662 45.9282C57.0963 45.4756 55.8585 45.4941 54.7685 45.8543L54.6299 45.9005C53.2997 46.2885 52.0342 45.8358 51.1844 44.6812L51.1012 44.5611C50.8518 44.1824 50.547 43.7944 50.2052 43.4988C49.8727 43.2124 49.3646 42.8984 48.7365 42.9723L48.5055 43.0092C46.1038 43.4249 44.3949 45.6049 44.5796 48.0528L44.6258 48.6994L44.6258 48.8934C44.6812 50.9072 43.0555 52.5791 41.0232 52.5791L37.7624 52.5791C37.4206 52.5791 37.1066 52.3759 36.968 52.0711L36.9403 52.0064C36.3676 50.4176 34.4924 49.734 33.0329 50.5839L30.1508 52.2651C29.0793 50.0758 28.4788 47.6187 28.4788 45.023L28.5065 45.0045ZM31.0745 53.8539L33.9843 52.1542C34.4554 51.8771 35.0559 52.0988 35.2406 52.6161L35.2776 52.7177C35.684 53.7338 36.6816 54.4082 37.7809 54.4082L41.0417 54.4082C44.1639 54.4082 46.6303 51.794 46.4825 48.6994L46.4825 48.5516L46.4271 47.905C46.307 46.3716 47.4063 45.0137 48.9212 44.792C48.9397 44.8013 48.9766 44.829 49.0228 44.8659C49.1799 45.0045 49.3738 45.2354 49.5955 45.568L49.7249 45.7435C50.9996 47.4893 53.0411 48.256 55.1565 47.6371L55.3689 47.5725C56.1171 47.3231 56.8561 47.36 57.318 47.5725C57.5397 47.6741 57.669 47.7942 57.7337 47.9235C57.7984 48.0436 57.8538 48.2283 57.8076 48.5332L57.7429 48.8749C57.5859 49.6786 57.318 50.5377 57.0501 51.4614C56.7638 52.4683 56.4682 53.586 56.4682 54.5837L56.4682 56.8745C53.503 59.7381 49.457 61.5025 45.0045 61.5025C39.148 61.5025 34.0028 58.4449 31.0745 53.8447L31.0745 53.8539Z" fill="#F06419"/>
</g>
<defs>
<clipPath id="clip0_4058_1444">
<rect width="90" height="90" fill="white"/>
</clipPath>
</defs>
</svg>
