<svg width="92" height="92" viewBox="0 0 92 92" fill="none" xmlns="http://www.w3.org/2000/svg">
<path d="M46 91C70.8528 91 91 70.8528 91 46C91 21.1472 70.8528 1 46 1C21.1472 1 1 21.1472 1 46C1 70.8528 21.1472 91 46 91Z" stroke="#F06419" stroke-miterlimit="10"/>
<path d="M51.4902 70.0314C51.293 70.4071 51.4338 70.8673 51.8002 71.0646C52.1759 71.2618 52.6174 71.1209 52.8146 70.7546C52.8616 70.6607 52.8991 70.5574 52.9085 70.4634C52.9367 70.1723 52.777 69.8717 52.5046 69.7214C52.1289 69.5241 51.6875 69.665 51.4902 70.0314Z" fill="#F06419"/>
<path d="M85.9435 46.0042C85.9435 23.9402 68.0687 6.06543 46.0047 6.06543C23.9407 6.06543 6.06592 23.9496 6.06592 46.0042C6.06592 68.0588 23.9501 85.943 46.0047 85.943C68.0593 85.943 85.9435 68.0588 85.9435 46.0042ZM39.3451 19.3846L48.569 24.2689L46.944 27.3592L37.7201 22.4561L39.3451 19.3846ZM27.1437 46.1357C26.4674 44.2102 25.7254 41.7022 26.4016 39.7203C27.2376 37.2688 27.8388 34.7139 29.0974 32.4408C29.924 30.9473 31.5208 30.0456 32.8358 29.003C34.3669 27.7913 36.2548 27.0023 37.4947 25.49C37.9174 24.9734 38.2274 24.5695 38.697 24.0811L45.2627 27.5565C44.9621 29.2754 44.3046 31.3418 43.3559 33.1171C43.0741 33.6431 42.7829 34.1315 42.4542 34.5918C41.4303 36.0289 39.7678 36.7991 38.5937 38.0672C37.0344 39.7579 36.0482 41.8995 34.3575 43.5245C33.1833 44.6516 31.0511 43.393 31.4738 41.9558C31.8871 40.5563 32.9673 39.4385 33.653 38.1517C34.1508 37.2312 35.0525 36.2731 35.0807 35.2681C33.0049 36.4234 31.9247 38.7153 31.0699 40.8475C30.5345 42.1907 30.6003 43.6184 30.9009 44.971C31.1639 46.1451 30.9196 47.9579 29.661 48.08C28.5338 48.1834 27.7636 47.8828 27.1437 46.1357ZM41.7121 50.0901C40.3689 48.6154 39.1103 46.812 37.5135 45.187C39.1103 43.562 40.3689 41.7586 41.7121 40.2839C43.4123 38.4147 45.0654 36.8461 47.6673 36.8273C49.931 36.8085 51.2084 38.3959 51.2178 40.359C51.2272 42.4912 49.5552 43.872 48.2214 45.187C49.5552 46.4926 51.2084 47.8828 51.2178 50.015C51.2178 52.0439 49.931 53.5467 47.6673 53.5279C45.0748 53.5092 43.4123 51.9499 41.7121 50.0901ZM48.6441 58.8913C48.9259 58.3653 49.2359 57.8581 49.5646 57.3978C50.5885 55.9607 52.2322 55.2093 53.4063 53.9412C54.9656 52.2505 55.9518 50.0901 57.6426 48.4652C58.8167 47.338 60.9489 48.6154 60.5262 50.0526C60.1129 51.4521 59.0327 52.5699 58.347 53.8567C57.8492 54.7772 56.9569 55.7353 56.9193 56.7403C58.9951 55.585 60.0753 53.2931 60.9301 51.1609C61.4655 49.8177 61.3997 48.3712 61.0992 47.0186C60.8362 45.8445 61.0804 44.0505 62.339 43.9284C63.4662 43.825 64.2364 44.1256 64.8563 45.8727C65.3635 47.3192 65.9177 49.0851 65.8708 50.7195C65.852 51.2643 65.7581 51.7996 65.589 52.2881C64.8 54.5894 64.2176 56.9752 63.1092 59.1449C63.0341 59.2858 62.9496 59.4267 62.865 59.5676C62.0384 61.0611 60.4604 61.9628 59.1454 63.0054C57.6144 64.2171 55.7264 65.0061 54.4865 66.5184C54.0638 67.035 53.7539 67.4389 53.2842 67.9273L46.7186 64.4519C47.0191 62.733 47.6766 60.6666 48.6253 58.8913L48.6441 58.8913ZM43.4123 67.7489L45.056 64.6586L54.2799 69.5617L52.6549 72.6332L43.4123 67.7489Z" fill="#F06419"/>
<path d="M40.5099 21.9675C40.5569 21.8736 40.5945 21.7703 40.6039 21.6763C40.632 21.3758 40.4724 21.0846 40.2 20.9343C39.8242 20.737 39.364 20.8779 39.1667 21.2443C38.9695 21.62 39.1292 22.0802 39.4955 22.2775C39.8712 22.4747 40.3127 22.3338 40.5099 21.9675Z" fill="#F06419"/>
</svg>
