<svg width="119" height="122" viewBox="0 0 119 122" fill="none" xmlns="http://www.w3.org/2000/svg">
<g clip-path="url(#clip0_4053_361)">
<path d="M9.20204 31.8402H28.7325C28.823 31.8402 28.9135 31.8603 29.004 31.8603C29.2655 31.8603 29.527 31.8805 29.7885 31.8805C30.0198 31.9006 30.2511 31.9307 30.4824 31.9408C30.7539 31.9609 31.0355 31.9911 31.3071 32.0313C31.4277 32.0514 31.5384 32.0514 31.649 32.0615C31.82 32.0917 31.9708 32.1218 32.1418 32.152C32.6647 32.2324 33.1877 32.333 33.6905 32.4738C33.9219 32.5241 34.1532 32.5643 34.3845 32.6247C34.4448 32.6448 34.4951 32.6548 34.5554 32.685C34.8471 32.7655 35.1387 32.856 35.4304 32.9565C35.5511 32.9867 35.6718 33.037 35.7824 33.0672C35.9533 33.1275 36.1042 33.1879 36.2752 33.2683C36.6272 33.389 36.9791 33.5298 37.3211 33.6806C37.3814 33.7108 37.4317 33.7309 37.4719 33.741C37.7435 33.8617 38.0049 34.0025 38.2865 34.1231C38.367 34.1734 38.4273 34.2036 38.4877 34.2338C38.6385 34.3142 38.7994 34.3846 38.9503 34.4651C38.9805 34.4852 39.0006 34.4952 39.0106 34.4952C39.2721 34.6461 39.5336 34.797 39.775 34.9579C40.0666 35.1288 40.3683 35.2998 40.6499 35.4808H40.67C40.9416 35.6618 41.2231 35.8529 41.4846 36.044C41.545 36.0943 41.6053 36.1546 41.6657 36.1949C42.078 36.4865 42.4803 36.7882 42.8624 37.1C42.973 37.1905 43.0736 37.2709 43.1842 37.3615C43.3049 37.452 43.4155 37.5626 43.5262 37.6531C43.8681 37.9448 44.1698 38.2364 44.4916 38.5381C44.6023 38.6286 44.7028 38.7191 44.7933 38.8096C45.0347 39.051 45.256 39.2823 45.4873 39.5136L45.6281 39.6544C45.7186 39.7751 45.8292 39.8857 45.9298 39.9964C46.1711 40.2679 46.4226 40.5495 46.6639 40.8411C46.7544 40.9618 46.8449 41.0724 46.9355 41.1931C47.026 41.2836 47.0863 41.3943 47.1768 41.4848C47.2874 41.6356 47.4081 41.7764 47.5188 41.9273C47.6696 42.1083 47.8104 42.3094 47.9613 42.5106C47.9613 42.5307 47.9814 42.5307 47.9814 42.5407C48.0417 42.6212 48.092 42.6916 48.1322 42.7721C48.3334 43.0335 48.5043 43.3051 48.6854 43.5867C48.806 43.7576 48.9267 43.9286 49.0575 44.1096C49.1983 44.3208 49.3189 44.5421 49.4396 44.7533C49.5905 44.9946 49.7413 45.2561 49.9022 45.5176C50.0229 45.7288 50.1436 45.9299 50.2542 46.1311C50.3447 46.3121 50.4353 46.5032 50.5258 46.6641C50.6766 46.9557 50.8174 47.2273 50.9582 47.5189C51.0387 47.6698 51.1292 47.8106 51.1895 47.9614C51.3102 48.2732 51.451 48.5246 51.5717 48.8162C51.6018 48.8766 51.622 48.9269 51.632 48.9671C51.7225 49.1481 51.803 49.3392 51.8734 49.5303C51.8734 49.5504 51.8935 49.5605 51.8935 49.5605L51.9136 49.5806C51.9136 49.5806 51.9438 49.661 51.9639 49.7012C52.0544 49.9124 52.1449 50.1639 52.2354 50.3952C52.3461 50.6365 52.4165 50.888 52.4969 51.1293C52.5874 51.3606 52.6679 51.5718 52.7383 51.8031V51.8232C52.7383 51.8232 52.7886 51.9439 52.8187 52.0244C52.9998 52.5574 53.1607 53.1005 53.3216 53.6536C53.3417 53.7441 53.3819 53.8346 53.402 53.9251C54.3876 50.5963 55.8257 47.4384 57.636 44.5521C57.5455 44.4113 57.4348 44.2906 57.3443 44.1499C57.0828 43.7979 56.8113 43.4258 56.5498 43.0738C56.3789 42.8726 56.2079 42.6715 56.047 42.4804C55.9263 42.3094 55.7855 42.1586 55.6447 41.9876C55.4738 41.8066 55.3229 41.6055 55.1519 41.4244C55.0413 41.2836 54.9206 41.1831 54.7999 41.0423C54.5385 40.7305 54.2468 40.4489 53.9753 40.1673C53.7037 39.8757 53.4221 39.6041 53.1506 39.3527C53.04 39.232 52.9394 39.1214 52.8087 39.0611C52.6276 38.88 52.4567 38.689 52.2757 38.5281C52.1248 38.4074 51.9538 38.2565 51.803 38.1258C51.3303 37.7235 50.8375 37.3011 50.3347 36.9089C49.9525 36.5971 49.5502 36.2954 49.1379 36.0239C48.9669 35.9032 48.8161 35.8127 48.6451 35.682C48.2328 35.3903 47.8004 35.0987 47.3578 34.8372C47.036 34.6562 46.7142 34.455 46.3924 34.274C46.3924 34.274 46.3857 34.2673 46.3723 34.2539C46.3723 34.2539 46.3119 34.2036 46.2818 34.1935C46.0706 34.0729 45.8493 33.9522 45.6381 33.8415C45.618 33.8415 45.618 33.8214 45.6079 33.8214C45.3062 33.6404 44.9945 33.4996 44.6827 33.3286C44.4514 33.208 44.21 33.0873 43.9586 32.9767C43.6569 32.8258 43.3451 32.6649 43.0233 32.5442C42.8222 32.4537 42.6211 32.3632 42.4199 32.2827C42.3897 32.2626 42.3596 32.2526 42.3294 32.2526C41.897 32.0514 41.4746 31.8805 41.022 31.7296C40.4689 31.5184 39.9057 31.3173 39.3224 31.1463C38.7592 30.9653 38.1759 30.8044 37.5725 30.6435C37.5222 30.6233 37.4619 30.6133 37.4015 30.6133C36.8786 30.4725 36.3456 30.3518 35.7924 30.2412C35.1991 30.1306 34.5957 30.0099 33.9822 29.9194C33.5498 29.859 33.1274 29.7987 32.6949 29.7484C32.2625 29.6981 31.8401 29.6579 31.3875 29.6277C31.0154 29.5975 30.6333 29.5774 30.2712 29.5674C30.0097 29.5473 29.7382 29.5473 29.4767 29.5473C29.2353 29.5271 29.004 29.5171 28.7526 29.5171H0V94.8566H9.20204V31.8402Z" fill="#EBF0EE"/>
<path d="M57.6259 85.2017C58.2997 84.2664 58.9132 83.301 59.4663 82.3054C60.1904 81.0482 60.8341 79.7408 61.3872 78.3932C61.4174 78.3329 61.4475 78.2524 61.4777 78.1921C61.6788 77.6691 61.88 77.1462 62.061 76.6232C62.1817 76.2813 62.2923 75.9494 62.4029 75.5974C62.5538 75.1046 62.7247 74.6018 62.8655 74.0989C62.9762 73.6564 63.0767 73.2139 63.1773 72.7815C63.3583 71.9669 63.5293 71.1523 63.65 70.3276C63.7103 69.9253 63.7707 69.513 63.8209 69.1007C63.8813 68.5777 63.9416 68.0447 63.9919 67.5217C63.9919 67.3508 64.012 67.1798 64.0221 67.0189C64.0321 66.6971 64.0422 66.3753 64.0523 66.0534H74.3404V63.7705H64.1227C64.2132 60.3612 64.6959 57.0626 65.5608 53.9952C65.6111 53.8746 65.6412 53.7639 65.6815 53.6433C65.8223 53.1203 65.9731 52.5973 66.1441 52.0945C66.1642 52.0442 66.1944 51.9839 66.2044 51.9436C66.3151 51.6319 66.4156 51.3503 66.5263 51.0586C66.5866 50.8776 66.6469 50.6765 66.7274 50.4753C66.8179 50.234 66.9084 49.9725 67.019 49.7211C67.0693 49.6406 67.0995 49.5702 67.1297 49.4797C67.19 49.359 67.2403 49.2484 67.2805 49.1277C67.4012 48.8662 67.5118 48.5947 67.6325 48.3131C67.6325 48.3131 67.6526 48.2628 67.6627 48.2528C67.7834 47.9913 67.894 47.7499 68.0348 47.4985H68.0549C68.1756 47.227 68.3164 46.9655 68.4572 46.704C68.5477 46.523 68.6382 46.3218 68.7488 46.1408C68.8896 45.8793 69.0405 45.638 69.1813 45.3866C69.2919 45.2156 69.3824 45.0647 69.4729 44.8938C69.5835 44.7228 69.674 44.572 69.7847 44.3909C69.845 44.2702 69.9255 44.1496 69.9959 44.0389C70.197 43.7372 70.378 43.4556 70.5792 43.164C70.6093 43.1137 70.6295 43.0835 70.6596 43.0534C70.8608 42.7818 71.0619 42.5002 71.253 42.2388C71.3636 42.098 71.4843 41.9672 71.5949 41.8063C71.7659 41.5951 71.9369 41.3739 72.0978 41.1627C72.1581 41.1023 72.1883 41.042 72.2386 40.9816C72.2687 40.9515 72.2888 40.9314 72.319 40.8911C72.5202 40.6598 72.7012 40.4285 72.9325 40.1972C72.9626 40.1771 72.9828 40.167 72.9928 40.1369C73.2945 39.7949 73.6264 39.4631 73.9482 39.1412C74.0287 39.0507 74.0991 38.9602 74.1896 38.8697C74.3304 38.749 74.4611 38.6283 74.6019 38.4875C74.8634 38.2562 75.1048 38.0249 75.3562 37.7936C75.507 37.6729 75.6478 37.5321 75.7987 37.3913C75.9093 37.3109 76.0099 37.2505 76.1105 37.16C76.4624 36.8684 76.8345 36.5968 77.1966 36.3354C77.3072 36.2449 77.3977 36.1644 77.5084 36.0739C77.7196 35.923 77.9408 35.7822 78.152 35.6314C78.1822 35.6113 78.2325 35.6012 78.2626 35.571C78.4135 35.4805 78.5744 35.39 78.7252 35.2995C78.9264 35.1788 79.1074 35.0581 79.2884 34.9274C79.4695 34.8369 79.6605 34.7263 79.8416 34.6358C80.1131 34.4849 80.4047 34.324 80.6863 34.1933C80.7366 34.1731 80.7768 34.143 80.8271 34.1128C81.0685 33.972 81.33 33.8513 81.5915 33.7407C81.6719 33.7206 81.7322 33.6904 81.8026 33.6602C82.7279 33.258 83.6632 32.9261 84.6286 32.6646C84.7393 32.6344 84.8298 32.6043 84.9203 32.5741C85.0611 32.5439 85.1918 32.5138 85.3326 32.4836C85.4432 32.4534 85.5438 32.4232 85.6745 32.4031C85.6947 32.383 85.7047 32.383 85.7248 32.373H85.7751C87.2434 32.0511 88.7318 31.8701 90.2705 31.8701C98.5373 31.8701 105.919 36.7678 110.706 44.3708H118.993C112.577 35.4302 102.097 29.5771 90.2705 29.5771C90.0392 29.5771 89.7979 29.5973 89.5666 29.6073C89.295 29.6073 89.0335 29.6073 88.7721 29.6274C88.3899 29.6475 88.0077 29.6576 87.6356 29.6878C87.1931 29.7179 86.7607 29.7682 86.3182 29.8085C85.8857 29.8587 85.4634 29.9191 85.0309 29.9794C84.4174 30.0599 83.814 30.1604 83.2207 30.3012C82.6877 30.4119 82.1446 30.5326 81.6216 30.6733C81.5009 30.6935 81.3803 30.7236 81.2696 30.7538C81.2696 30.7538 81.2596 30.7605 81.2395 30.7739C81.0987 30.8041 80.978 30.8544 80.8573 30.8845C80.455 30.9952 80.0729 31.1158 79.6907 31.2265C79.1275 31.3974 78.5543 31.5986 78.0011 31.8098C77.5687 31.9807 77.1262 32.1517 76.7139 32.3327C76.5932 32.383 76.4826 32.4232 76.3719 32.4735C76.2513 32.5238 76.1105 32.5842 75.9898 32.6244C75.7585 32.7149 75.5473 32.8255 75.316 32.9361C75.2958 32.9563 75.2556 32.9663 75.2355 32.9864C75.1852 33.0065 75.1551 33.0166 75.1148 33.0468C74.7126 33.2278 74.3304 33.4189 73.9683 33.61C73.8477 33.6703 73.727 33.7206 73.6163 33.791C73.2945 33.9619 72.9526 34.143 72.6308 34.3441C72.5805 34.3743 72.5503 34.3944 72.5101 34.4346C72.2184 34.5553 71.9469 34.7363 71.6653 34.9073C71.2228 35.1688 70.7904 35.4604 70.378 35.7521C70.2071 35.8728 70.0562 35.9633 69.8852 36.094C69.4729 36.3655 69.0706 36.6773 68.6885 36.979C68.1856 37.3612 67.6928 37.7936 67.2202 38.1959C67.0794 38.3166 66.9084 38.4574 66.7576 38.5982C66.7374 38.6183 66.7274 38.6283 66.6972 38.6585C66.5263 38.8094 66.3754 38.9703 66.2044 39.1312C66.0837 39.1915 65.9731 39.3021 65.8625 39.4228C65.591 39.6642 65.3094 39.9458 65.0378 40.2374C64.7663 40.509 64.4746 40.8006 64.2132 41.1124C64.0925 41.2532 63.9718 41.3538 63.8612 41.4945C63.7103 41.6655 63.5695 41.8465 63.4187 42.0175C63.2779 42.1985 63.127 42.3695 62.9762 42.5505C62.8052 42.7517 62.6544 42.9528 62.4834 43.1439C62.2118 43.4959 61.9504 43.868 61.6688 44.23C61.5783 44.3507 61.4676 44.4915 61.3771 44.6122C60.7134 45.5475 60.0999 46.5129 59.5367 47.5086C56.7811 52.3359 55.162 57.8873 54.9709 63.7906H44.7028V66.0736H54.9005C54.9005 66.2747 54.9005 66.4758 54.8804 66.6669C54.8804 66.9284 54.8603 67.1899 54.8502 67.4312C54.8301 67.6324 54.82 67.8335 54.7999 68.0246C54.7496 68.6381 54.7094 69.2515 54.6189 69.8549C54.6189 69.9052 54.6189 69.9455 54.5988 69.9957C54.5686 70.3176 54.5183 70.6394 54.4781 70.9612C54.458 71.102 54.4479 71.2327 54.4178 71.3735C54.3574 71.7557 54.2971 72.1379 54.2166 72.52C54.1965 72.6608 54.1663 72.7915 54.1362 72.9323C54.0859 73.1335 54.0557 73.3346 54.0155 73.5156C53.9954 73.5659 53.9954 73.6062 53.9853 73.6363C53.8345 74.3906 53.6434 75.1247 53.4523 75.8488C49.8821 88.7216 40.1772 97.984 28.8029 97.984H0V100.257H28.7325C40.67 100.257 51.2197 94.3032 57.6159 85.2218L57.6259 85.2017Z" fill="#EBF0EE"/>
<path d="M90.2101 97.9541C78.8257 97.9541 69.1007 88.6917 65.5406 75.7988C64.5751 79.1377 63.137 82.3056 61.3066 85.202C67.7028 94.2834 78.2726 100.237 90.2101 100.237C102.148 100.237 112.526 94.394 118.943 85.4333H110.656C105.859 93.0464 98.4869 97.9541 90.2101 97.9541Z" fill="#EBF0EE"/>
<path d="M64.0222 36.8084C64.515 36.3458 65.048 35.8731 65.6313 35.4004C65.6816 35.3502 65.7218 35.32 65.7721 35.2798C65.9531 35.1289 66.1442 34.978 66.3353 34.8171C66.6571 34.5557 66.999 34.2942 67.3611 34.0327C71.0922 31.257 76.1508 28.5115 82.547 27.2544C82.8185 27.184 83.09 27.1437 83.3515 27.0935C82.4766 25.4441 81.4508 23.8954 80.2741 22.4673C77.076 23.5233 64.8569 28.1997 60.3112 39.2924C62.041 34.797 66.7376 25.4542 77.3878 19.5307C76.7039 18.9072 75.9798 18.3339 75.2356 17.7908C75.2054 17.7707 75.1753 17.7506 75.1451 17.7305C74.4512 17.2277 73.7271 16.7751 72.9829 16.3326C72.9125 16.2924 72.8521 16.2521 72.7817 16.2119C70.9413 17.6199 60.3716 26.1079 59.4564 38.3169C58.5513 26.1079 47.9714 17.6098 46.1411 16.2119C46.1109 16.232 46.0707 16.2521 46.0405 16.2723C45.246 16.7349 44.4817 17.2176 43.7475 17.7506C42.9832 18.3037 42.239 18.8971 41.525 19.5307C52.1752 25.4542 56.8818 34.797 58.6015 39.2924C54.0659 28.2098 41.8568 23.5233 38.6487 22.4673C37.472 23.8954 36.4362 25.4441 35.5713 27.0935C42.3396 28.2802 47.6798 31.1464 51.5617 34.0327C51.612 34.0629 51.6724 34.093 51.7126 34.1433C52.2355 34.5255 52.7283 34.9076 53.1708 35.2898C53.2613 35.3502 53.3418 35.4407 53.4122 35.4909C53.9452 35.9335 54.438 36.376 54.9006 36.8084L54.971 36.8788C57.4852 39.1818 58.9334 41.153 59.3357 41.7162C59.4162 41.8268 59.4564 41.8871 59.4564 41.8871C59.4564 41.8871 59.4564 41.867 59.4765 41.867C59.4966 41.867 59.4966 41.8368 59.4966 41.8368C59.5469 41.7765 59.6072 41.6659 59.7279 41.5251C60.1704 40.9116 61.1862 39.5942 62.7953 37.9951C63.1473 37.6129 63.5596 37.2006 63.9719 36.8486L64.0222 36.7983V36.8084Z" fill="#EBF0EE"/>
<path d="M59.4662 12.6816C57.8571 12.6816 56.2782 12.8526 54.7495 13.1241L53.7539 19.5907C55.7452 21.8435 57.8471 24.7197 59.4562 28.0787C61.0653 24.7197 63.1873 21.8535 65.1785 19.5907L64.1728 13.1241C62.6442 12.8526 61.0753 12.6917 59.4562 12.6917L59.4662 12.6816ZM59.4562 19.8522C58.7019 19.8522 58.0884 19.2387 58.0884 18.4845C58.0884 17.7302 58.7019 17.1167 59.4562 17.1167C60.2104 17.1167 60.834 17.7302 60.834 18.4845C60.834 19.2387 60.2205 19.8522 59.4562 19.8522Z" fill="#EBF0EE"/>
<path d="M30.744 116.288C31.0054 115.976 31.3474 115.604 31.7295 115.212C32.1117 114.81 32.5441 114.397 32.9967 113.975C33.4593 113.542 33.9119 113.13 34.3443 112.728C34.7768 112.346 35.1489 112.004 35.4908 111.692H33.932C33.4694 112.235 32.9866 112.758 32.4838 113.311C31.9608 113.884 31.4479 114.407 30.935 114.93C30.4221 115.443 29.9294 115.906 29.4667 116.308C29.4165 116.358 29.3561 116.399 29.2958 116.419C29.2153 116.449 29.1751 116.449 29.1248 116.449V114.87C29.1248 114.287 29.1449 113.713 29.155 113.17C29.1751 112.627 29.2053 112.104 29.2656 111.692H27.7068C27.7671 112.144 27.7973 112.667 27.8174 113.19C27.8476 113.733 27.8677 114.287 27.8677 114.87V118.712C27.8677 119.285 27.8476 119.858 27.8174 120.391C27.7973 120.934 27.7872 121.457 27.7269 121.89H29.2555C29.1952 121.437 29.1751 120.904 29.165 120.381C29.1449 119.838 29.1349 119.285 29.1349 118.712V116.67C29.2254 116.69 29.2053 116.68 29.2656 116.7C29.3159 116.7 29.3963 116.771 29.4265 116.801C29.5774 116.952 29.8288 117.213 30.1707 117.605C30.5127 117.988 30.8848 118.44 31.2971 118.933C31.7094 119.426 32.1318 119.939 32.5643 120.461C32.9766 120.974 33.3789 121.447 33.7409 121.9H35.6819L30.754 116.328V116.298L30.744 116.288Z" fill="#EBF0EE"/>
<path d="M106.432 119.657C106.12 119.204 105.818 118.762 105.517 118.309C105.205 117.877 104.933 117.495 104.702 117.153C105.084 117.062 105.416 116.972 105.648 116.861C106.06 116.64 106.432 116.338 106.744 115.916C107.055 115.483 107.206 114.96 107.206 114.327C107.206 113.542 106.955 112.949 106.412 112.406C105.698 111.682 104.139 111.682 104.139 111.682H100.579C100.639 112.134 100.669 112.657 100.7 113.18C100.72 113.723 100.73 114.276 100.73 114.86V118.701C100.73 119.275 100.71 119.848 100.7 120.381C100.669 120.924 100.649 121.447 100.589 121.879H102.118C102.057 121.427 102.037 120.894 102.027 120.371C102.007 119.828 101.997 119.275 101.997 118.701V117.283H103.586L104.642 119.073L106.271 121.879H108.011L107.327 120.924C107.045 120.542 106.754 120.109 106.432 119.647V119.657ZM104.38 116.539C103.968 116.66 103.495 116.72 102.993 116.72H101.997V112.255H103.546C104.089 112.285 104.23 112.305 104.581 112.406C104.923 112.516 105.185 112.717 105.416 113.009C105.668 113.301 105.788 113.763 105.788 114.337C105.788 114.97 105.668 115.463 105.406 115.815C105.145 116.157 104.803 116.388 104.39 116.529L104.38 116.539Z" fill="#EBF0EE"/>
<path d="M8.34721 113.844C8.34721 113.844 8.3271 113.824 8.30698 113.794C8.28687 113.763 8.2567 113.723 8.22653 113.693L8.17624 113.623C8.17624 113.623 8.10585 113.522 8.05556 113.482L7.82425 113.23C7.82425 113.23 7.78402 113.18 7.75385 113.16C7.72368 113.13 7.70357 113.11 7.6734 113.09C7.64323 113.059 7.603 113.019 7.57283 112.989C7.48232 112.909 7.38175 112.828 7.29124 112.758C7.2309 112.707 7.17056 112.667 7.11021 112.627L6.96942 112.526C6.96942 112.526 6.88896 112.476 6.83868 112.446C6.79845 112.416 6.74817 112.386 6.72805 112.376L6.58726 112.295C6.58726 112.295 6.55709 112.275 6.53697 112.265C6.51686 112.265 6.49674 112.245 6.47663 112.225C6.44646 112.205 6.41629 112.195 6.38612 112.174L6.32578 112.144C6.32578 112.144 6.26544 112.114 6.24532 112.104L6.16487 112.064H6.1347C6.1347 112.064 6.09447 112.034 6.07436 112.024C6.03413 112.014 6.00396 111.993 5.98384 111.993C5.96373 111.983 5.94362 111.973 5.89333 111.963C5.83299 111.943 5.78271 111.923 5.72236 111.913C5.64191 111.883 5.56145 111.863 5.50111 111.853L5.45083 111.832H5.44077C5.3402 111.802 5.22958 111.782 5.08878 111.762C5.04855 111.762 5.00833 111.752 4.95804 111.742C4.8977 111.742 4.83736 111.722 4.77702 111.712C4.72673 111.712 4.67645 111.712 4.61611 111.702C4.59599 111.702 4.57588 111.702 4.56582 111.702H4.41497C4.34457 111.692 4.27417 111.682 4.20378 111.682H0V120.703H1.54876V112.245H4.34457C4.34457 112.245 4.39486 112.245 4.41497 112.255C4.46525 112.255 4.51554 112.255 4.56582 112.275C4.71668 112.295 4.8273 112.325 4.91781 112.345C4.91781 112.345 5.06867 112.386 5.09884 112.406L5.15918 112.426C5.21952 112.446 5.2698 112.466 5.32009 112.486L5.36032 112.506C5.36032 112.506 5.4106 112.526 5.43072 112.547L5.481 112.567C5.481 112.567 5.50111 112.577 5.51117 112.577C5.53128 112.577 5.5514 112.597 5.5514 112.597C5.58157 112.607 5.60168 112.627 5.63185 112.647L5.68214 112.677C5.68214 112.677 5.71231 112.697 5.73242 112.707C5.75253 112.717 5.77265 112.728 5.79276 112.748L5.82293 112.768C5.82293 112.768 5.8531 112.788 5.88327 112.808C5.89333 112.808 5.90339 112.818 5.91345 112.828L5.93356 112.848C5.93356 112.848 5.9939 112.888 6.02407 112.919L6.12464 112.999L6.15481 113.019L6.18498 113.039C6.18498 113.039 6.24532 113.09 6.26544 113.12L6.31572 113.17C6.31572 113.17 6.38612 113.24 6.44646 113.291C6.48669 113.331 6.52691 113.371 6.55709 113.411L6.66771 113.542C6.66771 113.542 6.68782 113.572 6.69788 113.592L6.718 113.623C6.718 113.623 6.75822 113.673 6.77834 113.703L6.87891 113.854C6.87891 113.854 6.90908 113.894 6.92919 113.924C6.9493 113.954 6.95936 113.975 6.98953 114.025C7.00964 114.055 7.02976 114.085 7.03982 114.115C7.05993 114.146 7.06999 114.176 7.0901 114.206C7.10016 114.236 7.12027 114.256 7.12027 114.266C7.14038 114.306 7.1605 114.347 7.18061 114.397L7.27112 114.598C7.27112 114.598 7.29124 114.638 7.30129 114.669L7.36164 114.809C7.36164 114.809 7.38175 114.86 7.39181 114.9C7.40186 114.93 7.41192 114.95 7.42198 114.98V115.01L7.44209 115.031C7.44209 115.031 7.4622 115.101 7.47226 115.131C7.48232 115.171 7.49237 115.202 7.51249 115.242V115.272C7.65329 115.755 7.72368 116.268 7.72368 116.78C7.72368 116.881 7.72368 116.992 7.72368 117.102V117.122C7.72368 117.122 7.72368 117.183 7.72368 117.213V117.273C7.72368 117.273 7.71363 117.344 7.70357 117.394C7.70357 117.454 7.70357 117.515 7.68346 117.565C7.68346 117.585 7.68346 117.615 7.68346 117.635V117.676C7.68346 117.676 7.66334 117.736 7.66334 117.756V117.836C7.66334 117.836 7.64323 117.867 7.64323 117.887V117.927V117.937V117.987C7.603 118.088 7.58289 118.188 7.55272 118.299L7.51249 118.44C7.47226 118.571 7.42198 118.691 7.37169 118.822C7.35158 118.862 7.34152 118.913 7.32141 118.953C7.18061 119.285 6.99959 119.596 6.78839 119.888C6.76828 119.918 6.74817 119.948 6.718 119.979C6.63754 120.089 6.53697 120.2 6.42635 120.32C6.38612 120.361 6.35595 120.401 6.31572 120.431C5.98384 120.743 5.63185 120.974 5.24969 121.115L5.20946 121.135C5.04855 121.195 4.88764 121.246 4.73679 121.276C4.70662 121.276 4.66639 121.286 4.62616 121.296H4.55577C4.42503 121.326 4.30434 121.326 4.19372 121.326H0V121.889H4.1736C4.244 121.889 4.32446 121.889 4.39486 121.889C4.49543 121.889 4.60605 121.889 4.70662 121.869C4.78707 121.869 4.86753 121.849 4.93793 121.839C5.11895 121.819 5.27986 121.779 5.44077 121.739C5.51117 121.718 5.59162 121.698 5.67208 121.668C5.80282 121.628 5.9235 121.588 6.05424 121.537C6.12464 121.507 6.19504 121.477 6.24532 121.457L6.28555 121.437C6.28555 121.437 6.32578 121.417 6.34589 121.407C6.366 121.407 6.38612 121.387 6.40623 121.376L6.44646 121.356C6.44646 121.356 6.5068 121.326 6.53697 121.316C6.69788 121.236 6.85879 121.135 7.04987 121.004C7.13033 120.954 7.20073 120.894 7.30129 120.823C7.31135 120.823 7.32141 120.803 7.33147 120.803C7.39181 120.753 7.45215 120.713 7.49237 120.662L7.54266 120.622C7.61306 120.562 7.68346 120.491 7.75385 120.431C7.82425 120.361 7.88459 120.3 7.95499 120.21C8.01533 120.139 8.07567 120.079 8.1159 120.019C8.13601 119.999 8.14607 119.979 8.17624 119.938C8.22653 119.878 8.26676 119.818 8.29693 119.777C8.29693 119.777 8.31704 119.757 8.33715 119.727L8.35727 119.687C8.35727 119.687 8.39749 119.627 8.42766 119.586C8.44778 119.556 8.46789 119.526 8.47795 119.496C8.51818 119.435 8.54835 119.385 8.57852 119.325L8.59863 119.285C8.59863 119.285 8.63886 119.214 8.65897 119.184C8.70926 119.084 8.75954 118.993 8.79977 118.892C8.81988 118.852 8.84 118.802 8.86011 118.762L8.88022 118.732C8.9104 118.651 8.94057 118.581 8.96068 118.51C8.98079 118.46 8.99085 118.41 9.01096 118.359L9.03108 118.299L9.05119 118.229C9.05119 118.229 9.08136 118.138 9.09142 118.068C9.09142 118.028 9.11153 117.997 9.12159 117.947C9.13165 117.887 9.15176 117.826 9.16182 117.766V117.716C9.16182 117.716 9.19199 117.625 9.19199 117.595C9.19199 117.545 9.2121 117.484 9.2121 117.414C9.2121 117.364 9.22216 117.313 9.23222 117.273C9.23222 117.223 9.24227 117.173 9.24227 117.122V117.092V117.062C9.24227 116.982 9.24227 116.901 9.24227 116.811C9.24227 115.926 9.01096 115.061 8.57852 114.296C8.50812 114.156 8.41761 114.015 8.31704 113.874L8.34721 113.844Z" fill="#EBF0EE"/>
<path d="M57.6964 112.094C58.8127 112.094 59.8486 112.737 60.5526 113.844L60.5928 113.904H62.1013L61.9605 113.713C60.975 112.335 59.386 111.521 57.6964 111.521C54.8101 111.521 52.4568 113.874 52.4568 116.76C52.4568 119.646 54.8101 122 57.6964 122C59.3759 122 60.975 121.175 61.9605 119.807L62.1013 119.616H60.5928L60.5526 119.677C59.8486 120.793 58.8127 121.427 57.6964 121.427C55.675 121.427 54.0357 119.335 54.0357 116.76C54.0357 114.186 55.675 112.094 57.6964 112.094Z" fill="#EBF0EE"/>
<path d="M13.637 113.17C13.6572 112.627 13.6873 112.104 13.7477 111.692H12.1084C12.1687 112.144 12.1989 112.667 12.219 113.19C12.2492 113.733 12.2492 114.287 12.2492 114.87V118.712C12.2492 119.285 12.2492 119.858 12.219 120.391C12.1989 120.934 12.1889 121.457 12.1285 121.89H13.7376C13.6773 121.437 13.6572 120.904 13.6471 120.381C13.6169 119.838 13.6169 119.285 13.6169 118.712V114.87C13.6169 114.287 13.6169 113.713 13.6471 113.17H13.637Z" fill="#EBF0EE"/>
<path d="M71.1524 118.541C70.8406 117.796 70.5188 117.032 70.197 116.197C69.8751 115.383 69.5332 114.578 69.2114 113.754C68.9197 113.009 68.6281 112.336 68.3666 111.692H67.7732C67.0492 113.371 66.3049 115.051 65.5708 116.71C64.7964 118.42 64.022 120.15 63.2275 121.9H64.2433L65.8323 118.179H69.6237L69.6539 118.269C70.036 119.285 70.3378 120.11 70.5188 120.723C70.6998 121.326 70.8305 121.709 70.8708 121.9H72.6006C72.4497 121.578 72.2486 121.125 71.9971 120.542C71.7457 119.959 71.4742 119.295 71.1624 118.551L71.1524 118.541ZM66.0535 117.595L66.0938 117.505L67.7431 113.643H67.7732C68.0951 114.387 68.3867 115.081 68.6583 115.725C68.9197 116.378 69.151 116.962 69.3723 117.505L69.4025 117.595H66.0535Z" fill="#EBF0EE"/>
<path d="M45.1755 118.541C44.8638 117.796 44.542 117.032 44.2201 116.197C43.8983 115.383 43.5564 114.578 43.2346 113.754C42.9429 113.009 42.6513 112.336 42.3898 111.692H41.7964C41.0723 113.371 40.3281 115.051 39.594 116.71C38.8196 118.42 38.0452 120.15 37.2507 121.9H38.2665L39.8555 118.179H43.6469L43.6771 118.269C44.0592 119.285 44.3609 120.11 44.542 120.723C44.723 121.326 44.8537 121.709 44.894 121.9H46.6237C46.4729 121.578 46.2717 121.125 46.0203 120.542C45.7689 119.959 45.4974 119.295 45.1856 118.551L45.1755 118.541ZM40.0767 117.595L40.1169 117.505L41.7663 113.643H41.7964C42.1183 114.387 42.4099 115.081 42.6814 115.725C42.9429 116.378 43.1742 116.962 43.3955 117.505L43.4257 117.595H40.0767Z" fill="#EBF0EE"/>
<path d="M23.9856 118.541C23.6738 117.796 23.352 117.032 23.0302 116.197C22.7084 115.383 22.3665 114.578 22.0446 113.754C21.753 113.009 21.4613 112.336 21.1999 111.692H20.6065C19.8824 113.371 19.1382 115.051 18.404 116.71C17.6297 118.42 16.8553 120.15 16.0608 121.9H17.0765L18.6655 118.179H22.457L22.4871 118.269C22.8693 119.285 23.171 120.11 23.352 120.723C23.5331 121.326 23.6638 121.709 23.704 121.9H25.4338C25.2829 121.578 25.0818 121.125 24.8304 120.542C24.579 119.959 24.3074 119.295 23.9957 118.551L23.9856 118.541ZM18.8868 117.595L18.927 117.505L20.5763 113.643H20.6065C20.9283 114.387 21.22 115.081 21.4915 115.725C21.753 116.378 21.9843 116.962 22.2055 117.505L22.2357 117.595H18.8868Z" fill="#EBF0EE"/>
<path d="M96.8679 118.541C96.5562 117.796 96.2344 117.032 95.9125 116.197C95.5907 115.383 95.2488 114.578 94.927 113.754C94.6353 113.009 94.3437 112.336 94.0822 111.692H93.4888C92.7647 113.371 92.0205 115.051 91.2864 116.71C90.512 118.42 89.7376 120.15 88.9431 121.9H89.9589L91.5478 118.179H95.3393L95.3695 118.269C95.7516 119.285 96.0533 120.11 96.2344 120.723C96.4154 121.326 96.5461 121.709 96.5863 121.9H98.3161C98.1653 121.578 97.9641 121.125 97.7127 120.542C97.4613 119.959 97.1898 119.295 96.878 118.551L96.8679 118.541ZM91.7691 117.595L91.8093 117.505L93.4587 113.643H93.4888C93.8106 114.387 94.1023 115.081 94.3738 115.725C94.6353 116.378 94.8666 116.962 95.0879 117.505L95.118 117.595H91.7691Z" fill="#EBF0EE"/>
<path d="M117.515 118.541C117.203 117.796 116.881 117.032 116.559 116.197C116.237 115.383 115.896 114.578 115.574 113.754C115.282 113.009 114.99 112.336 114.729 111.692H114.136C113.411 113.371 112.667 115.051 111.933 116.71C111.159 118.42 110.384 120.15 109.59 121.9H110.606L112.195 118.179H115.986L116.016 118.269C116.398 119.285 116.7 120.11 116.881 120.723C117.062 121.326 117.193 121.709 117.233 121.9H118.963C118.812 121.578 118.611 121.125 118.359 120.542C118.108 119.959 117.836 119.295 117.525 118.551L117.515 118.541ZM112.416 117.595L112.456 117.505L114.105 113.643H114.136C114.457 114.387 114.749 115.081 115.021 115.725C115.282 116.378 115.513 116.962 115.735 117.505L115.765 117.595H112.416Z" fill="#EBF0EE"/>
<path d="M85.3025 111.682H84.7092L80.8473 119.667H80.7769L77.438 111.682H76.8447C76.724 112.406 76.5832 113.18 76.4324 113.995C76.2614 114.91 76.0904 115.815 75.9094 116.74C75.7384 117.686 75.5574 118.581 75.3864 119.456C75.2054 120.341 75.0344 121.135 74.8735 121.879H75.8591L77.1162 114.357H77.1866L80.2339 121.477H80.8373L84.1661 114.397H84.2264C84.3773 115.634 84.5382 116.871 84.6891 118.088C84.8298 119.305 84.9706 120.572 85.0913 121.869H86.6501C86.3686 120.19 86.1071 118.5 85.8657 116.821C85.6545 115.202 85.4936 113.482 85.2925 111.662L85.3025 111.682Z" fill="#EBF0EE"/>
<path d="M34.9778 17.3379L33.0368 15.4875L34.7767 13.647L34.1632 13.0637L32.4133 14.8941L30.8042 13.3655L32.8156 11.2535L32.2021 10.6602L29.4465 13.5465L34.2336 18.1123L34.9778 17.3379Z" fill="#EBF0EE"/>
<path d="M35.7622 11.8468C36.1343 12.3798 36.5869 12.772 37.1199 13.0335C37.6529 13.295 38.206 13.3956 38.7893 13.3453C39.3726 13.295 39.9258 13.0838 40.4588 12.7117C40.851 12.4402 41.1728 12.1184 41.4242 11.7362C41.6757 11.3641 41.8466 10.9518 41.9371 10.5193C42.0277 10.0869 42.0277 9.64436 41.9371 9.18174C41.8466 8.72918 41.6455 8.28668 41.3438 7.85423C40.9616 7.32122 40.5191 6.91894 39.9861 6.66752C39.4531 6.4161 38.91 6.31553 38.3267 6.35576C37.7535 6.40604 37.2004 6.60718 36.6673 6.97929C36.2751 7.26088 35.9533 7.5827 35.7019 7.96486C35.4505 8.34702 35.2795 8.7493 35.189 9.18174C35.0985 9.61419 35.0985 10.0567 35.189 10.5093C35.2795 10.9618 35.4806 11.4043 35.7823 11.8368L35.7622 11.8468ZM36.2047 8.64873C36.3556 8.29674 36.5969 8.00509 36.9389 7.76372C37.311 7.50224 37.7032 7.3715 38.1256 7.35139C38.548 7.33128 38.9603 7.43185 39.3726 7.64304C39.785 7.85423 40.1571 8.19617 40.4789 8.65878C40.7705 9.07112 40.9516 9.48345 41.022 9.89578C41.0924 10.3081 41.0622 10.6903 40.9113 11.0423C40.7605 11.3943 40.5191 11.696 40.1571 11.9474C39.8051 12.1988 39.4129 12.3295 38.9905 12.3497C38.5681 12.3698 38.1558 12.2692 37.7434 12.058C37.3311 11.8368 36.969 11.5049 36.6472 11.0423C36.3556 10.6199 36.1746 10.2075 36.1042 9.79521C36.0338 9.38288 36.074 9.00072 36.2148 8.64873H36.2047Z" fill="#EBF0EE"/>
<path d="M44.5419 9.96626L45.4571 9.60422L43.4357 4.78697L49.0876 8.16608L49.1279 8.14597L49.2485 8.10574L49.4899 8.00517L49.9022 7.84426L47.4584 1.68945L46.5432 2.0515L48.4742 6.61732L43.0937 3.41924L42.7116 3.57009L42.1082 3.81145L44.5419 9.96626Z" fill="#EBF0EE"/>
<path d="M53.764 7.0499C54.458 6.94933 55.0211 6.75825 55.4737 6.48671C55.9263 6.21518 56.2682 5.89336 56.5196 5.5112C56.771 5.13909 56.932 4.73682 57.0024 4.30437C57.0828 3.87193 57.0828 3.45959 57.0225 3.05732C56.9521 2.56453 56.7912 2.14214 56.5498 1.78009C56.3084 1.41805 56.0067 1.1264 55.6447 0.915203C55.2826 0.704008 54.8502 0.553155 54.3876 0.482757C53.9149 0.412359 53.412 0.412359 52.8891 0.492814L50.7671 0.814634L51.7627 7.3516L53.764 7.0499ZM52.8388 1.29736C53.4925 1.1968 54.0255 1.23702 54.458 1.40799C54.8904 1.57896 55.2323 1.84044 55.4637 2.19243C55.705 2.54442 55.8559 2.94669 55.9263 3.39925C55.9766 3.72107 55.9766 4.04289 55.9464 4.3446C55.9062 4.6463 55.8056 4.93795 55.6447 5.19943C55.4838 5.46091 55.2525 5.69222 54.9407 5.87324C54.6289 6.05427 54.2267 6.18501 53.7339 6.26546L52.698 6.42637L51.9437 1.43816L52.8287 1.30742L52.8388 1.29736Z" fill="#EBF0EE"/>
<path d="M60.2104 4.53565L62.6744 4.67645L63.2878 6.73811L64.4544 6.80851L62.2721 0.0502844L61.3468 0L58.2896 6.45652L59.3757 6.51686L60.2104 4.53565ZM61.6284 1.17665L62.4129 3.81156L60.5523 3.71099L61.6284 1.17665Z" fill="#EBF0EE"/>
<path d="M66.5262 7.32118L67.6023 7.5726L68.9197 1.9508L71.1624 2.48382L71.3535 1.65915L68.3163 0.945115L68.0347 0.874717L65.8122 0.361816L65.6211 1.17642L67.8437 1.69938L66.5262 7.32118Z" fill="#EBF0EE"/>
<path d="M73.5429 2.51692L71.1187 8.67432L72.1574 9.08327L74.5816 2.92587L73.5429 2.51692Z" fill="#EBF0EE"/>
<path d="M76.5027 11.4045C76.915 11.656 77.3374 11.8169 77.7799 11.8873C78.2224 11.9677 78.6649 11.9577 79.0973 11.8671C79.5298 11.7766 79.9321 11.5956 80.3142 11.3241C80.6964 11.0525 81.0182 10.7006 81.2897 10.248C81.6317 9.68481 81.8026 9.11156 81.8227 8.52826C81.8429 7.94497 81.7121 7.39184 81.4305 6.88899C81.1489 6.38615 80.7366 5.96376 80.1935 5.63188C79.7812 5.38046 79.3488 5.21955 78.9063 5.14915C78.4537 5.07876 78.0112 5.07876 77.5787 5.16927C77.1463 5.25978 76.734 5.4408 76.3619 5.71234C75.9797 5.98387 75.6579 6.33587 75.3863 6.78843C75.0545 7.34155 74.8734 7.9148 74.8533 8.50815C74.8332 9.09145 74.964 9.64458 75.2455 10.1575C75.5271 10.6704 75.9395 11.0928 76.5027 11.4246V11.4045ZM76.4926 7.25104C76.7541 6.8186 77.0658 6.47666 77.4078 6.24535C77.7598 6.01405 78.1218 5.89336 78.504 5.88331C78.8861 5.88331 79.2582 5.97382 79.6102 6.19507C79.9924 6.42638 80.284 6.72808 80.4651 7.11025C80.6562 7.48235 80.7366 7.90474 80.7064 8.36735C80.6763 8.82997 80.5153 9.30264 80.2237 9.78537C79.9622 10.2178 79.6605 10.5497 79.3085 10.781C78.9565 11.0123 78.5945 11.133 78.2123 11.1431C77.8302 11.1531 77.448 11.0525 77.0759 10.8212C76.7038 10.5899 76.4222 10.2983 76.2311 9.91611C76.04 9.54401 75.9696 9.12162 75.9998 8.659C76.03 8.19639 76.1909 7.72371 76.4825 7.24098L76.4926 7.25104Z" fill="#EBF0EE"/>
<path d="M80.646 14.0392L81.35 14.7231L84.9202 10.9216L84.1357 17.4586L84.1659 17.4887L84.7593 18.072L89.3854 13.3453L88.6814 12.6514L85.3023 16.2719L86.0365 10.0567L85.8756 9.90586L85.7046 9.73489L85.5336 9.56392L85.2722 9.3125L80.646 14.0392Z" fill="#EBF0EE"/>
</g>
<defs>
<clipPath id="clip0_4053_361">
<rect width="118.953" height="122" fill="white"/>
</clipPath>
</defs>
</svg>
