<svg width="90" height="90" viewBox="0 0 90 90" fill="none" xmlns="http://www.w3.org/2000/svg">
<g clip-path="url(#clip0_4068_812)">
<path d="M45.0046 89.5474C69.6049 89.5474 89.5474 69.6049 89.5474 45.0047C89.5474 20.4044 69.6049 0.461914 45.0046 0.461914C20.4043 0.461914 0.461853 20.4044 0.461853 45.0047C0.461853 69.6049 20.4043 89.5474 45.0046 89.5474Z" stroke="#F06419" stroke-miterlimit="10"/>
<path d="M45.0046 5.71777C23.3152 5.71777 5.72717 23.3058 5.72717 44.9952C5.72717 66.6846 23.3152 84.2726 45.0046 84.2726C66.694 84.2726 84.282 66.6939 84.282 44.9952C84.282 23.2965 66.694 5.71777 45.0046 5.71777ZM22.7887 47.7018L18.6041 45.4848C18.3732 45.3555 18.29 45.0783 18.4101 44.8382L25.9756 30.6126C26.031 30.5017 26.1326 30.4186 26.2527 30.3816C26.2989 30.3724 26.3451 30.3632 26.3912 30.3632C26.4651 30.3632 26.539 30.3816 26.6129 30.4186L30.7882 32.6448C30.8991 32.7002 30.9822 32.8018 31.0192 32.9219C31.0561 33.042 31.0469 33.1713 30.9822 33.2822L23.4168 47.5078C23.2967 47.7387 23.0103 47.8218 22.7794 47.7018H22.7887ZM59.3226 51.2674C59.184 51.4337 58.676 51.7662 56.8839 51.4429L50.5563 47.4985C50.2422 47.323 49.845 47.4339 49.651 47.7387C49.457 48.0435 49.5402 48.45 49.8358 48.6532L55.9971 52.496C56.0987 53.041 55.9602 53.6137 55.6184 54.0479C55.2119 54.4728 54.3713 54.6298 53.2074 54.5097L48.2931 51.4983C48.1361 51.406 47.9513 51.369 47.7758 51.4152C47.6003 51.4614 47.4433 51.5722 47.3509 51.7293C47.2585 51.8863 47.2308 52.0711 47.2678 52.2466C47.314 52.4221 47.4248 52.5791 47.5818 52.6715L52.2744 55.5443C52.2744 55.9877 52.0897 56.4126 51.7756 56.7175C51.323 57.0408 50.5009 56.8837 49.8727 56.6898L46.8706 55.3688C46.7043 55.2949 46.5103 55.2857 46.344 55.3503C46.1685 55.415 46.03 55.5443 45.9561 55.7198C45.8822 55.8861 45.8822 56.0801 45.9561 56.2464C46.0207 56.4219 46.1593 56.5512 46.3256 56.6251L48.912 57.7613C48.7735 58.8051 48.404 59.4795 47.8035 59.7473C44.9584 61.0406 37.1066 55.027 31.906 51.0457C29.1994 48.9765 26.9732 47.2768 25.5044 46.5101L30.9453 36.2751C32.4233 37.2081 34.1137 37.9655 35.9981 37.2173C38.2521 36.3213 40.5891 36.4506 43.1017 37.6145C40.9863 39.0278 38.9172 40.8846 38.1966 42.6027C37.781 43.4064 37.8179 44.3763 38.2982 45.143C39.5545 46.8889 41.8731 47.4893 43.813 46.584C44.6351 46.1129 45.3464 45.4756 45.9006 44.7088C46.5195 43.9514 46.9999 43.3602 47.8128 43.2493C48.8196 43.1108 50.3161 43.7112 52.3853 45.0876H52.4038C57.0132 47.9974 58.676 49.2259 59.2302 49.7432C59.4888 50.473 59.5258 51.018 59.3226 51.2674ZM59.9322 48.5424C57.7522 46.8889 55.4891 45.3555 53.1428 43.9514C50.7503 42.3625 49.0044 41.7067 47.628 41.9007C46.2886 42.0854 45.5219 43.0276 44.8476 43.8498C44.4134 44.4687 43.8592 44.986 43.2033 45.3739C41.8731 45.9836 40.3028 45.5772 39.4344 44.404C39.3605 44.2839 39.1204 43.9329 39.4529 43.1477C40.5429 40.552 45.993 37.1065 47.9883 36.7185C49.1707 36.5522 50.3808 36.5707 51.5632 36.7924C53.6231 37.0603 55.9509 37.3651 59.027 35.9056L64.514 46.233L59.9322 48.5424ZM71.3959 45.1707L67.2206 47.3969C66.9896 47.517 66.7033 47.4339 66.5832 47.2029L59.0177 32.9773C58.8977 32.7464 58.9808 32.46 59.2117 32.34L63.387 30.123C63.4517 30.086 63.5348 30.0676 63.6087 30.0676C63.7842 30.0676 63.9505 30.1599 64.0336 30.317L71.5991 44.5426C71.7192 44.7735 71.6268 45.0599 71.4051 45.18L71.3959 45.1707Z" fill="#F06419"/>
</g>
<defs>
<clipPath id="clip0_4068_812">
<rect width="90" height="90" fill="white"/>
</clipPath>
</defs>
</svg>
