<svg width="90" height="90" viewBox="0 0 90 90" fill="none" xmlns="http://www.w3.org/2000/svg">
<g clip-path="url(#clip0_4068_415)">
<path d="M0.461859 45.0047C0.461858 69.6049 20.4043 89.5474 45.0046 89.5474C69.6049 89.5474 89.5474 69.6049 89.5474 45.0047C89.5474 20.4044 69.6049 0.461913 45.0046 0.461912C20.4043 0.461911 0.46186 20.4044 0.461859 45.0047Z" stroke="#F06419" stroke-miterlimit="10"/>
<path d="M84.0093 45.2774C84.0093 23.588 66.4213 6 44.7318 6C23.0424 6 5.45441 23.588 5.45441 45.2774C5.45441 66.9668 23.0332 84.5549 44.7318 84.5549C66.4305 84.5549 84.0093 66.9669 84.0093 45.2774ZM69.3218 45.4899C69.3218 47.5129 67.6683 49.1664 65.6453 49.1664C63.6223 49.1664 61.9688 47.5129 61.9688 45.4899C61.9688 43.4669 63.6223 41.8134 65.6453 41.8134C67.6683 41.8134 69.3218 43.4669 69.3218 45.4899ZM56.2509 32.4929C56.2509 32.4929 56.2694 32.5021 56.2694 32.5113C56.2786 32.5206 56.2878 32.5298 56.2971 32.5483C59.3269 35.8553 61.1098 39.3932 61.5439 43.6147C61.5993 44.1782 61.3315 44.6216 61.1005 45.028C60.962 45.2774 60.9065 45.3513 60.8142 45.4807C60.9065 45.61 60.962 45.6839 61.1005 45.9333C61.313 46.312 61.5624 46.7277 61.5532 47.245C61.5532 47.245 61.5532 47.3097 61.5532 47.3466C61.1467 51.5496 59.1052 55.6695 56.3525 58.4777L56.334 58.4961C55.8352 58.9857 55.1516 59.2906 54.4034 59.2906C52.8792 59.2906 51.6414 58.0528 51.6414 56.5286C51.6414 55.7619 51.9555 55.0598 52.4728 54.5518C53.5258 53.4895 54.3942 52.1131 55.0223 50.6721L52.1033 51.9561C52.0202 52.0207 51.9185 52.0577 51.8169 52.0577C51.549 52.0577 51.3366 51.8545 51.3366 51.5866C51.3366 51.5866 51.3366 51.5773 51.3366 51.5681L51.3366 39.5041C51.2812 39.3008 51.3643 39.0976 51.5398 38.9868C51.7153 38.8667 51.9463 38.8759 52.1125 39.0052L55.0408 40.2985C54.3849 38.802 53.4704 37.4811 52.3158 36.3449C52.3158 36.3449 52.3065 36.3356 52.2973 36.3264C51.8631 35.8368 51.5952 35.1902 51.5952 34.4881C51.5952 32.964 52.833 31.7262 54.3572 31.7262C55.0962 31.7262 55.7705 32.0125 56.2601 32.4836L56.2509 32.4929ZM29.2038 28.1236C28.1877 26.3685 28.7973 24.1145 30.5524 23.0984C32.3075 22.0823 34.5615 22.692 35.5776 24.4471C35.827 24.8812 35.984 25.3524 36.0395 25.8327C36.0579 25.962 36.0672 26.1006 36.0672 26.2299C36.0856 27.5231 35.4205 28.7794 34.2289 29.4722C32.4738 30.4883 30.2199 29.8787 29.2038 28.1236ZM26.0446 42.9311C25.6751 42.2845 25.5919 41.5455 25.7582 40.8804C25.7582 40.8804 25.7582 40.8804 25.7582 40.8712C25.7582 40.862 25.7582 40.8527 25.7582 40.8342C25.7582 40.8158 25.7582 40.8065 25.7767 40.7881C26.839 37.01 29.37 33.2041 32.7971 30.7562C33.259 30.4237 33.7763 30.4422 34.2474 30.4329C34.5338 30.4329 34.6261 30.4422 34.7832 30.4514C34.8571 30.3128 34.8848 30.2205 35.0326 29.9803C35.2727 29.5831 35.5222 29.1212 36.0395 28.8903C39.9192 27.1536 43.8728 26.9319 48.2421 27.9019C48.2421 27.9019 48.2513 27.9019 48.2605 27.9019C48.2882 27.9019 48.316 27.9111 48.3344 27.9204C48.981 28.1143 49.563 28.5485 49.9325 29.1859C50.1265 29.5184 50.2373 29.8694 50.2835 30.2205C50.302 30.3498 50.3112 30.4883 50.302 30.6177C50.2743 31.5506 49.7847 32.4559 48.9164 32.9547C48.316 33.2965 47.6416 33.3981 47.0042 33.278C47.0042 33.278 46.9858 33.278 46.9765 33.278C46.9765 33.278 46.9581 33.278 46.9488 33.278C45.3877 32.8439 43.7804 32.7053 42.1638 32.8901L44.778 34.8022C44.9351 34.8761 45.0367 35.0331 45.0367 35.2087C45.0367 35.2364 45.0367 35.2548 45.0367 35.2826C45.0367 35.2826 45.0367 35.2918 45.0367 35.301C45.0367 35.301 45.0367 35.3103 45.0367 35.3195C45.009 35.4858 44.8981 35.6243 44.7411 35.6798L34.3213 41.6933C34.2104 41.7857 34.0534 41.8226 33.9148 41.7949C33.6747 41.7487 33.5084 41.527 33.5269 41.2776L33.1759 38.0907C32.2429 39.3655 31.4854 40.7973 31.0882 42.2476C30.9127 42.9404 30.4601 43.5593 29.795 43.9472C28.474 44.7047 26.7836 44.2521 26.0169 42.9404L26.0446 42.9311ZM37.268 45.3236C37.268 45.3236 37.9331 43.8087 39.2264 42.2937C40.5196 40.7788 42.4779 39.2085 45.0736 39.2085C45.9974 39.2085 46.9119 39.578 47.6139 40.1784C48.316 40.7788 48.8148 41.6287 48.8148 42.5986C48.8148 43.8179 48.1127 44.8987 47.1428 45.5176C48.1127 46.1457 48.8148 47.2173 48.8148 48.4274C48.8148 49.3973 48.316 50.2564 47.6139 50.8476C46.9119 51.448 46.0066 51.8175 45.0736 51.8175C42.4779 51.8175 40.5104 50.2471 39.2264 48.7322C37.9331 47.2173 37.268 45.7023 37.268 45.7023C37.2126 45.5823 37.2126 45.4437 37.268 45.3236ZM34.2566 60.593C33.7855 60.593 33.2682 60.593 32.8064 60.2697C29.3793 57.8218 26.839 54.016 25.7859 50.2379C25.7859 50.2194 25.7767 50.2102 25.7675 50.1917C25.7675 50.1917 25.7675 50.1825 25.7675 50.1732C25.7675 50.1732 25.7675 50.1548 25.7675 50.1455C25.6012 49.4712 25.6843 48.7415 26.0538 48.0948C26.8113 46.7739 28.511 46.3213 29.8227 47.0787C30.4878 47.4667 30.9404 48.0948 31.1159 48.7876C31.5131 50.2287 32.2614 51.6697 33.2036 52.9445L33.5546 49.7576C33.5361 49.5451 33.6562 49.3511 33.8502 49.268C33.8502 49.268 33.8594 49.268 33.8687 49.268C34.0349 49.2033 34.2197 49.2403 34.3582 49.3511L44.7596 55.3554C44.9351 55.4201 45.0459 55.5771 45.0644 55.7619C45.0644 55.7619 45.0644 55.7711 45.0644 55.7804C45.0644 55.7804 45.0644 55.7896 45.0644 55.7988C45.0644 55.7988 45.0644 55.8081 45.0644 55.8173C45.0644 55.9928 44.9628 56.1591 44.8057 56.233L42.1916 58.1544C43.8081 58.3391 45.4154 58.2006 46.9765 57.7664C46.995 57.7664 47.0135 57.7572 47.0412 57.7572C47.6693 57.6371 48.3529 57.7294 48.9533 58.0805C49.8217 58.5793 50.3112 59.4846 50.3297 60.4175C50.3297 60.5469 50.3297 60.6854 50.3112 60.8147C50.265 61.175 50.1542 61.526 49.9602 61.8493C49.5907 62.4867 48.9995 62.9209 48.3437 63.1149C48.3437 63.1149 48.3252 63.1149 48.316 63.1149C48.2975 63.1149 48.279 63.1241 48.2605 63.1333C43.8912 64.1033 39.9376 63.8723 36.0672 62.1449C35.5499 61.914 35.3005 61.4521 35.0603 61.0549C34.9125 60.8055 34.8755 60.7224 34.8109 60.5838C34.6538 60.593 34.5615 60.6115 34.2751 60.6023L34.2566 60.593ZM30.5432 67.9275C28.7881 66.9114 28.1877 64.6575 29.1945 62.9024C30.2106 61.1473 32.4646 60.5468 34.2197 61.5537C35.4113 62.2465 36.0764 63.5028 36.0579 64.7961C36.0579 64.9254 36.0487 65.0639 36.0302 65.1933C35.9748 65.6644 35.8178 66.1355 35.5683 66.5789C34.5522 68.334 32.2983 68.9344 30.5432 67.9275Z" fill="#F06419"/>
</g>
<defs>
<clipPath id="clip0_4068_415">
<rect width="90" height="90" fill="white"/>
</clipPath>
</defs>
</svg>
