<svg width="111" height="111" viewBox="0 0 111 111" fill="none" xmlns="http://www.w3.org/2000/svg">
<g clip-path="url(#clip0_4853_516)">
<path d="M55.5056 109.947C85.5726 109.947 109.947 85.5726 109.947 55.5056C109.947 25.4386 85.5726 1.06445 55.5056 1.06445C25.4386 1.06445 1.06445 25.4386 1.06445 55.5056C1.06445 85.5726 25.4386 109.947 55.5056 109.947Z" stroke="#0A4BA5" stroke-miterlimit="10"/>
<path d="M60.6426 36.6284C60.6426 36.5155 60.5297 36.3914 60.4055 36.3914H50.5379C50.425 36.3914 50.3008 36.5043 50.3008 36.6284V41.5284H60.6426V36.6284Z" fill="#0A4BA5"/>
<path d="M55.5057 7.48853C28.9965 7.48853 7.5 28.985 7.5 55.4943C7.5 82.0036 28.9965 103.5 55.5057 103.5C82.015 103.5 103.511 82.0149 103.511 55.4943C103.511 28.9737 82.015 7.48853 55.5057 7.48853ZM34.5286 47.7266C34.5286 44.2944 37.306 41.5848 40.6705 41.5848H45.9317V36.6849C45.9317 34.0881 47.9978 32.022 50.5945 32.022H60.4621C63.0589 32.022 65.125 34.0881 65.125 36.6849V41.5848H70.262C73.6942 41.5848 76.4038 44.3622 76.4038 47.7266V54.1056C76.2909 55.4604 75.1055 56.5894 73.6829 56.5894H37.227C35.8044 56.5894 34.6302 55.5281 34.5061 54.1056V47.7266H34.5286ZM76.4716 67.4054C76.4716 70.8376 73.6942 73.5472 70.3297 73.5472H40.7269C37.2947 73.5472 34.5851 70.7699 34.5851 67.4054V60.4958C35.4093 60.8458 36.3012 61.0265 37.306 61.0265H73.7619C74.7103 61.0265 75.6474 60.8458 76.4829 60.4958V67.4054H76.4716Z" fill="#0A4BA5"/>
</g>
<defs>
<clipPath id="clip0_4853_516">
<rect width="110" height="110" fill="white" transform="translate(0.5 0.5)"/>
</clipPath>
</defs>
</svg>
