<svg width="47" height="26" viewBox="0 0 47 26" fill="none" xmlns="http://www.w3.org/2000/svg">
<path d="M3.00651 6.59531C6.15936 7.62217 18.1721 12.1772 22.642 22.9724C20.9391 18.6016 16.323 9.50474 5.84008 3.73854C6.51854 3.13296 7.22361 2.56688 7.95528 2.04028C7.98189 2.01395 8.00849 2.00079 8.0351 1.97446C8.71356 1.48736 9.43193 1.03976 10.1636 0.618484C10.2301 0.578989 10.2966 0.539494 10.3631 0.5C12.1724 1.86914 22.5754 10.1366 23.48 22.0245C24.3714 10.1366 34.7744 1.86914 36.5836 0.5C36.6235 0.513165 36.6502 0.539493 36.6901 0.565823C37.475 1.01343 38.2199 1.48736 38.9516 2.00079C39.7099 2.54055 40.4416 3.1198 41.1333 3.73854C30.6637 9.50474 26.0209 18.6016 24.3314 22.9724C28.8013 12.1772 40.8007 7.62217 43.9669 6.59531C45.1243 7.97762 46.1353 9.49157 47 11.0977C40.3351 12.2562 35.0937 15.034 31.2624 17.8512C31.2225 17.8776 31.156 17.9171 31.116 17.9566C30.5972 18.3252 30.1183 18.7069 29.6793 19.0756C29.5862 19.1414 29.5197 19.2204 29.4399 19.273C28.9077 19.7075 28.4288 20.1419 27.9765 20.5632L27.91 20.629C25.4356 22.867 24.0122 24.7891 23.6264 25.342C23.5466 25.4473 23.5067 25.5 23.5067 25.5C23.5067 25.5 23.5067 25.4868 23.4934 25.4868C23.48 25.4868 23.48 25.4605 23.48 25.4605C23.4401 25.3947 23.3736 25.3025 23.2539 25.1577C22.8149 24.5653 21.8172 23.2751 20.2341 21.7217C19.8882 21.3531 19.4891 20.945 19.0767 20.6027L19.0235 20.55C18.5446 20.1024 18.0125 19.6417 17.4404 19.1809C17.4005 19.1414 17.3473 19.1019 17.3074 19.0624C17.1211 18.9176 16.9482 18.7596 16.7487 18.6148C16.4294 18.3647 16.0968 18.1014 15.7376 17.8512C12.0659 15.1524 7.09058 12.48 0.798195 11.2425C0.532131 11.1767 0.26606 11.1372 0 11.0845C0.851398 9.47841 1.87575 7.96445 3.03312 6.58215L3.00651 6.59531Z" fill="#F06419"/>
</svg>
