<svg width="550" height="61" viewBox="0 0 550 61" fill="none" xmlns="http://www.w3.org/2000/svg">
<g clip-path="url(#clip0_4296_1801)">
<path d="M391.752 26.6845L393.161 59.9351H399.338L397.179 24.2859C395.32 24.9455 393.521 25.755 391.752 26.6845Z" fill="black"/>
<path d="M346.778 59.9351H352.955L354.334 26.6845C352.565 25.755 350.766 24.9455 348.907 24.2859L346.778 59.9351Z" fill="black"/>
<path d="M142.148 34.0002C143.347 32.5611 144.936 30.852 146.705 28.9931C148.474 27.1342 150.483 25.2153 152.552 23.2665C154.68 21.2576 156.779 19.3387 158.758 17.4798C160.767 15.6809 162.476 14.1218 164.035 12.6826H156.809C154.68 15.1712 152.462 17.5998 150.093 20.1783C147.665 22.8167 145.296 25.2453 142.957 27.6739C140.589 30.0425 138.31 32.1713 136.181 34.0302C135.971 34.2401 135.672 34.45 135.402 34.5399C135.042 34.6898 134.832 34.6898 134.622 34.6898V27.4041C134.622 24.6756 134.682 22.0372 134.772 19.5486C134.832 17.0601 134.982 14.6315 135.282 12.6826H128.086C128.386 14.7514 128.506 17.18 128.596 19.6086C128.746 22.0971 128.806 24.6756 128.806 27.4041V45.1837C128.806 47.8222 128.746 50.4606 128.596 52.9792C128.536 55.4677 128.446 57.8963 128.176 59.9051H135.252C134.952 57.8363 134.892 55.3478 134.832 52.9192C134.772 50.4307 134.682 47.8522 134.682 45.2137V35.7992C135.072 35.8891 135.012 35.8591 135.312 35.9191C135.552 35.9791 135.911 36.2189 136.031 36.3688C136.751 37.0884 137.89 38.2877 139.449 40.0867C141.008 41.8856 142.747 43.9544 144.666 46.2331C146.585 48.5118 148.534 50.8804 150.513 53.309C152.432 55.6776 154.291 57.8663 155.94 59.9351H164.934L142.148 34.1501V34.0002Z" fill="black"/>
<path d="M492.103 49.5611C490.664 47.4923 489.255 45.4235 487.876 43.3547C486.437 41.3459 485.147 39.5769 484.098 37.9879C485.897 37.5681 487.396 37.1184 488.445 36.6387C490.364 35.6492 492.073 34.2101 493.512 32.2912C494.952 30.2824 495.641 27.8538 495.641 24.9455C495.641 21.3176 494.472 18.5892 491.983 16.0706C488.655 12.7426 481.459 12.7426 481.459 12.7426H464.999C465.299 14.8114 465.419 17.2399 465.569 19.6685C465.629 22.1571 465.719 24.7356 465.719 27.464V45.2436C465.719 47.8821 465.659 50.5206 465.569 53.0391C465.419 55.5277 465.359 57.9562 465.059 59.9651H472.135C471.835 57.8963 471.775 55.4077 471.715 52.9791C471.655 50.4906 471.565 47.9121 471.565 45.2736V38.7074H478.881L483.768 46.9826L491.294 59.9651H499.359L496.211 55.5277C494.922 53.7287 493.572 51.7499 492.073 49.5911L492.103 49.5611ZM482.629 35.1395C480.71 35.7092 478.551 36.009 476.213 36.009H471.625V15.381H478.791C481.28 15.5009 481.939 15.5909 483.588 16.1006C485.147 16.6103 486.347 17.5398 487.426 18.889C488.565 20.2382 489.135 22.3969 489.135 25.0354C489.135 27.9737 488.565 30.2524 487.336 31.9014C486.107 33.4605 484.548 34.5399 482.629 35.1995V35.1395Z" fill="black"/>
<path d="M38.6175 22.7268C38.6175 22.7268 38.5276 22.6069 38.4077 22.4569C38.2877 22.307 38.1678 22.1271 38.0479 21.9772L37.808 21.6474C37.6581 21.4076 37.4782 21.1977 37.2683 20.9878L36.1889 19.8185C36.1889 19.8185 35.9791 19.6086 35.8591 19.4887C35.7392 19.3687 35.6193 19.2488 35.4993 19.1289C35.3494 18.979 35.1695 18.8291 35.0196 18.6791C34.5699 18.2894 34.1501 17.9296 33.7304 17.6298C33.4605 17.4199 33.1907 17.21 32.9208 17.0301L32.2612 16.5804C32.0813 16.4604 31.9014 16.3405 31.6316 16.1906C31.4217 16.0707 31.2418 15.9208 31.0919 15.8908L30.4323 15.531C30.4323 15.531 30.2824 15.441 30.1924 15.411C30.1025 15.3511 30.0125 15.3211 29.8926 15.2611C29.7427 15.1712 29.5928 15.1112 29.4429 15.0513L29.173 14.9013C29.173 14.9013 28.9032 14.7814 28.7833 14.7214L28.3935 14.5416L28.2436 14.4816C28.2436 14.4816 28.0637 14.3916 27.9437 14.3617C27.7638 14.3017 27.6139 14.2417 27.494 14.2117C27.4041 14.1518 27.2841 14.1218 27.0742 14.0618C26.8044 13.9719 26.5346 13.852 26.2947 13.822C25.9349 13.702 25.5451 13.5821 25.2453 13.5221L25.0055 13.4322H24.9455C24.4658 13.3123 23.9561 13.1923 23.3264 13.1024C23.1465 13.0724 22.9367 13.0424 22.7268 13.0124C22.4569 12.9825 22.1571 12.9225 21.8873 12.8925C21.6474 12.8925 21.4375 12.8625 21.1677 12.8325C21.0777 12.8325 20.9878 12.8325 20.9278 12.8325L20.2082 12.7726C19.8784 12.7726 19.5786 12.7726 19.2488 12.7726H0V54.4783H7.13585V15.2911H20.0583C20.0583 15.2911 20.2682 15.3211 20.3881 15.3511C20.628 15.3511 20.8679 15.3811 21.1077 15.411C21.7973 15.501 22.307 15.6209 22.7268 15.7409C22.7268 15.7409 23.4164 15.9507 23.5663 16.0107L23.8361 16.1006C24.106 16.1906 24.3758 16.2805 24.5557 16.3705L24.7656 16.4604C24.7656 16.4604 25.0055 16.5804 25.1254 16.6403L25.3353 16.7603C25.3353 16.7603 25.4252 16.8202 25.4852 16.8202C25.5751 16.8502 25.6651 16.9102 25.6951 16.9102C25.815 16.9701 25.9349 17.0601 26.0548 17.15L26.2947 17.27C26.2947 17.27 26.4146 17.3299 26.5046 17.3899C26.5945 17.4499 26.6845 17.5098 26.7744 17.5698L26.9243 17.6597C26.9243 17.6597 27.0742 17.7497 27.1942 17.8396C27.2541 17.8696 27.2841 17.8996 27.3141 17.9296L27.434 18.0195C27.434 18.0195 27.7039 18.2294 27.8538 18.3194L28.3335 18.6791L28.4534 18.7991L28.5734 18.919C28.5734 18.919 28.8432 19.1589 28.9632 19.2788L29.203 19.5187C29.3829 19.6686 29.5328 19.8485 29.8027 20.0883C29.9826 20.2682 30.1625 20.4781 30.3124 20.658L30.8221 21.2576C30.8221 21.2576 30.912 21.4076 30.972 21.4675L31.0619 21.5875C31.0619 21.5875 31.2418 21.8273 31.3618 21.9772L31.8115 22.6668C31.8115 22.6668 31.9614 22.8767 32.0514 22.9966C32.1413 23.1166 32.2013 23.2365 32.3512 23.4764C32.4411 23.6263 32.5311 23.7762 32.591 23.8661C32.681 24.016 32.741 24.166 32.8309 24.2559C32.8909 24.3758 32.9508 24.4958 32.9808 24.5557C33.0708 24.7656 33.1607 24.9455 33.2806 25.1554L33.7004 26.0848C33.7004 26.0848 33.7903 26.2947 33.8503 26.3847L34.1202 27.0143C34.1202 27.0143 34.2101 27.2242 34.2701 27.464C34.33 27.584 34.36 27.7039 34.39 27.8238V27.9737L34.4799 28.0637C34.4799 28.0637 34.5999 28.3635 34.6299 28.5434C34.6898 28.7233 34.7198 28.8732 34.8097 29.0831V29.233C35.4694 31.4817 35.7692 33.8203 35.7692 36.2189C35.7692 36.6987 35.7692 37.1784 35.7092 37.6881V37.808C35.7092 37.808 35.6792 38.1078 35.7092 38.1978V38.4976C35.6792 38.6775 35.6493 38.8274 35.6193 39.0673C35.6193 39.3371 35.5893 39.607 35.5293 39.8468C35.5293 39.9668 35.4993 40.0567 35.4993 40.1467V40.3265C35.4993 40.3265 35.4094 40.5964 35.4094 40.7163L35.3494 41.0761C35.3494 41.0761 35.3494 41.196 35.2895 41.316V41.5259V41.5858L35.2295 41.7957C35.1396 42.2754 35.0196 42.7252 34.8697 43.2049L34.6898 43.8645C34.5099 44.4641 34.3 45.0338 34.0602 45.6035C34.0002 45.8134 33.9103 46.0232 33.8203 46.2331C33.1607 47.7922 32.3512 49.2014 31.3618 50.5506C31.2718 50.7005 31.1519 50.8204 31.0619 50.9404C30.6722 51.4501 30.2224 51.9598 29.7127 52.4995C29.5328 52.6794 29.3829 52.8593 29.173 53.0392C27.6439 54.4783 25.9949 55.5277 24.2559 56.2173L24.046 56.3073C23.2964 56.6071 22.5769 56.787 21.8573 56.9369C21.7074 56.9669 21.5275 56.9969 21.3476 57.0268L21.0478 57.0868C20.4481 57.1768 19.9084 57.2067 19.3687 57.2067H0V59.8152H19.3088C19.6386 59.8152 19.9984 59.8152 20.3282 59.7852C20.8079 59.7852 21.2876 59.7253 21.7673 59.6653C22.1271 59.6353 22.5169 59.5754 22.8467 59.5154C23.6562 59.3955 24.4358 59.2156 25.1554 59.0357C25.5152 58.9457 25.845 58.8558 26.2347 58.7358C26.8344 58.5559 27.4041 58.3461 28.0037 58.1062C28.3335 57.9863 28.6633 57.8364 28.9032 57.7164L29.0831 57.6565C29.0831 57.6565 29.293 57.5665 29.3829 57.5066C29.4729 57.4466 29.5628 57.4166 29.6827 57.3566L29.8926 57.2667C29.8926 57.2667 30.1625 57.1168 30.2824 57.0568C31.0319 56.667 31.7815 56.2173 32.651 55.5877C33.0108 55.3478 33.3406 55.108 33.7903 54.7482C33.8503 54.7182 33.8803 54.6582 33.9103 54.6282C34.1801 54.4184 34.45 54.2085 34.6598 53.9986L34.8697 53.8187C35.1995 53.5189 35.5293 53.219 35.8292 52.9192C36.129 52.6194 36.4288 52.2896 36.7586 51.8998C37.0285 51.6 37.2983 51.2702 37.5082 51.0003C37.5981 50.9104 37.6581 50.8204 37.808 50.6405C38.0179 50.3707 38.2278 50.1009 38.3477 49.891C38.4077 49.831 38.4676 49.7711 38.5276 49.6511L38.6475 49.5012C38.6475 49.5012 38.8574 49.2014 38.9473 49.0215C39.0373 48.8716 39.1572 48.7217 39.1872 48.6317C39.3671 48.3619 39.517 48.092 39.6669 47.8222L39.7569 47.6423C39.8468 47.4924 39.9368 47.3425 40.0267 47.1626C40.2666 46.7128 40.5064 46.2631 40.6863 45.8134C40.7763 45.6035 40.8662 45.3936 40.9562 45.2137L41.0461 45.0638C41.196 44.704 41.316 44.3742 41.4359 44.0144C41.5258 43.8045 41.5858 43.5647 41.6758 43.3248L41.7657 43.055L41.8557 42.7551C41.9156 42.5453 41.9756 42.3054 42.0655 41.9756C42.0955 41.7957 42.1255 41.6158 42.1855 41.4359C42.2454 41.1661 42.3054 40.8962 42.3654 40.5964V40.3865C42.4553 40.1766 42.4853 39.9668 42.5153 39.8168C42.5752 39.547 42.6052 39.2772 42.6352 38.9773C42.6652 38.7675 42.6952 38.5276 42.7251 38.3477C42.7551 38.1078 42.7851 37.898 42.7851 37.6581V37.5082V37.3583C42.7851 36.9685 42.8151 36.6087 42.8151 36.2189C42.8151 32.1413 41.7357 28.1236 39.7269 24.5857C39.3971 23.9561 38.9773 23.2965 38.4976 22.6668L38.6175 22.7268Z" fill="black"/>
<path d="M63.0537 19.5787C63.1137 17.0901 63.2636 14.6615 63.5634 12.7126H56.0078C56.3076 14.7814 56.4276 17.21 56.5175 19.6386C56.6674 22.1272 56.6674 24.7057 56.6674 27.4341V45.2137C56.6674 47.8522 56.6674 50.4907 56.5175 53.0092C56.4576 55.4978 56.3676 57.9263 56.0978 59.9352H63.5334C63.2336 57.8664 63.1736 55.3778 63.1137 52.9492C62.9638 50.4607 62.9638 47.8822 62.9638 45.2437V27.4641C62.9638 24.7357 62.9638 22.0972 63.1137 19.6086L63.0537 19.5787Z" fill="black"/>
<path d="M328.968 44.4041C327.529 40.9861 326.03 37.4182 324.531 33.5504C323.032 29.7726 321.473 26.0548 319.973 22.277C318.624 18.859 317.275 15.7108 316.046 12.7426H313.317C309.959 20.508 306.541 28.3035 303.123 35.9191C299.555 43.8345 295.987 51.8398 292.27 59.9051H296.947L304.293 42.6951H321.802L321.952 43.1149C323.751 47.8221 325.1 51.5999 325.94 54.4783C326.809 57.2666 327.379 59.0356 327.589 59.9051H335.594C334.875 58.406 333.945 56.3372 332.806 53.6088C331.667 50.9103 330.377 47.8221 328.938 44.4041H328.968ZM305.372 40.0567L305.552 39.6369L313.197 21.7973H313.347C314.846 25.2153 316.196 28.4234 317.425 31.4517C318.624 34.4499 319.704 37.1783 320.723 39.6669L320.873 40.0866H305.402L305.372 40.0567Z" fill="black"/>
<path d="M212.756 53.6388C211.617 50.9404 210.327 47.8522 208.888 44.4342C207.449 41.0161 205.95 37.4482 204.451 33.5805C202.952 29.8027 201.392 26.0848 199.893 22.307C198.544 18.889 197.195 15.7409 195.966 12.7726H193.237C189.879 20.5381 186.461 28.3335 183.043 35.9491C179.475 43.8645 175.907 51.8698 172.189 59.9351H176.867L184.212 42.7252H201.722L201.872 43.1449C203.671 47.8522 205.02 51.63 205.86 54.5083C206.729 57.2967 207.299 59.0656 207.509 59.9351H215.514C214.795 58.436 213.865 56.3672 212.726 53.6388H212.756ZM185.292 40.0867L185.472 39.6669L193.117 21.8273H193.267C194.766 25.2453 196.116 28.4535 197.345 31.4817C198.544 34.4799 199.623 37.2084 200.643 39.6969L200.793 40.1167H185.322L185.292 40.0867Z" fill="black"/>
<path d="M110.875 44.4342C109.436 41.0161 107.937 37.4482 106.438 33.5805C104.939 29.8027 103.38 26.0848 101.881 22.307C100.531 18.889 99.1822 15.7409 97.9529 12.7726H95.2245C91.8665 20.5381 88.4485 28.3335 85.0304 35.9491C81.4625 43.8645 77.8946 51.8698 74.1768 59.9351H78.854L86.1998 42.7252H103.71L103.859 43.1449C105.658 47.8522 107.008 51.63 107.847 54.5083C108.717 57.2967 109.286 59.0656 109.496 59.9351H117.502C116.782 58.436 115.853 56.3672 114.713 53.6388C113.574 50.9404 112.285 47.8522 110.845 44.4342H110.875ZM87.2791 40.0867L87.459 39.6669L95.1046 21.8273H95.2545C96.7536 25.2453 98.1028 28.4535 99.3321 31.4817C100.531 34.4799 101.611 37.2084 102.63 39.6969L102.78 40.1167H87.3091L87.2791 40.0867Z" fill="black"/>
<path d="M447.91 44.4342C446.47 41.0161 444.971 37.4482 443.472 33.5805C441.973 29.8027 440.414 26.0848 438.915 22.307C437.566 18.889 436.216 15.7409 434.987 12.7726H432.259C428.901 20.5381 425.483 28.3335 422.065 35.9491C418.497 43.8645 414.929 51.8698 411.211 59.9351H415.888L423.234 42.7252H440.744L440.894 43.1449C442.693 47.8522 444.042 51.63 444.881 54.5083C445.751 57.2967 446.321 59.0656 446.53 59.9351H454.536C453.816 58.436 452.887 56.3672 451.747 53.6388C450.608 50.9404 449.319 47.8522 447.88 44.4342H447.91ZM424.313 40.0867L424.493 39.6669L432.139 21.8273H432.289C433.788 25.2453 435.137 28.4535 436.366 31.4817C437.566 34.4799 438.645 37.2084 439.664 39.6969L439.814 40.1167H424.343L424.313 40.0867Z" fill="black"/>
<path d="M547.212 53.6388C546.073 50.9404 544.783 47.8522 543.344 44.4342C541.905 41.0161 540.406 37.4482 538.907 33.5805C537.408 29.8027 535.849 26.0848 534.349 22.307C533 18.889 531.651 15.7409 530.422 12.7726H527.693C524.335 20.5381 520.917 28.3335 517.499 35.9491C513.931 43.8645 510.363 51.8698 506.646 59.9351H511.323L518.669 42.7252H536.178L536.328 43.1449C538.127 47.8522 539.476 51.63 540.316 54.5083C541.185 57.2967 541.755 59.0656 541.965 59.9351H549.97C549.251 58.436 548.321 56.3672 547.182 53.6388H547.212ZM519.748 40.0867L519.928 39.6669L527.573 21.8273H527.723C529.222 25.2453 530.572 28.4535 531.801 31.4817C533 34.4799 534.08 37.2084 535.099 39.6969L535.249 40.1167H519.778L519.748 40.0867Z" fill="black"/>
<path d="M266.755 14.6016C271.912 14.6016 276.709 17.5698 279.947 22.6968L280.127 22.9667H287.113L286.483 22.0672C281.926 15.7109 274.55 11.9331 266.785 11.9331C253.412 11.9331 242.559 22.8168 242.559 36.159C242.559 49.5012 253.442 60.3849 266.785 60.3849C274.55 60.3849 281.926 56.6071 286.483 50.2508L287.113 49.3513H280.127L279.947 49.6212C276.709 54.7782 271.882 57.7165 266.755 57.7165C257.43 57.7165 249.814 48.0321 249.814 36.159C249.814 24.2859 257.4 14.6016 266.755 14.6016Z" fill="black"/>
<path d="M374.182 34.5699C376.431 28.7233 382.517 16.6103 396.369 8.90481C395.47 8.09529 394.54 7.34572 393.581 6.65612C393.551 6.65612 393.521 6.59616 393.461 6.56618C392.561 5.90656 391.632 5.30691 390.642 4.76722C390.552 4.70726 390.462 4.64729 390.372 4.61731C387.974 6.44625 374.272 17.4798 373.073 33.3406C371.903 17.4798 358.171 6.44625 355.773 4.61731C355.713 4.61731 355.683 4.67727 355.653 4.70726C354.633 5.30691 353.644 5.93654 352.684 6.62614C351.695 7.34572 350.736 8.12527 349.806 8.9348C363.628 16.6403 369.745 28.7533 371.993 34.5999C366.087 20.2082 350.256 14.1218 346.088 12.7426C344.559 14.6015 343.21 16.6103 342.101 18.7391C350.885 20.2682 357.811 23.986 362.878 27.7339C362.938 27.7638 363.028 27.8238 363.088 27.8838C363.778 28.3935 364.408 28.8732 364.977 29.3829C365.097 29.4728 365.187 29.5928 365.307 29.6527C365.997 30.2224 366.656 30.8221 367.226 31.3617L367.316 31.4517C370.584 34.4499 372.473 36.9985 372.983 37.748C373.073 37.8979 373.133 37.9579 373.133 37.9579V37.9279C373.192 37.838 373.282 37.718 373.432 37.5382C374.002 36.7286 375.321 35.0196 377.42 32.9508C377.87 32.4411 378.409 31.9314 378.949 31.4517L379.009 31.3917C379.639 30.7921 380.358 30.1624 381.108 29.5628C381.168 29.5028 381.228 29.4728 381.288 29.4129C381.528 29.203 381.768 29.0231 382.037 28.8132C382.457 28.4834 382.907 28.1236 383.387 27.7938C388.214 24.1959 394.81 20.628 403.115 18.979C403.475 18.889 403.805 18.829 404.164 18.7691C403.025 16.6403 401.706 14.6015 400.177 12.7726C396.009 14.1518 380.148 20.2082 374.242 34.6298L374.182 34.5699Z" fill="#F06419"/>
<path d="M380.479 8.96478L379.16 0.569668C377.181 0.209878 375.142 0 373.043 0C370.944 0 368.906 0.209878 366.897 0.569668L365.607 8.96478C368.186 11.9031 370.914 15.6209 373.013 19.9984C375.112 15.6209 377.84 11.9031 380.449 8.96478H380.479ZM371.274 7.52562C371.274 6.5362 372.084 5.75665 373.043 5.75665C374.003 5.75665 374.842 6.56618 374.842 7.52562C374.842 8.48506 374.033 9.29459 373.043 9.29459C372.054 9.29459 371.274 8.48506 371.274 7.52562Z" fill="#F06419"/>
</g>
<defs>
<clipPath id="clip0_4296_1801">
<rect width="550" height="60.4148" fill="white"/>
</clipPath>
</defs>
</svg>
