<svg width="111" height="111" viewBox="0 0 111 111" fill="none" xmlns="http://www.w3.org/2000/svg">
<g clip-path="url(#clip0_4853_485)">
<path d="M55.5056 109.947C85.5726 109.947 109.947 85.5726 109.947 55.5056C109.947 25.4386 85.5726 1.06445 55.5056 1.06445C25.4386 1.06445 1.06445 25.4386 1.06445 55.5056C1.06445 85.5726 25.4386 109.947 55.5056 109.947Z" stroke="#F06419" stroke-miterlimit="10"/>
<path d="M50.0982 63.9844L50.5837 64.4585C51.0579 64.8198 51.6111 64.9666 52.1756 64.8763L55.9578 63.9166L75.7607 58.9151V53.0894L52.853 58.7909L51.5095 59.1296C51.5095 59.1296 51.4304 59.1296 51.3966 59.1522C50.2675 59.4118 49.4434 60.6199 49.4434 61.9973C49.4434 62.7311 49.6805 63.4311 50.0869 63.9731L50.0982 63.9844Z" fill="#F06419"/>
<path d="M52.0627 55.9573L40.1177 44.3171L37.2951 45.1413L37.1258 45.1865C37.1258 45.1865 37.0806 45.1865 37.0693 45.1978L49.2288 57.0411C49.7821 56.6121 50.4256 56.3186 51.1143 56.1944L52.0627 55.9573Z" fill="#F06419"/>
<path d="M52.5476 67.8232L51.5202 68.0828C50.346 68.2973 49.4541 69.5167 49.4541 70.9505C49.4541 71.7973 49.7589 72.5876 50.2896 73.1408L50.4589 73.3102C50.9557 73.7392 51.5654 73.9198 52.175 73.8295L75.7715 67.8006V61.9749L60.4056 65.8474L52.5476 67.8232Z" fill="#F06419"/>
<path d="M55.5057 7.48853C28.9965 7.48853 7.5 28.985 7.5 55.4943C7.5 82.0036 28.9965 103.5 55.5057 103.5C82.015 103.5 103.511 82.0149 103.511 55.4943C103.511 28.9737 82.015 7.48853 55.5057 7.48853ZM78.2554 61.3313V70.1941L52.559 76.7649C52.3219 76.8101 52.0961 76.8214 51.8477 76.8214C51.1252 76.8214 50.4026 76.6294 49.7591 76.2569C49.4542 76.0988 49.172 75.8843 48.9123 75.6472L48.6526 75.3875L34.6867 61.7829L34.0544 61.1619L34.0319 61.1281L33.7722 60.7668C33.5464 60.4619 33.3432 60.1232 33.1851 59.7507C32.79 58.8926 32.5754 57.9104 32.5754 56.9168C32.5754 55.4943 32.9932 54.1282 33.7722 53.0669C33.9077 52.875 34.0544 52.7056 34.2125 52.5363L33.7496 51.8476L33.6819 51.7459C33.4561 51.4185 33.2641 51.0685 33.1174 50.696C32.7674 49.8831 32.5867 48.9799 32.5867 48.0315C32.5867 46.6202 33.0045 45.2541 33.7835 44.1815C34.4609 43.267 35.3189 42.6235 36.2786 42.3412H36.3125C36.3125 42.3412 36.3802 42.3187 36.4028 42.2961H36.4254C36.5157 42.2622 36.6173 42.2509 36.7076 42.2283L55.9009 36.6397L56.9057 36.3462L57.8089 36.9333L77.228 49.6686L78.278 50.3573V61.3087L78.2554 61.3313Z" fill="#F06419"/>
</g>
<defs>
<clipPath id="clip0_4853_485">
<rect width="110" height="110" fill="white" transform="translate(0.5 0.5)"/>
</clipPath>
</defs>
</svg>
