<svg width="219" height="321" viewBox="0 0 219 321" fill="none" xmlns="http://www.w3.org/2000/svg">
<path d="M197.179 0.0443783L73.567 21.2109C71.6952 21.5284 70.3178 23.5393 70.7063 25.409L108.355 223.704C97.0534 219.683 83.8798 218.871 69.9646 218.871C50.9989 218.871 33.6932 224.692 20.9788 234.182C8.26437 243.671 0 257.042 0 271.647C0 286.252 8.47628 298.846 21.4026 307.453C34.3289 316.061 51.7759 321 70.6357 321C89.4954 321 106.942 316.061 119.869 307.453C132.795 298.846 141.271 286.287 141.271 271.647C131.488 192.448 112.735 114.167 99.8788 43.1536L214.768 63.4382C217.169 63.9321 219.606 61.251 218.865 58.9227L201.135 2.47853C200.641 0.855763 198.839 -0.237843 197.179 0.0443783Z" fill="#F06419"/>
</svg>
