<svg width="283" height="382" viewBox="0 0 283 382" fill="none" xmlns="http://www.w3.org/2000/svg">
<g clip-path="url(#clip0_4393_1482)">
<path d="M272.101 10.8743C256.597 -4.65447 229.898 -3.34277 210.846 13.2862L269.693 72.2279C286.253 53.1448 287.605 26.4031 272.101 10.8743Z" fill="#C30F28"/>
<path d="M15.9258 254.808L45.2861 219.646L63.6628 238.094L28.5993 267.459L15.9258 254.808Z" fill="#C30F28"/>
<path d="M263.989 77.9825L205.142 19.0408C199.438 25.6416 195.552 33.1309 193.566 40.7472L242.148 89.407L241.81 89.7455C249.626 87.7568 257.314 83.864 264.031 77.9825H263.989Z" fill="#C30F28"/>
<path d="M236.15 95.373L235.432 96.0923L185.709 46.2478L48.4551 216.472L56.3127 224.3L59.0164 227.008L66.8739 234.878L133.959 180.633V380.688H152.125V165.908L237.586 96.7693L236.15 95.373Z" fill="#C30F28"/>
<path d="M186.343 45.4438L186.09 45.7823L186.386 45.4862L186.343 45.4438Z" fill="#C30F28"/>
<path d="M42.2874 382C39.626 369.095 28.6422 355.131 21.3761 345.865C19.982 344.088 18.7569 342.522 17.743 341.168C-17.8696 293.609 11.195 263.313 11.4907 263.016L20.4889 271.944L16.011 267.459L20.5312 271.902C19.644 272.833 -0.887092 295.047 27.8818 333.509C28.8535 334.821 30.0363 336.344 31.3459 337.995C39.3303 348.192 51.4124 363.594 54.7075 379.377L42.2874 381.958V382Z" fill="#C30F28"/>
</g>
<defs>
<clipPath id="clip0_4393_1482">
<rect width="283" height="382" fill="white"/>
</clipPath>
</defs>
</svg>
