<svg width="283" height="382" viewBox="0 0 283 382" fill="none" xmlns="http://www.w3.org/2000/svg">
<g clip-path="url(#clip0_4393_1524)">
<path d="M272.101 10.8746C256.597 -4.65422 229.898 -3.34253 210.846 13.2864L269.693 72.2281C286.253 53.1451 287.605 26.4034 272.101 10.8746Z" fill="#F06419"/>
<path d="M15.9258 254.808L45.2861 219.646L63.6628 238.094L28.5993 267.459L15.9258 254.808Z" fill="#F06419"/>
<path d="M263.989 77.9823L205.142 19.0405C199.438 25.6413 195.552 33.1307 193.566 40.747L242.148 89.4067L241.81 89.7452C249.626 87.7565 257.314 83.8638 264.031 77.9823H263.989Z" fill="#F06419"/>
<path d="M236.15 95.3727L235.432 96.092L185.709 46.2476L48.4551 216.472L56.3127 224.3L59.0164 227.008L66.8739 234.878L133.959 180.633V380.688H152.125V165.908L237.586 96.7691L236.15 95.3727Z" fill="#F06419"/>
<path d="M186.343 45.4438L186.09 45.7823L186.386 45.4862L186.343 45.4438Z" fill="#F06419"/>
<path d="M42.2874 382C39.626 369.095 28.6422 355.132 21.3761 345.865C19.982 344.088 18.7569 342.522 17.743 341.168C-17.8696 293.609 11.195 263.313 11.4907 263.017L20.4889 271.945L16.011 267.459L20.5312 271.902C19.644 272.833 -0.887092 295.047 27.8818 333.51C28.8535 334.821 30.0363 336.345 31.3459 337.995C39.3303 348.192 51.4124 363.594 54.7075 379.377L42.2874 381.958V382Z" fill="#F06419"/>
</g>
<defs>
<clipPath id="clip0_4393_1524">
<rect width="283" height="382" fill="white"/>
</clipPath>
</defs>
</svg>
