<svg width="318" height="268" viewBox="0 0 318 268" fill="none" xmlns="http://www.w3.org/2000/svg">
<g clip-path="url(#clip0_4388_1446)">
<path fill-rule="evenodd" clip-rule="evenodd" d="M194.237 159.069C172.836 147.48 144.42 141.12 114.303 141.12C84.1858 141.12 55.7341 147.48 34.3334 159.069C12.1885 171.011 0 187.194 0 204.542C0 221.891 12.1885 238.073 34.3334 250.016C55.7341 261.605 84.1504 268 114.303 268C144.455 268 172.836 261.605 194.237 250.016C216.346 238.073 228.535 221.926 228.535 204.542C228.535 187.158 216.382 171.011 194.237 159.069ZM192.217 204.542C192.217 212.739 184.316 221.007 170.462 227.226C155.545 233.974 135.562 237.684 114.303 237.684C93.0438 237.684 73.0248 233.974 58.1081 227.226C44.2543 221.007 36.353 212.739 36.353 204.542C36.353 196.345 44.2543 188.112 58.1081 181.894C73.0248 175.145 93.0083 171.435 114.303 171.435C135.597 171.435 155.545 175.145 170.462 181.894C184.316 188.112 192.217 196.38 192.217 204.542Z" fill="#0A4BA5"/>
<path fill-rule="evenodd" clip-rule="evenodd" d="M283.702 17.9491C262.266 6.39525 233.885 0 203.732 0C173.58 0 145.199 6.39525 123.798 17.9491C101.653 29.927 89.4648 46.0741 89.4648 63.4579C89.4648 80.8417 101.653 96.9888 123.798 108.931C145.199 120.52 173.615 126.88 203.732 126.88C233.849 126.88 262.301 120.52 283.702 108.931C305.811 96.9888 318 80.8063 318 63.4579C318 46.1094 305.847 29.927 283.702 17.9491ZM281.682 63.4579C281.682 71.6198 273.781 79.8877 259.927 86.1063C245.01 92.8548 225.027 96.5648 203.732 96.5648C182.438 96.5648 162.49 92.8548 147.573 86.1063C133.719 79.8877 125.818 71.6198 125.818 63.4579C125.818 55.296 133.719 46.9927 147.573 40.7742C162.49 34.0609 182.473 30.3156 203.732 30.3156C224.991 30.3156 245.01 34.0256 259.927 40.7742C273.781 46.9927 281.682 55.2606 281.682 63.4579Z" fill="#0A4BA5"/>
<path fill-rule="evenodd" clip-rule="evenodd" d="M30.6842 95.2574L37.2745 99.2853C37.7706 99.6033 38.2312 100.027 38.5146 100.557L41.8098 106.175L45.1049 100.557C45.4238 100.027 45.849 99.6033 46.3805 99.2853L53.0062 95.2574L46.3805 91.3001C45.849 90.9821 45.4238 90.5581 45.1049 90.0281L41.8098 84.4102L38.5146 90.0281C38.1957 90.5581 37.7706 90.9821 37.2391 91.3001L30.6488 95.2927L30.6842 95.2574ZM41.8098 117.022C40.4988 117.022 39.3296 116.316 38.6564 115.22L32.7038 105.009L21.7908 98.3667C20.7279 97.6954 20.0547 96.5294 20.0547 95.2574C20.0547 93.9854 20.7279 92.8194 21.8263 92.1481L32.7393 85.5762L38.6918 75.365C39.3296 74.2343 40.5342 73.563 41.8452 73.563C43.1562 73.563 44.3254 74.2696 44.9986 75.365L50.9512 85.5762L61.935 92.1481C63.0334 92.8194 63.7066 93.9854 63.7066 95.2574C63.7066 96.5294 63.0334 97.6954 61.935 98.3667L50.9512 105.009L44.9986 115.22C44.3609 116.351 43.1562 117.022 41.8452 117.022H41.8098Z" fill="#0A4BA5"/>
<path fill-rule="evenodd" clip-rule="evenodd" d="M265.066 172.742L271.691 176.7C272.223 177.018 272.648 177.442 272.967 177.972L276.262 183.59L279.557 177.972C279.876 177.442 280.301 177.018 280.833 176.7L287.423 172.742L280.833 168.714C280.337 168.396 279.876 167.972 279.593 167.442L276.297 161.825L273.002 167.442C272.683 167.972 272.258 168.396 271.727 168.714L265.101 172.742H265.066ZM276.227 194.472C274.916 194.472 273.746 193.765 273.073 192.67L267.121 182.459L256.137 175.887C255.038 175.251 254.365 174.05 254.365 172.778C254.365 171.506 255.038 170.304 256.137 169.668L267.121 163.026L273.073 152.815C273.711 151.684 274.916 151.013 276.227 151.013C277.538 151.013 278.707 151.719 279.38 152.815L285.333 163.061L296.246 169.704C297.309 170.375 297.982 171.541 297.982 172.813C297.982 174.085 297.309 175.251 296.21 175.922L285.297 182.494L279.345 192.706C278.707 193.836 277.502 194.507 276.191 194.507L276.227 194.472Z" fill="#0A4BA5"/>
</g>
<defs>
<clipPath id="clip0_4388_1446">
<rect width="318" height="268" fill="white"/>
</clipPath>
</defs>
</svg>
