<svg width="232" height="298" viewBox="0 0 232 298" fill="none" xmlns="http://www.w3.org/2000/svg">
<g clip-path="url(#clip0_4393_1563)">
<path d="M208.294 0.000503125C193.601 0.0601031 183.428 10.8179 176.23 20.8605C161.418 42.4953 150.353 66.9313 139.794 86.7781C138.337 85.9139 137.623 86.2417 136.463 87.0463L121.681 98.9663L88.219 69.2557C87.5944 68.6597 86.6724 68.3915 85.8098 68.5107C85.0365 68.6299 84.3226 69.0769 83.8467 69.7325L68.9749 90.5925C68.1124 91.7845 68.3206 93.6321 69.4508 94.5857L72.9903 97.7445C64.2755 108.949 50.3554 122.27 37.298 134.637C23.1103 148.047 10.0529 159.818 5.23443 168.341C2.20058 173.556 0.356476 179.158 0.0292969 184.075V283.071C0.0887841 291.057 3.68776 297.852 11.7483 297.971C20.9985 297.494 23.7944 290.402 23.8242 282.981V250.291C24.1513 248.473 24.8652 247.46 26.5308 247.311C28.5534 247.46 29.7729 248.92 29.7729 250.291V280.091C29.9216 286.736 33.1042 291.623 38.696 292.011C45.0908 291.772 47.5596 285.484 47.619 280.091V256.251C47.8272 254.552 48.9575 253.509 50.5934 253.271C52.4672 253.599 53.2406 254.463 53.5678 256.251V283.25C53.6272 291.415 57.3749 297.881 65.4652 297.971C74.5667 297.434 77.3031 290.342 77.3626 283.071V255.983C87.2375 264.982 96.6365 273.624 101.99 279.167C103.418 280.687 106.422 279.971 107.017 277.945C118.379 240.457 152.227 213.1 170.876 184.641L173.583 186.966C174.832 188.038 177.004 187.77 177.955 186.399L192.827 165.539C193.63 164.377 193.422 162.589 192.351 161.636L158.979 132.014L164.928 114.134C165.285 113.091 165.047 111.84 164.273 111.065L162.429 109.218C185.838 89.6389 204.784 72.9509 220.608 55.1007C228.609 43.7171 232.059 32.9295 232.029 23.9001C231.881 7.4207 221.649 0.298503 208.324 -0.0292969L208.294 0.000503125ZM208.383 5.8711C219.567 6.0499 225.902 14.9601 226.051 23.9299C226.051 31.3501 223.195 40.9457 215.908 51.4055C197.556 71.8781 175.635 89.2813 158.176 105.046L144.137 90.9799C156.332 68.3915 166.593 44.9389 181.049 24.4067C190.269 11.5033 198.716 7.1525 208.383 5.8711ZM208.115 11.8311C201.572 11.8311 196.218 17.1951 196.218 23.7511C196.218 30.3071 201.572 35.6711 208.115 35.6711C214.659 35.6711 220.102 30.3071 220.102 23.7511C220.102 17.1951 214.629 11.8311 208.115 11.8311ZM86.7319 75.9011L186.373 164.377L174.951 180.29L75.2806 91.9037L86.7021 75.8713L86.7319 75.9011ZM138.129 93.4235L158.771 114.015L154.131 127.783L126.142 103.019L138.129 93.4235ZM31.7955 177.668C28.6129 182.883 24.9544 188.247 22.6047 193.492C21.1175 196.889 20.0467 200.107 20.939 203.356C21.4447 205.174 23.9431 206.097 25.4898 205.025C29.2672 202.521 32.3011 199.78 35.5431 197.396C34.5913 199.541 33.1637 202.194 32.658 204.101C31.5872 208.362 32.0929 212.564 34.7996 216.11C44.5257 226.034 60.5575 240.665 71.4139 250.47V283.071C71.5626 288.822 69.9267 291.742 65.4652 292.011C60.0221 291.802 59.5462 286.945 59.5165 283.25V256.251C58.1483 250.321 54.1626 247.877 50.5934 247.877C46.7267 247.877 42.9196 250.946 41.6703 256.251V280.091C41.819 283.19 40.8672 285.932 38.696 286.051C36.5247 286.17 35.8108 282.802 35.7216 280.091V250.291C35.7216 245.314 31.5872 241.351 26.5308 241.351C21.058 241.977 18.4406 245.314 17.8755 250.291V282.981C18.0242 288.882 16.1801 291.772 11.7483 292.011C6.36468 291.742 6.00776 286.647 5.97801 283.071V191.257C7.82212 192.807 9.90417 194.446 12.4919 196.561C13.8303 197.634 16.0908 197.217 16.9534 195.727C22.1288 188.635 27.0365 182.913 31.8252 177.668H31.7955Z" fill="#0A4BA5"/>
</g>
<defs>
<clipPath id="clip0_4393_1563">
<rect width="232" height="298" fill="white"/>
</clipPath>
</defs>
</svg>
