<svg width="273" height="246" viewBox="0 0 273 246" fill="none" xmlns="http://www.w3.org/2000/svg">
<g clip-path="url(#clip0_4393_1594)">
<path d="M55.2825 71.75L38.22 106.6L0 112.067L27.6413 139.058L21.1575 176.983L55.2825 159.217L89.4075 176.983L82.9237 139.058L110.565 112.067L72.345 106.6L55.2825 71.75Z" fill="#C30F28"/>
<path d="M147.079 20.5L136.841 0L126.945 20.5L104.764 23.575L120.802 39.2917L117.049 61.5L136.841 51.25L156.975 61.5L153.221 39.2917L169.26 23.575L147.079 20.5Z" fill="#C30F28"/>
<path d="M194.171 95.6665L169.601 145.208L115.342 153.066L154.586 191.675L145.372 246L194.171 220.033L242.969 246L233.414 191.675L272.999 153.066L218.399 145.208L194.171 95.6665Z" fill="#C30F28"/>
</g>
<defs>
<clipPath id="clip0_4393_1594">
<rect width="273" height="246" fill="white"/>
</clipPath>
</defs>
</svg>
