<svg width="240" height="247" viewBox="0 0 240 247" fill="none" xmlns="http://www.w3.org/2000/svg">
<path d="M18.5661 64.4622H57.9709C58.1535 64.4622 58.3362 64.5029 58.5188 64.5029C59.0463 64.5029 59.5739 64.5436 60.1015 64.5436C60.5681 64.5844 61.0348 64.6454 61.5015 64.6658C62.0494 64.7065 62.6175 64.7676 63.1654 64.8491C63.4089 64.8898 63.6321 64.8898 63.8553 64.9101C64.2002 64.9712 64.5046 65.0323 64.8495 65.0934C65.9046 65.2563 66.9598 65.4599 67.9743 65.7449C68.441 65.8467 68.9077 65.9282 69.3744 66.0504C69.4961 66.0911 69.5976 66.1114 69.7193 66.1725C70.3077 66.3354 70.8962 66.5187 71.4846 66.7223C71.7281 66.7834 71.9716 66.8852 72.1948 66.9462C72.5397 67.0684 72.8441 67.1906 73.189 67.3535C73.8992 67.5978 74.6094 67.8829 75.2993 68.1883C75.421 68.2494 75.5225 68.2901 75.6036 68.3104C76.1515 68.5548 76.6791 68.8398 77.2472 69.0842C77.4095 69.186 77.5313 69.247 77.653 69.3081C77.9574 69.471 78.282 69.6135 78.5864 69.7764C78.6473 69.8172 78.6879 69.8375 78.7082 69.8375C79.2357 70.1429 79.7633 70.4483 80.2503 70.7741C80.8387 71.1203 81.4474 71.4664 82.0155 71.8329H82.0561C82.604 72.1994 83.1721 72.5863 83.6997 72.9731C83.8214 73.0749 83.9432 73.1971 84.0649 73.2785C84.8969 73.869 85.7085 74.4798 86.4795 75.111C86.7027 75.2943 86.9056 75.4572 87.1288 75.6404C87.3723 75.8237 87.5955 76.0476 87.8187 76.2309C88.5086 76.8214 89.1173 77.4118 89.7667 78.0227C89.9899 78.2059 90.1928 78.3892 90.3754 78.5724C90.8624 79.0611 91.3088 79.5294 91.7754 79.9977L92.0595 80.2827C92.2421 80.5271 92.4653 80.751 92.6682 80.975C93.1552 81.5248 93.6625 82.0949 94.1495 82.6853C94.3321 82.9297 94.5147 83.1536 94.6973 83.398C94.8799 83.5812 95.0017 83.8052 95.1843 83.9885C95.4075 84.2939 95.651 84.5789 95.8742 84.8843C96.1786 85.2508 96.4626 85.6581 96.767 86.0653C96.767 86.106 96.8076 86.106 96.8076 86.1264C96.9293 86.2892 97.0308 86.4318 97.1119 86.5947C97.5178 87.1241 97.8627 87.6738 98.2279 88.2439C98.4714 88.5901 98.7149 88.9362 98.9787 89.3027C99.2628 89.7303 99.5063 90.1782 99.7497 90.6058C100.054 91.0945 100.358 91.6238 100.683 92.1532C100.927 92.5808 101.17 92.988 101.393 93.3953C101.576 93.7618 101.759 94.1486 101.941 94.4744C102.246 95.0649 102.53 95.6146 102.814 96.2051C102.976 96.5105 103.159 96.7956 103.28 97.101C103.524 97.7322 103.808 98.2412 104.051 98.8317C104.112 98.9538 104.153 99.0556 104.173 99.1371C104.356 99.5036 104.518 99.8904 104.66 100.277C104.66 100.318 104.701 100.338 104.701 100.338L104.741 100.379C104.741 100.379 104.802 100.542 104.843 100.623C105.025 101.051 105.208 101.56 105.391 102.028C105.614 102.517 105.756 103.026 105.918 103.515C106.101 103.983 106.263 104.411 106.405 104.879V104.92C106.405 104.92 106.507 105.164 106.567 105.327C106.933 106.406 107.257 107.505 107.582 108.625C107.623 108.809 107.704 108.992 107.744 109.175C109.733 102.436 112.634 96.0422 116.287 90.1986C116.104 89.9135 115.881 89.6692 115.698 89.3841C115.171 88.6715 114.623 87.9181 114.095 87.2055C113.75 86.7983 113.405 86.3911 113.081 86.0042C112.837 85.6581 112.553 85.3526 112.269 85.0065C111.924 84.64 111.62 84.2328 111.275 83.8663C111.052 83.5812 110.808 83.3776 110.565 83.0926C110.037 82.4614 109.449 81.8913 108.901 81.3211C108.353 80.7307 107.785 80.1809 107.237 79.6719C107.014 79.4276 106.811 79.2036 106.547 79.0814C106.182 78.7149 105.837 78.3281 105.472 78.0023C105.167 77.758 104.822 77.4526 104.518 77.1879C103.564 76.3734 102.57 75.5183 101.556 74.7242C100.785 74.093 99.9729 73.4821 99.141 72.9324C98.7961 72.6881 98.4917 72.5048 98.1468 72.2401C97.3148 71.6496 96.4423 71.0592 95.5495 70.5298C94.9002 70.1633 94.2509 69.7561 93.6016 69.3896C93.6016 69.3896 93.5881 69.376 93.561 69.3489C93.561 69.3489 93.4393 69.247 93.3784 69.2267C92.9523 68.9823 92.5059 68.738 92.0798 68.514C92.0392 68.514 92.0392 68.4733 92.0189 68.4733C91.4102 68.1068 90.7812 67.8218 90.1522 67.4756C89.6855 67.2313 89.1985 66.987 88.6912 66.763C88.0825 66.4576 87.4535 66.1318 86.8042 65.8875C86.3984 65.7042 85.9926 65.521 85.5867 65.3581C85.5259 65.3174 85.465 65.297 85.4041 65.297C84.5316 64.8898 83.6794 64.5436 82.7663 64.2382C81.6503 63.8106 80.514 63.4034 79.3372 63.0573C78.2009 62.6908 77.024 62.365 75.8066 62.0392C75.7051 61.9985 75.5834 61.9781 75.4616 61.9781C74.4065 61.6931 73.3311 61.4488 72.2151 61.2248C71.0179 61.0008 69.8005 60.7565 68.5627 60.5732C67.6902 60.4511 66.838 60.3289 65.9655 60.2271C65.093 60.1253 64.2408 60.0438 63.3277 59.9828C62.5769 59.9217 61.8059 59.881 61.0754 59.8606C60.5479 59.8199 60 59.8199 59.4724 59.8199C58.9855 59.7791 58.5188 59.7588 58.0115 59.7588H0V192.045H18.5661V64.4622Z" fill="#160A00"/>
<path d="M116.266 172.499C117.626 170.605 118.864 168.651 119.98 166.635C121.441 164.09 122.739 161.443 123.855 158.714C123.916 158.592 123.977 158.429 124.038 158.307C124.444 157.248 124.85 156.19 125.215 155.131C125.458 154.439 125.681 153.767 125.905 153.054C126.209 152.056 126.554 151.038 126.838 150.02C127.061 149.124 127.264 148.228 127.467 147.353C127.832 145.704 128.177 144.054 128.421 142.385C128.542 141.57 128.664 140.736 128.766 139.901C128.887 138.842 129.009 137.763 129.111 136.704C129.111 136.358 129.151 136.012 129.171 135.686C129.192 135.035 129.212 134.383 129.232 133.731H149.99V129.109H129.374C129.557 122.207 130.531 115.529 132.276 109.318C132.377 109.074 132.438 108.85 132.519 108.606C132.804 107.547 133.108 106.488 133.453 105.47C133.493 105.368 133.554 105.246 133.575 105.165C133.798 104.534 134.001 103.964 134.224 103.373C134.346 103.007 134.467 102.599 134.63 102.192C134.812 101.703 134.995 101.174 135.218 100.665C135.32 100.502 135.38 100.36 135.441 100.176C135.563 99.932 135.665 99.7081 135.746 99.4637C135.989 98.9343 136.212 98.3846 136.456 97.8145C136.456 97.8145 136.496 97.7127 136.517 97.6923C136.76 97.1629 136.983 96.6743 137.268 96.1652H137.308C137.552 95.6155 137.836 95.0861 138.12 94.5567C138.302 94.1902 138.485 93.783 138.708 93.4165C138.992 92.8871 139.297 92.3984 139.581 91.8894C139.804 91.5433 139.986 91.2379 140.169 90.8917C140.392 90.5456 140.575 90.2402 140.798 89.8737C140.92 89.6293 141.082 89.385 141.224 89.161C141.63 88.5502 141.995 87.9801 142.401 87.3896C142.462 87.2878 142.503 87.2267 142.563 87.1657C142.969 86.6159 143.375 86.0458 143.761 85.5164C143.984 85.2314 144.227 84.9667 144.45 84.6409C144.795 84.2133 145.14 83.7654 145.465 83.3378C145.587 83.2156 145.648 83.0934 145.749 82.9713C145.81 82.9102 145.851 82.8695 145.911 82.788C146.317 82.3197 146.682 81.8514 147.149 81.3831C147.21 81.3424 147.251 81.322 147.271 81.2609C147.88 80.5687 148.549 79.8968 149.199 79.2452C149.361 79.062 149.503 78.8787 149.686 78.6955C149.97 78.4511 150.233 78.2068 150.517 77.9217C151.045 77.4534 151.532 76.9851 152.039 76.5168C152.344 76.2725 152.628 75.9874 152.932 75.7024C153.155 75.5395 153.358 75.4173 153.561 75.2341C154.271 74.6436 155.022 74.0939 155.752 73.5645C155.976 73.3812 156.158 73.2183 156.381 73.0351C156.808 72.7297 157.254 72.4446 157.68 72.1392C157.741 72.0985 157.842 72.0781 157.903 72.017C158.208 71.8338 158.532 71.6505 158.837 71.4673C159.242 71.2229 159.608 70.9786 159.973 70.7139C160.338 70.5307 160.724 70.3067 161.089 70.1234C161.637 69.818 162.225 69.4923 162.793 69.2276C162.895 69.1868 162.976 69.1258 163.077 69.0647C163.564 68.7796 164.092 68.5353 164.62 68.3113C164.782 68.2706 164.904 68.2095 165.046 68.1484C166.912 67.334 168.799 66.6621 170.747 66.1327C170.971 66.0716 171.153 66.0105 171.336 65.9494C171.62 65.8883 171.884 65.8273 172.168 65.7662C172.391 65.7051 172.594 65.644 172.858 65.6033C172.898 65.5626 172.919 65.5626 172.959 65.5422H173.061C176.023 64.8907 179.026 64.5242 182.131 64.5242C198.81 64.5242 213.703 74.44 223.362 89.833H240.081C227.136 71.732 205.993 59.8818 182.131 59.8818C181.664 59.8818 181.177 59.9226 180.71 59.9429C180.162 59.9429 179.635 59.9429 179.107 59.9836C178.336 60.0244 177.565 60.0447 176.814 60.1058C175.922 60.1669 175.049 60.2687 174.156 60.3501C173.284 60.4519 172.432 60.5741 171.559 60.6963C170.321 60.8592 169.104 61.0628 167.907 61.3478C166.831 61.5718 165.736 61.8161 164.68 62.1012C164.437 62.1419 164.193 62.203 163.97 62.2641C163.97 62.2641 163.95 62.2777 163.909 62.3048C163.625 62.3659 163.382 62.4677 163.138 62.5288C162.327 62.7527 161.556 62.9971 160.785 63.221C159.648 63.5672 158.492 63.9744 157.376 64.402C156.503 64.7481 155.61 65.0943 154.779 65.4608C154.535 65.5626 154.312 65.644 154.089 65.7458C153.845 65.8476 153.561 65.9698 153.318 66.0512C152.851 66.2345 152.425 66.4585 151.958 66.6824C151.917 66.7232 151.836 66.7435 151.796 66.7842C151.694 66.825 151.633 66.8453 151.552 66.9064C150.741 67.2729 149.97 67.6598 149.239 68.0466C148.996 68.1688 148.752 68.2706 148.529 68.4131C147.88 68.7593 147.19 69.1258 146.54 69.533C146.439 69.5941 146.378 69.6348 146.297 69.7162C145.708 69.9606 145.161 70.3271 144.593 70.6732C143.7 71.2026 142.827 71.7931 141.995 72.3835C141.65 72.6279 141.346 72.8111 141.001 73.0758C140.169 73.6255 139.357 74.2567 138.586 74.8676C137.572 75.6413 136.578 76.5168 135.624 77.3313C135.34 77.5756 134.995 77.8607 134.691 78.1457C134.65 78.1864 134.63 78.2068 134.569 78.2679C134.224 78.5733 133.92 78.8991 133.575 79.2248C133.331 79.347 133.108 79.571 132.885 79.8153C132.337 80.304 131.769 80.8741 131.221 81.4646C130.673 82.0143 130.085 82.6048 129.557 83.236C129.314 83.521 129.07 83.7246 128.847 84.0097C128.542 84.3558 128.258 84.7223 127.954 85.0685C127.67 85.435 127.366 85.7811 127.061 86.1476C126.716 86.5548 126.412 86.962 126.067 87.3489C125.519 88.0615 124.992 88.8149 124.423 89.5479C124.241 89.7922 124.018 90.0773 123.835 90.3216C122.496 92.2152 121.258 94.1699 120.122 96.1856C114.562 105.959 111.295 117.198 110.91 129.15H90.1928V133.772H110.768C110.768 134.179 110.768 134.587 110.727 134.973C110.727 135.503 110.687 136.032 110.666 136.521C110.626 136.928 110.605 137.335 110.565 137.722C110.463 138.964 110.382 140.206 110.2 141.428C110.2 141.53 110.2 141.611 110.159 141.713C110.098 142.364 109.997 143.016 109.915 143.668C109.875 143.953 109.855 144.217 109.794 144.502C109.672 145.276 109.55 146.05 109.388 146.824C109.347 147.109 109.286 147.373 109.226 147.658C109.124 148.066 109.063 148.473 108.982 148.839C108.942 148.941 108.942 149.023 108.921 149.084C108.617 150.611 108.231 152.097 107.846 153.563C100.643 179.625 81.0619 198.378 58.113 198.378H0V202.979H57.9709C82.0561 202.979 103.341 190.926 116.246 172.54L116.266 172.499Z" fill="#160A00"/>
<path d="M182.009 198.317C159.04 198.317 139.418 179.565 132.235 153.462C130.287 160.222 127.386 166.636 123.693 172.5C136.598 190.886 157.924 202.939 182.009 202.939C206.094 202.939 227.034 191.11 239.98 172.968H223.26C213.581 188.381 198.708 198.317 182.009 198.317Z" fill="#160A00"/>
<path d="M129.172 74.5217C130.166 73.5851 131.241 72.6281 132.418 71.6712C132.52 71.5694 132.601 71.5083 132.702 71.4268C133.068 71.1214 133.453 70.816 133.839 70.4902C134.488 69.9608 135.178 69.4314 135.908 68.9021C143.436 63.2824 153.643 57.7238 166.548 55.1787C167.095 55.0362 167.643 54.9547 168.171 54.8529C166.405 51.5137 164.336 48.3781 161.962 45.4868C155.509 47.6248 130.856 57.0926 121.685 79.5509C125.175 70.4495 134.65 51.5341 156.138 39.5414C154.759 38.279 153.298 37.1184 151.796 36.019C151.735 35.9782 151.674 35.9375 151.613 35.8968C150.213 34.8787 148.752 33.9625 147.251 33.0666C147.109 32.9852 146.987 32.9037 146.845 32.8223C143.132 35.6728 121.806 52.8575 119.96 77.5759C118.134 52.8575 96.7876 35.6525 93.0947 32.8223C93.0338 32.863 92.9527 32.9037 92.8918 32.9444C91.2888 33.881 89.7467 34.8584 88.2655 35.9375C86.7234 37.0574 85.2219 38.2587 83.7812 39.5414C105.269 51.5341 114.765 70.4495 118.235 79.5509C109.084 57.113 84.4508 47.6248 77.978 45.4868C75.604 48.3781 73.5141 51.5137 71.769 54.8529C85.4248 57.2555 96.1992 63.0584 104.031 68.9021C104.133 68.9631 104.255 69.0242 104.336 69.126C105.391 69.8998 106.385 70.6735 107.278 71.4472C107.461 71.5694 107.623 71.7526 107.765 71.8544C108.84 72.7503 109.835 73.6462 110.768 74.5217L110.91 74.6642C115.983 79.3269 118.905 83.3177 119.716 84.4579C119.879 84.6819 119.96 84.8041 119.96 84.8041C119.96 84.8041 119.96 84.7633 120 84.7633C120.041 84.7633 120.041 84.7022 120.041 84.7022C120.142 84.5801 120.264 84.3561 120.508 84.071C121.4 82.829 123.45 80.1617 126.696 76.9243C127.407 76.1506 128.238 75.3158 129.07 74.6032L129.172 74.5014V74.5217Z" fill="#F06419"/>
<path d="M119.98 25.6758C116.733 25.6758 113.547 26.0219 110.463 26.5717L108.454 39.6638C112.472 44.2247 116.713 50.048 119.959 56.8486C123.206 50.048 127.487 44.2451 131.505 39.6638L129.476 26.5717C126.391 26.0219 123.226 25.6961 119.959 25.6961L119.98 25.6758ZM119.959 40.1932C118.437 40.1932 117.2 38.9512 117.2 37.4241C117.2 35.897 118.437 34.655 119.959 34.655C121.481 34.655 122.739 35.897 122.739 37.4241C122.739 38.9512 121.501 40.1932 119.959 40.1932Z" fill="#F06419"/>
<path d="M62.0292 235.434C62.5568 234.803 63.2466 234.049 64.0177 233.255C64.7888 232.441 65.6613 231.606 66.5744 230.751C67.5077 229.875 68.4208 229.041 69.2933 228.226C70.1658 227.452 70.9166 226.76 71.6065 226.129H68.4614C67.528 227.228 66.5541 228.287 65.5395 229.407C64.4844 230.568 63.4496 231.626 62.4147 232.685C61.3799 233.724 60.3856 234.66 59.4523 235.475C59.3508 235.576 59.2291 235.658 59.1073 235.699C58.945 235.76 58.8638 235.76 58.7624 235.76V232.563C58.7624 231.382 58.803 230.221 58.8232 229.122C58.8638 228.022 58.9247 226.964 59.0464 226.129H55.9014C56.0231 227.045 56.084 228.104 56.1246 229.163C56.1854 230.262 56.226 231.382 56.226 232.563V240.341C56.226 241.502 56.1854 242.662 56.1246 243.741C56.084 244.841 56.0637 245.899 55.9419 246.775H59.0262C58.9044 245.859 58.8638 244.78 58.8435 243.721C58.803 242.621 58.7827 241.502 58.7827 240.341V236.208C58.9653 236.248 58.9247 236.228 59.0464 236.269C59.1479 236.269 59.3102 236.411 59.3711 236.472C59.6755 236.778 60.1827 237.307 60.8726 238.101C61.5625 238.875 62.3133 239.791 63.1452 240.789C63.9771 241.787 64.8293 242.825 65.7018 243.884C66.5338 244.922 67.3454 245.879 68.0759 246.795H71.992L62.0495 235.515V235.454L62.0292 235.434Z" fill="#160A00"/>
<path d="M214.738 242.256C214.109 241.339 213.5 240.444 212.892 239.527C212.262 238.652 211.715 237.878 211.248 237.186C212.019 237.003 212.689 236.819 213.155 236.595C213.987 236.147 214.738 235.537 215.367 234.681C215.996 233.806 216.3 232.747 216.3 231.464C216.3 229.876 215.793 228.675 214.697 227.575C213.257 226.109 210.112 226.109 210.112 226.109H202.929C203.05 227.026 203.111 228.084 203.172 229.143C203.213 230.243 203.233 231.363 203.233 232.543V240.321C203.233 241.482 203.192 242.643 203.172 243.722C203.111 244.821 203.071 245.88 202.949 246.755H206.033C205.911 245.839 205.871 244.76 205.851 243.701C205.81 242.602 205.79 241.482 205.79 240.321V237.45H208.996L211.126 241.075L214.413 246.755H217.924L216.544 244.821C215.976 244.047 215.387 243.172 214.738 242.235V242.256ZM210.599 235.944C209.767 236.188 208.813 236.31 207.799 236.31H205.79V227.27H208.915C210.01 227.331 210.294 227.372 211.004 227.575C211.694 227.799 212.222 228.207 212.689 228.797C213.196 229.388 213.439 230.324 213.439 231.485C213.439 232.767 213.196 233.765 212.668 234.478C212.141 235.17 211.451 235.638 210.619 235.923L210.599 235.944Z" fill="#160A00"/>
<path d="M16.8414 230.487C16.8414 230.487 16.8008 230.446 16.7602 230.385C16.7196 230.324 16.6588 230.243 16.5979 230.182L16.4964 230.039C16.4964 230.039 16.3544 229.835 16.253 229.754L15.7863 229.245C15.7863 229.245 15.7051 229.143 15.6442 229.102C15.5834 229.041 15.5428 229.001 15.4819 228.96C15.421 228.899 15.3399 228.817 15.279 228.756C15.0964 228.593 14.8935 228.431 14.7109 228.288C14.5891 228.186 14.4674 228.105 14.3456 228.023L14.0615 227.82C14.0615 227.82 13.8992 227.718 13.7978 227.657C13.7166 227.596 13.6152 227.535 13.5746 227.514L13.2905 227.351C13.2905 227.351 13.2296 227.311 13.189 227.29C13.1485 227.29 13.1079 227.25 13.0673 227.209C13.0064 227.168 12.9456 227.148 12.8847 227.107L12.7629 227.046C12.7629 227.046 12.6412 226.985 12.6006 226.965L12.4383 226.883H12.3774C12.3774 226.883 12.2962 226.822 12.2557 226.802C12.1745 226.781 12.1136 226.741 12.073 226.741C12.0325 226.72 11.9919 226.7 11.8904 226.679C11.7687 226.639 11.6672 226.598 11.5455 226.578C11.3832 226.517 11.2208 226.476 11.0991 226.456L10.9976 226.415H10.9773C10.7744 226.354 10.5512 226.313 10.2672 226.272C10.186 226.272 10.1048 226.252 10.0034 226.232C9.88164 226.232 9.75989 226.191 9.63815 226.17C9.53669 226.17 9.43524 226.17 9.31349 226.15C9.27291 226.15 9.23233 226.15 9.21204 226.15H8.90768C8.76564 226.13 8.6236 226.109 8.48157 226.109H0V244.373H3.12479V227.25H8.76564C8.76564 227.25 8.86709 227.25 8.90768 227.27C9.00913 227.27 9.11059 227.27 9.21204 227.311C9.5164 227.351 9.7396 227.412 9.92222 227.453C9.92222 227.453 10.2266 227.535 10.2875 227.575L10.4092 227.616C10.5309 227.657 10.6324 227.698 10.7339 227.738L10.815 227.779C10.815 227.779 10.9165 227.82 10.9571 227.86L11.0585 227.901C11.0585 227.901 11.0991 227.922 11.1194 227.922C11.16 227.922 11.2005 227.962 11.2005 227.962C11.2614 227.983 11.302 228.023 11.3629 228.064L11.4643 228.125C11.4643 228.125 11.5252 228.166 11.5658 228.186C11.6064 228.207 11.6469 228.227 11.6875 228.268L11.7484 228.308C11.7484 228.308 11.8093 228.349 11.8701 228.39C11.8904 228.39 11.9107 228.41 11.931 228.431L11.9716 228.471C11.9716 228.471 12.0933 228.553 12.1542 228.614L12.3571 228.777L12.418 228.817L12.4789 228.858C12.4789 228.858 12.6006 228.96 12.6412 229.021L12.7426 229.123C12.7426 229.123 12.8847 229.265 13.0064 229.367C13.0876 229.449 13.1688 229.53 13.2296 229.611L13.4528 229.876C13.4528 229.876 13.4934 229.937 13.5137 229.978L13.5543 230.039C13.5543 230.039 13.6354 230.141 13.676 230.202L13.8789 230.507C13.8789 230.507 13.9398 230.589 13.9804 230.65C14.021 230.711 14.0413 230.752 14.1021 230.853C14.1427 230.915 14.1833 230.976 14.2036 231.037C14.2442 231.098 14.2645 231.159 14.305 231.22C14.3253 231.281 14.3659 231.322 14.3659 231.342C14.4065 231.424 14.4471 231.505 14.4877 231.607L14.6703 232.014C14.6703 232.014 14.7109 232.096 14.7311 232.157L14.8529 232.442C14.8529 232.442 14.8935 232.543 14.9138 232.625C14.9341 232.686 14.9543 232.727 14.9746 232.788V232.849L15.0152 232.89C15.0152 232.89 15.0558 233.032 15.0761 233.093C15.0964 233.175 15.1167 233.236 15.1573 233.317V233.378C15.4413 234.356 15.5834 235.394 15.5834 236.432C15.5834 236.636 15.5834 236.86 15.5834 237.084V237.125C15.5834 237.125 15.5834 237.247 15.5834 237.308V237.43C15.5834 237.43 15.5631 237.573 15.5428 237.674C15.5428 237.797 15.5428 237.919 15.5022 238.021C15.5022 238.061 15.5022 238.122 15.5022 238.163V238.245C15.5022 238.245 15.4616 238.367 15.4616 238.407V238.57C15.4616 238.57 15.421 238.631 15.421 238.672V238.754V238.774V238.876C15.3399 239.079 15.2993 239.283 15.2384 239.507L15.1573 239.792C15.0761 240.057 14.9746 240.301 14.8732 240.566C14.8326 240.647 14.8123 240.749 14.7717 240.83C14.4877 241.502 14.1224 242.134 13.6963 242.724C13.6557 242.785 13.6151 242.846 13.5543 242.907C13.392 243.131 13.189 243.355 12.9658 243.6C12.8847 243.681 12.8238 243.762 12.7426 243.823C12.073 244.455 11.3629 244.923 10.5918 245.208L10.5107 245.249C10.186 245.371 9.86135 245.473 9.55698 245.534C9.49611 245.534 9.41495 245.554 9.33378 245.575H9.19175C8.92797 245.636 8.68448 245.636 8.46128 245.636H0V246.776H8.4207C8.56273 246.776 8.72506 246.776 8.86709 246.776C9.07 246.776 9.2932 246.776 9.49611 246.735C9.65844 246.735 9.82076 246.694 9.9628 246.674C10.328 246.633 10.6527 246.552 10.9773 246.47C11.1194 246.43 11.2817 246.389 11.444 246.328C11.7078 246.246 11.9513 246.165 12.2151 246.063C12.3571 246.002 12.4992 245.941 12.6006 245.9L12.6818 245.86C12.6818 245.86 12.7629 245.819 12.8035 245.799C12.8441 245.799 12.8847 245.758 12.9253 245.737L13.0064 245.697C13.0064 245.697 13.1282 245.636 13.189 245.615C13.5137 245.452 13.8384 245.249 14.2239 244.984C14.3862 244.882 14.5282 244.76 14.7311 244.618C14.7514 244.618 14.7717 244.577 14.792 244.577C14.9138 244.475 15.0355 244.394 15.1167 244.292L15.2181 244.21C15.3602 244.088 15.5022 243.946 15.6442 243.823C15.7863 243.681 15.908 243.559 16.0501 243.376C16.1718 243.233 16.2935 243.111 16.3747 242.989C16.4153 242.948 16.4356 242.907 16.4964 242.826C16.5979 242.704 16.6791 242.581 16.7399 242.5C16.7399 242.5 16.7805 242.459 16.8211 242.398L16.8617 242.317C16.8617 242.317 16.9428 242.195 17.0037 242.113C17.0443 242.052 17.0849 241.991 17.1052 241.93C17.1863 241.808 17.2472 241.706 17.3081 241.584L17.3487 241.502C17.3487 241.502 17.4298 241.36 17.4704 241.299C17.5719 241.095 17.6733 240.912 17.7545 240.708C17.7951 240.627 17.8356 240.525 17.8762 240.444L17.9168 240.382C17.9777 240.22 18.0386 240.077 18.0791 239.935C18.1197 239.833 18.14 239.731 18.1806 239.629L18.2212 239.507L18.2618 239.364C18.2618 239.364 18.3226 239.181 18.3429 239.039C18.3429 238.957 18.3835 238.896 18.4038 238.794C18.4241 238.672 18.4647 238.55 18.4849 238.428V238.326C18.4849 238.326 18.5458 238.143 18.5458 238.082C18.5458 237.98 18.5864 237.858 18.5864 237.715C18.5864 237.613 18.6067 237.512 18.627 237.43C18.627 237.328 18.6473 237.227 18.6473 237.125V237.064V237.003C18.6473 236.84 18.6473 236.677 18.6473 236.494C18.6473 234.702 18.1806 232.951 17.3081 231.403C17.166 231.118 16.9834 230.833 16.7805 230.548L16.8414 230.487Z" fill="#160A00"/>
<path d="M116.408 226.944C118.661 226.944 120.751 228.247 122.171 230.487L122.252 230.609H125.296L125.012 230.222C123.023 227.432 119.817 225.783 116.408 225.783C110.585 225.783 105.837 230.548 105.837 236.391C105.837 242.235 110.585 246.999 116.408 246.999C119.797 246.999 123.023 245.33 125.012 242.561L125.296 242.174H122.252L122.171 242.296C120.751 244.556 118.661 245.839 116.408 245.839C112.33 245.839 109.023 241.604 109.023 236.391C109.023 231.179 112.33 226.944 116.408 226.944Z" fill="#160A00"/>
<path d="M27.5144 229.122C27.555 228.022 27.6158 226.964 27.7376 226.129H24.4302C24.5519 227.045 24.6128 228.104 24.6534 229.163C24.7142 230.262 24.7142 231.382 24.7142 232.563V240.341C24.7142 241.502 24.7142 242.662 24.6534 243.741C24.6128 244.841 24.5925 245.899 24.4708 246.775H27.7173C27.5955 245.859 27.555 244.78 27.5347 243.721C27.4738 242.621 27.4738 241.502 27.4738 240.341V232.563C27.4738 231.382 27.4738 230.221 27.5347 229.122H27.5144Z" fill="#160A00"/>
<path d="M143.558 239.995C142.929 238.488 142.279 236.941 141.63 235.251C140.981 233.601 140.291 231.973 139.642 230.303C139.053 228.796 138.465 227.432 137.937 226.129H136.74C135.279 229.529 133.778 232.93 132.296 236.289C130.734 239.75 129.172 243.253 127.569 246.795H129.618L132.824 239.262H140.474L140.534 239.445C141.306 241.502 141.914 243.171 142.279 244.413C142.645 245.635 142.908 246.409 142.99 246.795H146.48C146.175 246.144 145.769 245.228 145.262 244.047C144.755 242.866 144.207 241.522 143.578 240.015L143.558 239.995ZM133.27 238.081L133.351 237.898L136.679 230.079H136.74C137.389 231.586 137.978 232.991 138.526 234.294C139.053 235.617 139.52 236.798 139.966 237.898L140.027 238.081H133.27Z" fill="#160A00"/>
<path d="M91.1464 239.995C90.5174 238.488 89.8681 236.941 89.2188 235.251C88.5695 233.601 87.8796 231.973 87.2303 230.303C86.6418 228.796 86.0534 227.432 85.5258 226.129H84.3287C82.8677 229.529 81.3662 232.93 79.885 236.289C78.3226 239.75 76.7602 243.253 75.1572 246.795H77.2066L80.4126 239.262H88.0622L88.1231 239.445C88.8941 241.502 89.5028 243.171 89.8681 244.413C90.2333 245.635 90.4971 246.409 90.5783 246.795H94.0683C93.7639 246.144 93.3581 245.228 92.8508 244.047C92.3436 242.866 91.7957 241.522 91.1667 240.015L91.1464 239.995ZM80.8589 238.081L80.9401 237.898L84.2678 230.079H84.3287C84.978 231.586 85.5664 232.991 86.1143 234.294C86.6418 235.617 87.1085 236.798 87.5549 237.898L87.6158 238.081H80.8589Z" fill="#160A00"/>
<path d="M48.3935 239.995C47.7645 238.488 47.1152 236.941 46.4658 235.251C45.8165 233.601 45.1266 231.973 44.4773 230.303C43.8889 228.796 43.3005 227.432 42.7729 226.129H41.5758C40.1148 229.529 38.6133 232.93 37.1321 236.289C35.5697 239.75 34.0073 243.253 32.4043 246.795H34.4537L37.6596 239.262H45.3093L45.3701 239.445C46.1412 241.502 46.7499 243.171 47.1152 244.413C47.4804 245.635 47.7442 246.409 47.8253 246.795H51.3154C51.011 246.144 50.6052 245.228 50.0979 244.047C49.5906 242.866 49.0428 241.522 48.4138 240.015L48.3935 239.995ZM38.106 238.081L38.1872 237.898L41.5149 230.079H41.5758C42.2251 231.586 42.8135 232.991 43.3613 234.294C43.8889 235.617 44.3556 236.798 44.802 237.898L44.8629 238.081H38.106Z" fill="#160A00"/>
<path d="M195.441 239.995C194.812 238.488 194.163 236.941 193.514 235.251C192.864 233.601 192.174 231.973 191.525 230.303C190.937 228.796 190.348 227.432 189.821 226.129H188.624C187.163 229.529 185.661 232.93 184.18 236.289C182.618 239.75 181.055 243.253 179.452 246.795H181.502L184.707 239.262H192.357L192.418 239.445C193.189 241.502 193.798 243.171 194.163 244.413C194.528 245.635 194.792 246.409 194.873 246.795H198.363C198.059 246.144 197.653 245.228 197.146 244.047C196.638 242.866 196.091 241.522 195.462 240.015L195.441 239.995ZM185.154 238.081L185.235 237.898L188.563 230.079H188.624C189.273 231.586 189.861 232.991 190.409 234.294C190.937 235.617 191.403 236.798 191.85 237.898L191.911 238.081H185.154Z" fill="#160A00"/>
<path d="M237.098 239.995C236.469 238.488 235.82 236.941 235.171 235.251C234.521 233.601 233.831 231.973 233.182 230.303C232.594 228.796 232.005 227.432 231.478 226.129H230.281C228.82 229.529 227.318 232.93 225.837 236.289C224.275 239.75 222.712 243.253 221.109 246.795H223.159L226.364 239.262H234.014L234.075 239.445C234.846 241.502 235.455 243.171 235.82 244.413C236.185 245.635 236.449 246.409 236.53 246.795H240.02C239.716 246.144 239.31 245.228 238.803 244.047C238.295 242.866 237.748 241.522 237.119 240.015L237.098 239.995ZM226.811 238.081L226.892 237.898L230.22 230.079H230.281C230.93 231.586 231.518 232.991 232.066 234.294C232.594 235.617 233.06 236.798 233.507 237.898L233.568 238.081H226.811Z" fill="#160A00"/>
<path d="M172.107 226.11H170.91L163.118 242.277H162.976L156.239 226.11H155.042C154.799 227.576 154.515 229.144 154.21 230.793C153.865 232.646 153.52 234.478 153.155 236.352C152.81 238.266 152.445 240.078 152.1 241.849C151.735 243.641 151.39 245.249 151.065 246.756H153.054L155.59 231.526H155.732L161.88 245.942H163.098L169.814 231.608H169.936C170.24 234.112 170.565 236.616 170.869 239.08C171.153 241.544 171.437 244.109 171.681 246.736H174.826C174.258 243.336 173.73 239.915 173.243 236.515C172.817 233.236 172.492 229.755 172.086 226.069L172.107 226.11Z" fill="#160A00"/>
<path d="M70.5716 35.1018L66.6554 31.3553L70.1658 27.6293L68.928 26.4483L65.3974 30.154L62.1509 27.0592L66.2091 22.7833L64.9713 21.582L59.4116 27.4257L69.0701 36.6696L70.5716 35.1018Z" fill="#160A00"/>
<path d="M72.1544 23.9851C72.9051 25.0643 73.8182 25.8583 74.8936 26.3877C75.9691 26.9171 77.085 27.1207 78.2619 27.0189C79.4388 26.9171 80.5548 26.4895 81.6302 25.7362C82.4215 25.1864 83.0708 24.5349 83.5781 23.7611C84.0854 23.0078 84.4303 22.173 84.613 21.2975C84.7956 20.4219 84.7956 19.526 84.613 18.5894C84.4303 17.6732 84.0245 16.7773 83.4158 15.9018C82.6447 14.8226 81.7519 14.0082 80.6765 13.4992C79.6011 12.9901 78.5054 12.7865 77.3285 12.868C76.172 12.9698 75.056 13.377 73.9806 14.1304C73.1892 14.7005 72.5399 15.352 72.0326 16.1257C71.5254 16.8995 71.1804 17.7139 70.9978 18.5894C70.8152 19.465 70.8152 20.3608 70.9978 21.2771C71.1804 22.1933 71.5862 23.0892 72.195 23.9648L72.1544 23.9851ZM73.0472 17.5103C73.3515 16.7977 73.8385 16.2072 74.5284 15.7185C75.2792 15.1891 76.0705 14.9244 76.9227 14.8837C77.7749 14.843 78.6069 15.0466 79.4388 15.4742C80.2707 15.9018 81.0215 16.5941 81.6708 17.5307C82.2592 18.3655 82.6244 19.2003 82.7665 20.0351C82.9085 20.8699 82.8476 21.6436 82.5433 22.3562C82.2389 23.0689 81.7519 23.6797 81.0215 24.1887C80.3113 24.6978 79.52 24.9624 78.6677 25.0032C77.8155 25.0439 76.9836 24.8403 76.1517 24.4127C75.3197 23.9648 74.5893 23.2928 73.94 22.3562C73.3515 21.5011 72.9863 20.6663 72.8443 19.8315C72.7022 18.9967 72.7834 18.2229 73.0675 17.5103H73.0472Z" fill="#160A00"/>
<path d="M89.8684 20.1771L91.7149 19.4441L87.6364 9.69113L99.0399 16.5324L99.121 16.4917L99.3645 16.4103L99.8515 16.2067L100.683 15.8809L95.7527 3.41992L93.9063 4.15292L97.8021 13.3968L86.9465 6.92202L86.1755 7.22744L84.958 7.71611L89.8684 20.1771Z" fill="#160A00"/>
<path d="M108.475 14.2733C109.875 14.0697 111.011 13.6828 111.924 13.1331C112.837 12.5833 113.527 11.9318 114.035 11.1581C114.542 10.4047 114.867 9.59025 115.009 8.71473C115.171 7.8392 115.171 7.0044 115.049 6.18996C114.907 5.19226 114.582 4.3371 114.095 3.6041C113.608 2.8711 113 2.28063 112.269 1.85305C111.539 1.42547 110.666 1.12005 109.733 0.977525C108.779 0.834997 107.765 0.834997 106.71 0.997886L102.428 1.64944L104.437 14.8841L108.475 14.2733ZM106.608 2.62677C107.927 2.42316 109.002 2.5046 109.875 2.85074C110.747 3.19688 111.437 3.72627 111.904 4.4389C112.391 5.15154 112.695 5.96598 112.837 6.88223C112.939 7.53379 112.939 8.18534 112.878 8.79617C112.797 9.407 112.594 9.99747 112.269 10.5269C111.945 11.0562 111.478 11.5246 110.849 11.8911C110.22 12.2576 109.408 12.5222 108.414 12.6851L106.324 13.0109L104.802 2.91183L106.588 2.64713L106.608 2.62677Z" fill="#160A00"/>
<path d="M121.481 9.18284L126.453 9.46789L127.69 13.6419L130.044 13.7844L125.641 0.101805L123.774 0L117.606 13.0718L119.797 13.194L121.481 9.18284ZM124.342 2.38224L125.925 7.71684L122.171 7.51323L124.342 2.38224Z" fill="#160A00"/>
<path d="M134.224 14.8233L136.395 15.3323L139.053 3.95045L143.578 5.02958L143.963 3.35997L137.836 1.91434L137.268 1.77181L132.783 0.733398L132.398 2.38264L136.882 3.44142L134.224 14.8233Z" fill="#160A00"/>
<path d="M148.381 5.09532L143.49 17.5615L145.585 18.3895L150.477 5.92328L148.381 5.09532Z" fill="#160A00"/>
<path d="M154.352 23.0882C155.184 23.5972 156.036 23.923 156.929 24.0655C157.822 24.2284 158.715 24.208 159.587 24.0248C160.46 23.8415 161.271 23.475 162.042 22.9253C162.814 22.3755 163.463 21.6629 164.011 20.7466C164.701 19.6064 165.046 18.4458 165.086 17.2649C165.127 16.0839 164.863 14.9641 164.295 13.946C163.727 12.928 162.895 12.0728 161.799 11.4009C160.967 10.8919 160.095 10.5661 159.202 10.4236C158.289 10.281 157.396 10.281 156.523 10.4643C155.651 10.6475 154.819 11.014 154.068 11.5638C153.297 12.1135 152.648 12.8262 152.1 13.7424C151.43 14.8623 151.065 16.0229 151.025 17.2242C150.984 18.4051 151.248 19.525 151.816 20.5634C152.384 21.6018 153.216 22.457 154.352 23.1289V23.0882ZM154.332 14.679C154.86 13.8035 155.489 13.1112 156.178 12.6429C156.889 12.1746 157.619 11.9303 158.39 11.9099C159.161 11.9099 159.912 12.0932 160.622 12.5411C161.393 13.0094 161.982 13.6203 162.347 14.394C162.732 15.1473 162.895 16.0025 162.834 16.9391C162.773 17.8757 162.448 18.8327 161.86 19.81C161.332 20.6855 160.724 21.3575 160.013 21.8258C159.303 22.2941 158.573 22.5384 157.802 22.5588C157.031 22.5791 156.26 22.3755 155.509 21.9072C154.758 21.4389 154.19 20.8484 153.804 20.0747C153.419 19.3214 153.277 18.4662 153.338 17.5296C153.399 16.593 153.723 15.636 154.312 14.6587L154.332 14.679Z" fill="#160A00"/>
<path d="M162.712 28.4232L164.133 29.8078L171.336 22.1113L169.753 35.346L169.814 35.4071L171.011 36.588L180.345 27.0183L178.925 25.6134L172.107 32.9434L173.588 20.3602L173.263 20.0548L172.918 19.7087L172.574 19.3625L172.046 18.8535L162.712 28.4232Z" fill="#160A00"/>
</svg>
