<svg width="80" height="80" viewBox="0 0 80 80" fill="none" xmlns="http://www.w3.org/2000/svg">
<g clip-path="url(#clip0_4203_969)">
<path d="M40.0042 79.5976C61.8711 79.5976 79.5977 61.871 79.5977 40.0041C79.5977 18.1372 61.8711 0.410522 40.0042 0.410522C18.1373 0.410522 0.410645 18.1372 0.410645 40.0041C0.410645 61.871 18.1373 79.5976 40.0042 79.5976Z" stroke="#0A4BA5" stroke-miterlimit="10"/>
<path d="M40.0041 5.09082C20.7164 5.09082 5.09082 20.7164 5.09082 40.0041C5.09082 59.2918 20.7246 74.9174 40.0041 74.9174C59.2836 74.9174 74.9174 59.2836 74.9174 40.0041C74.9174 20.7246 59.2836 5.09082 40.0041 5.09082ZM21.2501 52.8133V30.3644C22.1041 30.2166 23.1879 30.0523 24.2718 30.2001V49.6028C24.2718 50.1447 24.6659 50.6045 25.1996 50.6784C25.2653 50.6866 29.067 51.2778 33.1972 53.2813C28.2377 52.3124 23.4507 52.5998 21.2501 52.8133ZM26.4641 48.6914V26.8254C27.2688 26.9568 28.3773 27.277 29.4858 27.9257V46.3758C29.4858 46.8028 29.7403 47.1969 30.1344 47.3694C30.1755 47.3858 33.1561 48.7653 36.0546 52.3124C32.1708 50.038 28.2213 49.0444 26.4559 48.6831L26.4641 48.6914ZM39.1419 52.8215C36.3338 48.601 33.0494 46.4662 31.6699 45.7025V25.0847C36.966 28.3855 38.8874 32.8441 39.1419 33.4928V52.8133V52.8215ZM40.8662 33.501C41.129 32.8523 43.0422 28.3937 48.3383 25.0929V45.7108C46.9588 46.4662 43.6662 48.601 40.858 52.8297V33.5092L40.8662 33.501ZM43.9454 52.3124C46.8439 48.7653 49.8327 47.3858 49.8655 47.3694C50.2597 47.1969 50.5142 46.8028 50.5142 46.3758V27.9257C51.6227 27.277 52.7312 26.9568 53.5359 26.8254V48.6914C51.7787 49.0526 47.821 50.0462 43.9372 52.3206L43.9454 52.3124ZM58.7499 52.8133C56.5411 52.5998 51.7623 52.3206 46.8028 53.2813C50.9248 51.286 54.7347 50.6948 54.8004 50.6784C55.3341 50.5963 55.7364 50.1365 55.7364 49.6028V30.2001C56.8203 30.0523 57.9123 30.2248 58.7581 30.3644V52.8133H58.7499Z" fill="#0A4BA5"/>
</g>
<defs>
<clipPath id="clip0_4203_969">
<rect width="80" height="80" fill="white"/>
</clipPath>
</defs>
</svg>
