<svg width="82" height="82" viewBox="0 0 82 82" fill="none" xmlns="http://www.w3.org/2000/svg">
<path d="M41 81C63.0914 81 81 63.0914 81 41C81 18.9086 63.0914 1 41 1C18.9086 1 1 18.9086 1 41C1 63.0914 18.9086 81 41 81Z" stroke="#0A4BA5" stroke-miterlimit="10"/>
<path d="M62.3618 36.1282C62.6957 36.3035 63.1048 36.1783 63.2802 35.8527C63.4555 35.5187 63.3303 35.1263 63.0047 34.951C62.9212 34.9092 62.8293 34.8758 62.7458 34.8675C62.487 34.8424 62.2198 34.9844 62.0862 35.2265C61.9109 35.5605 62.0361 35.9529 62.3618 36.1282Z" fill="#0A4BA5"/>
<path d="M41.0046 5.50305C21.3921 5.50305 5.50342 21.3917 5.50342 41.0042C5.50342 60.6166 21.4004 76.5053 41.0046 76.5053C60.6087 76.5053 76.5057 60.6083 76.5057 41.0042C76.5057 21.4001 60.6087 5.50305 41.0046 5.50305ZM17.3427 46.9238L21.6843 38.7248L24.4312 40.1693L20.0729 48.3682L17.3427 46.9238ZM41.1214 57.7695C39.4098 58.3707 37.1806 59.0303 35.4189 58.4291C33.2397 57.686 30.9687 57.1517 28.9482 56.0329C27.6207 55.2981 26.8191 53.8788 25.8924 52.7099C24.8153 51.3489 24.114 49.6707 22.7697 48.5686C22.3105 48.1929 21.9515 47.9174 21.5173 47.4999L24.6066 41.6638C26.1345 41.931 27.9713 42.5154 29.5493 43.3587C30.0169 43.6092 30.4511 43.868 30.8602 44.1602C32.1376 45.0703 32.8223 46.5481 33.9494 47.5918C35.4523 48.9777 37.3559 49.8544 38.8003 51.3573C39.8023 52.4009 38.6834 54.2962 37.406 53.9205C36.162 53.5532 35.1684 52.593 34.0246 51.9835C33.2063 51.541 32.3547 50.7394 31.4613 50.7144C32.4883 52.5596 34.5255 53.5198 36.4208 54.2795C37.6147 54.7554 38.8838 54.697 40.0861 54.4298C41.1298 54.196 42.7412 54.4131 42.8497 55.5319C42.9416 56.5338 42.6744 57.2185 41.1214 57.7695ZM44.6365 44.8198C43.3256 46.0138 41.7226 47.1326 40.2782 48.5519C38.8337 47.1326 37.2307 46.0138 35.9198 44.8198C34.2583 43.3086 32.864 41.8391 32.8473 39.5264C32.8306 37.5142 34.2416 36.3787 35.9866 36.3703C37.8819 36.362 39.1093 37.8482 40.2782 39.0338C41.4387 37.8482 42.6744 36.3787 44.5697 36.3703C46.3731 36.3703 47.709 37.5142 47.6923 39.5264C47.6756 41.8308 46.2896 43.3086 44.6365 44.8198ZM52.4598 38.658C51.9922 38.4076 51.5413 38.132 51.1322 37.8398C49.8548 36.9297 49.1868 35.4686 48.0597 34.425C46.5568 33.039 44.6365 32.1623 43.1921 30.6594C42.1901 29.6158 43.3256 27.7205 44.6031 28.0962C45.8471 28.4636 46.8407 29.4237 47.9845 30.0332C48.8028 30.4757 49.6544 31.2689 50.5478 31.3023C49.5208 29.4571 47.4836 28.497 45.5883 27.7372C44.3944 27.2613 43.1086 27.3197 41.9063 27.5869C40.8626 27.8207 39.2679 27.6036 39.1594 26.4848C39.0675 25.4829 39.3347 24.7982 40.8877 24.2472C42.1735 23.7963 43.7431 23.3037 45.1959 23.3455C45.6801 23.3622 46.1561 23.4457 46.5902 23.5959C48.6358 24.2973 50.7565 24.8149 52.6852 25.8001C52.8104 25.8669 52.9357 25.9421 53.0609 26.0172C54.3884 26.752 55.19 28.1546 56.1167 29.3235C57.1938 30.6845 57.8951 32.3627 59.2394 33.4648C59.6986 33.8405 60.0576 34.116 60.4918 34.5335L57.4025 40.3696C55.8746 40.1025 54.0378 39.518 52.4598 38.6747V38.658ZM60.3331 43.3086L57.5862 41.8475L61.9445 33.6485L64.6748 35.0929L60.3331 43.3086Z" fill="#0A4BA5"/>
<path d="M19.6384 45.8886C19.5549 45.8468 19.4631 45.8134 19.3796 45.8051C19.1124 45.78 18.8536 45.922 18.72 46.1641C18.5447 46.4981 18.6699 46.9072 18.9955 47.0825C19.3295 47.2579 19.7386 47.1159 19.914 46.7903C20.0893 46.4563 19.9641 46.0639 19.6384 45.8886Z" fill="#0A4BA5"/>
</svg>
