<svg width="80" height="80" viewBox="0 0 80 80" fill="none" xmlns="http://www.w3.org/2000/svg">
<g clip-path="url(#clip0_4429_1445)">
<path d="M40.0042 79.5976C61.8711 79.5976 79.5978 61.871 79.5978 40.0041C79.5978 18.1372 61.8711 0.410522 40.0042 0.410522C18.1373 0.410522 0.410645 18.1372 0.410645 40.0041C0.410645 61.871 18.1373 79.5976 40.0042 79.5976Z" stroke="#0A4BA5" stroke-miterlimit="10"/>
<path d="M36.071 46.1706L36.424 46.5154C36.7689 46.7782 37.1712 46.8849 37.5818 46.8193L40.3325 46.1213L54.7346 42.4838V38.2469L38.0745 42.3935L37.0973 42.6398C37.0973 42.6398 37.0399 42.6398 37.0152 42.6563C36.1941 42.8451 35.5947 43.7237 35.5947 44.7254C35.5947 45.2592 35.7672 45.7682 36.0628 46.1624L36.071 46.1706Z" fill="#0A4BA5"/>
<path d="M37.4999 40.3325L28.8127 31.8669L26.7599 32.4663L26.6368 32.4992C26.6368 32.4992 26.6039 32.4992 26.5957 32.5074L35.439 41.1208C35.8413 40.8087 36.3093 40.5953 36.8102 40.5049L37.4999 40.3325Z" fill="#0A4BA5"/>
<path d="M37.8528 48.9623L37.1056 49.1511C36.2517 49.3072 35.603 50.1939 35.603 51.2367C35.603 51.8526 35.8247 52.4273 36.2106 52.8297L36.3338 52.9528C36.6951 53.2649 37.1385 53.3962 37.5819 53.3306L54.7429 48.9459V44.709L43.5677 47.5254L37.8528 48.9623Z" fill="#0A4BA5"/>
<path d="M40.0041 5.08264C20.7246 5.08264 5.09082 20.7164 5.09082 39.9959C5.09082 59.2754 20.7246 74.9092 40.0041 74.9092C59.2836 74.9092 74.9174 59.2836 74.9174 39.9959C74.9174 20.7082 59.2836 5.08264 40.0041 5.08264ZM56.5493 44.241V50.6867L37.861 55.4655C37.6886 55.4983 37.5244 55.5065 37.3437 55.5065C36.8182 55.5065 36.2927 55.367 35.8247 55.096C35.603 54.981 35.3977 54.825 35.2089 54.6526L35.02 54.4637L24.863 44.5695L24.4031 44.1179L24.3867 44.0932L24.1979 43.8305C24.0337 43.6088 23.8859 43.3624 23.7709 43.0915C23.4835 42.4674 23.3275 41.7531 23.3275 41.0305C23.3275 39.9959 23.6313 39.0024 24.1979 38.2305C24.2964 38.091 24.4031 37.9678 24.5181 37.8446L24.1814 37.3438L24.1322 37.2699C23.968 37.0317 23.8284 36.7772 23.7216 36.5062C23.4671 35.915 23.3357 35.2582 23.3357 34.5684C23.3357 33.542 23.6395 32.5485 24.2061 31.7685C24.6987 31.1034 25.3228 30.6353 26.0207 30.4301H26.0454C26.0454 30.4301 26.0946 30.4137 26.111 30.3972H26.1275C26.1932 30.3726 26.267 30.3644 26.3327 30.348L40.2915 26.2835L41.0223 26.07L41.6791 26.497L55.8021 35.759L56.5657 36.2599V44.2246L56.5493 44.241Z" fill="#0A4BA5"/>
</g>
<defs>
<clipPath id="clip0_4429_1445">
<rect width="80" height="80" fill="white"/>
</clipPath>
</defs>
</svg>
