<svg width="52" height="55" viewBox="0 0 52 55" fill="none" xmlns="http://www.w3.org/2000/svg">
<path d="M25.9998 0.0839844C19.4623 0.0839844 14.1626 5.37522 14.1626 11.9023C14.1626 18.4293 19.4623 23.7145 25.9998 23.7145C32.5374 23.7145 37.8371 18.4233 37.8371 11.9023C37.8371 5.38121 32.5374 0.0839844 25.9998 0.0839844ZM29.3828 12.5322L26.4145 15.4957C26.1861 15.7237 25.8136 15.7237 25.5852 15.4957L22.6169 12.5322C22.2504 12.1662 22.5088 11.5363 23.0315 11.5363H24.732V6.28108C24.732 5.95113 25.0024 5.68717 25.3269 5.68717H26.6668C26.9973 5.68717 27.2617 5.95713 27.2617 6.28108V11.5363H28.9622C29.4849 11.5363 29.7433 12.1662 29.3768 12.5322H29.3828Z" fill="#F06419"/>
<rect x="1.20166" y="17.7814" width="49.2718" height="35.9948" rx="3" fill="#FAF2D7"/>
<path d="M48.5988 16.7616H3.40096C1.52022 16.7616 0 18.2793 0 20.1571V51.5805C0 53.4522 1.52022 54.976 3.40096 54.976H48.5988C50.4735 54.976 51.9998 53.4522 51.9998 51.5805V20.1571C51.9998 18.2793 50.4735 16.7616 48.5988 16.7616ZM1.80263 24.0025L18.1945 35.8688L1.80263 47.7351V24.0025ZM50.065 51.8984C49.9448 52.2764 49.5602 53.1523 48.5988 53.1763H3.40096C2.43955 53.1523 2.05499 52.2764 1.92881 51.8984C1.8507 51.6525 1.80263 51.3765 1.80263 51.0946C1.80263 50.4527 2.03697 49.7928 2.63184 49.3608L19.7267 36.9786L24.1312 40.1702C24.702 40.5781 25.3509 40.7821 25.9999 40.7821C26.6488 40.7821 27.2978 40.5781 27.8686 40.1702L32.273 36.9846L49.3679 49.3608C49.9568 49.7868 50.1972 50.4467 50.1972 51.0886C50.1972 51.3705 50.1491 51.6465 50.065 51.8984ZM50.1972 47.7351L33.8053 35.8688L50.1972 24.0025V47.7351ZM49.3679 22.3767L32.273 34.7529L30.7348 35.8688L26.8051 38.7124C26.5587 38.8923 26.2823 38.9823 25.9999 38.9823C25.7175 38.9823 25.4411 38.8923 25.1887 38.7124L21.265 35.8688L19.7267 34.7589L2.63184 22.3767C2.03697 21.9448 1.80263 21.2849 1.80263 20.643C1.80263 20.361 1.8507 20.0851 1.92881 19.8331C2.05499 19.4552 2.43955 18.5853 3.40096 18.5613H48.5988C49.5602 18.5853 49.9448 19.4552 50.065 19.8331C50.1491 20.0851 50.1972 20.367 50.1972 20.649C50.1972 21.2909 49.9568 21.9508 49.3679 22.3767Z" fill="#160A00"/>
</svg>
