<svg width="52" height="55" viewBox="0 0 52 55" fill="none" xmlns="http://www.w3.org/2000/svg">
<path d="M25.9999 23.9725C19.4624 23.9725 14.1627 29.2638 14.1627 35.7908C14.1627 42.3179 19.4624 47.6031 25.9999 47.6031C32.5374 47.6031 37.8372 42.3119 37.8372 35.7908C37.8372 29.2698 32.5374 23.9725 25.9999 23.9725ZM29.3828 36.4207L26.4145 39.3843C26.1862 39.6123 25.8136 39.6123 25.5853 39.3843L22.617 36.4207C22.2504 36.0548 22.5088 35.4249 23.0316 35.4249H24.7321V30.1696C24.7321 29.8397 25.0025 29.5757 25.3269 29.5757H26.6669C26.9974 29.5757 27.2617 29.8457 27.2617 30.1696V35.4249H28.9622C29.485 35.4249 29.7434 36.0548 29.3768 36.4207H29.3828Z" fill="#F06419"/>
<rect x="1.20175" y="17.7814" width="49.2718" height="35.9948" rx="3" fill="#FAF2D7"/>
<path d="M48.5988 16.7616H3.40096C1.52022 16.7616 0 18.2793 0 20.1571V51.5805C0 53.4522 1.52022 54.976 3.40096 54.976H48.5988C50.4735 54.976 51.9998 53.4522 51.9998 51.5805V20.1571C51.9998 18.2793 50.4735 16.7616 48.5988 16.7616ZM1.80263 24.0025L18.1945 35.8688L1.80263 47.7351V24.0025ZM50.065 51.8984C49.9448 52.2764 49.5602 53.1523 48.5988 53.1763H3.40096C2.43955 53.1523 2.05499 52.2764 1.92881 51.8984C1.8507 51.6525 1.80263 51.3765 1.80263 51.0946C1.80263 50.4527 2.03697 49.7928 2.63184 49.3608L19.7267 36.9786L24.1312 40.1702C24.702 40.5781 25.3509 40.7821 25.9999 40.7821C26.6488 40.7821 27.2978 40.5781 27.8686 40.1702L32.273 36.9846L49.3679 49.3608C49.9568 49.7868 50.1972 50.4467 50.1972 51.0886C50.1972 51.3705 50.1491 51.6465 50.065 51.8984ZM50.1972 47.7351L33.8053 35.8688L50.1972 24.0025V47.7351ZM49.3679 22.3767L32.273 34.7529L30.7348 35.8688L26.8051 38.7124C26.5587 38.8923 26.2823 38.9823 25.9999 38.9823C25.7175 38.9823 25.4411 38.8923 25.1887 38.7124L21.265 35.8688L19.7267 34.7589L2.63184 22.3767C2.03697 21.9448 1.80263 21.2849 1.80263 20.643C1.80263 20.361 1.8507 20.0851 1.92881 19.8331C2.05499 19.4552 2.43955 18.5853 3.40096 18.5613H48.5988C49.5602 18.5853 49.9448 19.4552 50.065 19.8331C50.1491 20.0851 50.1972 20.367 50.1972 20.649C50.1972 21.2909 49.9568 21.9508 49.3679 22.3767Z" fill="#160A00"/>
<path d="M6.88427 11.12C6.21227 11.12 5.60427 11.02 5.06027 10.82C4.52427 10.62 4.06027 10.332 3.66827 9.956C3.27627 9.572 2.97627 9.1 2.76827 8.54C2.56027 7.98 2.45627 7.34 2.45627 6.62C2.45627 5.9 2.56027 5.264 2.76827 4.712C2.97627 4.152 3.27627 3.684 3.66827 3.308C4.06027 2.924 4.52427 2.632 5.06027 2.432C5.60427 2.232 6.21227 2.132 6.88427 2.132C7.64427 2.132 8.32027 2.264 8.91227 2.528C9.51227 2.792 9.99227 3.164 10.3523 3.644C10.7203 4.116 10.9403 4.668 11.0123 5.3H8.82827C8.76427 5.036 8.64027 4.804 8.45627 4.604C8.28027 4.404 8.05627 4.248 7.78427 4.136C7.52027 4.024 7.22027 3.968 6.88427 3.968C6.43627 3.968 6.04427 4.064 5.70827 4.256C5.38027 4.44 5.12427 4.728 4.94027 5.12C4.75627 5.512 4.66427 6.012 4.66427 6.62C4.66427 7.076 4.71627 7.476 4.82027 7.82C4.93227 8.156 5.08427 8.432 5.27627 8.648C5.46827 8.864 5.70027 9.024 5.97227 9.128C6.24427 9.232 6.54827 9.284 6.88427 9.284C7.21227 9.284 7.50827 9.228 7.77227 9.116C8.04427 9.004 8.27227 8.848 8.45627 8.648C8.64827 8.448 8.77227 8.212 8.82827 7.94H11.0123C10.9403 8.572 10.7163 9.128 10.3403 9.608C9.97227 10.088 9.49227 10.46 8.90027 10.724C8.30827 10.988 7.63627 11.12 6.88427 11.12ZM14.9426 11.12C14.4466 11.12 13.9986 11.048 13.5986 10.904C13.1986 10.752 12.8506 10.532 12.5546 10.244C12.2666 9.948 12.0426 9.592 11.8826 9.176C11.7306 8.76 11.6546 8.288 11.6546 7.76C11.6546 7.088 11.7826 6.504 12.0386 6.008C12.2946 5.504 12.6666 5.112 13.1546 4.832C13.6506 4.544 14.2466 4.4 14.9426 4.4C15.4386 4.4 15.8866 4.476 16.2866 4.628C16.6866 4.772 17.0306 4.992 17.3186 5.288C17.6066 5.576 17.8266 5.928 17.9786 6.344C18.1386 6.752 18.2186 7.224 18.2186 7.76C18.2186 8.424 18.0906 9.008 17.8346 9.512C17.5786 10.016 17.2066 10.412 16.7186 10.7C16.2306 10.98 15.6386 11.12 14.9426 11.12ZM14.9426 9.476C15.1906 9.476 15.4066 9.416 15.5906 9.296C15.7746 9.176 15.9186 8.988 16.0226 8.732C16.1266 8.476 16.1786 8.152 16.1786 7.76C16.1786 7.464 16.1466 7.208 16.0826 6.992C16.0266 6.768 15.9426 6.588 15.8306 6.452C15.7266 6.308 15.5986 6.204 15.4466 6.14C15.3026 6.068 15.1346 6.032 14.9426 6.032C14.6946 6.032 14.4746 6.096 14.2826 6.224C14.0986 6.344 13.9546 6.532 13.8506 6.788C13.7546 7.036 13.7066 7.36 13.7066 7.76C13.7066 8.056 13.7346 8.316 13.7906 8.54C13.8466 8.756 13.9266 8.936 14.0306 9.08C14.1426 9.216 14.2746 9.316 14.4266 9.38C14.5866 9.444 14.7586 9.476 14.9426 9.476ZM19.2683 11V4.52H21.2243L21.2963 5.636H21.3923C21.5603 5.22 21.8203 4.912 22.1723 4.712C22.5323 4.504 22.9323 4.4 23.3723 4.4C23.6923 4.4 23.9883 4.448 24.2603 4.544C24.5403 4.64 24.7843 4.796 24.9923 5.012C25.2003 5.22 25.3603 5.496 25.4723 5.84C25.5923 6.176 25.6523 6.584 25.6523 7.064V11H23.6243V7.508C23.6243 7.18 23.5843 6.908 23.5043 6.692C23.4323 6.476 23.3163 6.316 23.1563 6.212C23.0043 6.1 22.8003 6.044 22.5443 6.044C22.2723 6.044 22.0443 6.108 21.8603 6.236C21.6763 6.364 21.5363 6.528 21.4403 6.728C21.3443 6.928 21.2963 7.14 21.2963 7.364V11H19.2683ZM29.2609 11C28.6689 11 28.2329 10.864 27.9529 10.592C27.6809 10.312 27.5449 9.872 27.5449 9.272V6.152H26.4289V4.52H27.5449V2.804L29.5729 2.624V4.52H30.8089V6.152H29.5729V8.888C29.5729 9.072 29.6169 9.2 29.7049 9.272C29.8009 9.336 29.9249 9.368 30.0769 9.368H30.8209V11H29.2609ZM34.2171 11.12C33.8251 11.12 33.4651 11.044 33.1371 10.892C32.8171 10.74 32.5411 10.52 32.3091 10.232C32.0771 9.944 31.8971 9.592 31.7691 9.176C31.6491 8.76 31.5891 8.288 31.5891 7.76C31.5891 7.048 31.6971 6.444 31.9131 5.948C32.1371 5.444 32.4451 5.06 32.8371 4.796C33.2291 4.532 33.6891 4.4 34.2171 4.4C34.5211 4.4 34.8011 4.448 35.0571 4.544C35.3211 4.632 35.5451 4.764 35.7291 4.94C35.9131 5.108 36.0491 5.308 36.1371 5.54H36.2451L36.3171 4.52H38.2491V11H36.3171L36.2451 9.98H36.1371C36.0091 10.324 35.7691 10.6 35.4171 10.808C35.0731 11.016 34.6731 11.12 34.2171 11.12ZM34.9611 9.488C35.2491 9.488 35.4851 9.428 35.6691 9.308C35.8531 9.18 35.9891 9.008 36.0771 8.792C36.1731 8.576 36.2211 8.332 36.2211 8.06V7.46C36.2211 7.172 36.1691 6.92 36.0651 6.704C35.9691 6.488 35.8291 6.324 35.6451 6.212C35.4691 6.092 35.2571 6.032 35.0091 6.032C34.6971 6.032 34.4411 6.104 34.2411 6.248C34.0411 6.384 33.8931 6.584 33.7971 6.848C33.7011 7.104 33.6531 7.408 33.6531 7.76C33.6531 8.104 33.6971 8.408 33.7851 8.672C33.8811 8.928 34.0251 9.128 34.2171 9.272C34.4091 9.416 34.6571 9.488 34.9611 9.488ZM42.5515 11.12C42.0555 11.12 41.6075 11.04 41.2075 10.88C40.8075 10.72 40.4635 10.492 40.1755 10.196C39.8875 9.9 39.6675 9.548 39.5155 9.14C39.3635 8.724 39.2875 8.26 39.2875 7.748C39.2875 7.244 39.3635 6.788 39.5155 6.38C39.6755 5.964 39.8995 5.608 40.1875 5.312C40.4835 5.016 40.8355 4.792 41.2435 4.64C41.6515 4.48 42.1035 4.4 42.5995 4.4C43.1755 4.4 43.6835 4.508 44.1235 4.724C44.5635 4.932 44.9115 5.224 45.1675 5.6C45.4315 5.976 45.5715 6.416 45.5875 6.92H43.6075C43.5755 6.72 43.5075 6.556 43.4035 6.428C43.3075 6.3 43.1875 6.204 43.0435 6.14C42.8995 6.076 42.7395 6.044 42.5635 6.044C42.3555 6.044 42.1755 6.084 42.0235 6.164C41.8715 6.244 41.7435 6.36 41.6395 6.512C41.5435 6.664 41.4675 6.844 41.4115 7.052C41.3635 7.26 41.3395 7.496 41.3395 7.76C41.3395 8.152 41.3915 8.476 41.4955 8.732C41.5995 8.98 41.7395 9.168 41.9155 9.296C42.0995 9.416 42.3115 9.476 42.5515 9.476C42.7675 9.476 42.9515 9.436 43.1035 9.356C43.2555 9.276 43.3755 9.172 43.4635 9.044C43.5595 8.908 43.6195 8.752 43.6435 8.576H45.5995C45.5835 9.088 45.4395 9.536 45.1675 9.92C44.9035 10.296 44.5435 10.592 44.0875 10.808C43.6395 11.016 43.1275 11.12 42.5515 11.12ZM48.9601 11C48.3681 11 47.9321 10.864 47.6521 10.592C47.3801 10.312 47.2441 9.872 47.2441 9.272V6.152H46.1281V4.52H47.2441V2.804L49.2721 2.624V4.52H50.5081V6.152H49.2721V8.888C49.2721 9.072 49.3161 9.2 49.4041 9.272C49.5001 9.336 49.6241 9.368 49.7761 9.368H50.5201V11H48.9601Z" fill="#160A00"/>
</svg>
