<svg width="52" height="55" viewBox="0 0 52 55" fill="none" xmlns="http://www.w3.org/2000/svg">
<path d="M25.9999 24.1885C19.4624 24.1885 14.1627 29.4797 14.1627 36.0068C14.1627 42.5338 19.4624 47.819 25.9999 47.819C32.5374 47.819 37.8372 42.5278 37.8372 36.0068C37.8372 29.4857 32.5374 24.1885 25.9999 24.1885ZM28.9142 40.2961C28.3974 40.8301 27.6523 41.16 26.6909 41.28V42.5938C26.6248 42.6118 26.5287 42.6358 26.4025 42.6598C26.2823 42.6838 26.1381 42.6898 25.9819 42.6898C25.399 42.6898 25.1106 42.4498 25.1106 41.9699V41.316C24.2634 41.238 23.5904 41.046 23.0797 40.7521C22.5689 40.4521 22.3165 40.1222 22.3165 39.7502C22.3165 39.5282 22.3826 39.3363 22.5148 39.1803C22.653 39.0243 22.8093 38.9043 22.9895 38.8263C23.2539 39.0723 23.6265 39.3063 24.0891 39.5342C24.5578 39.7562 25.1106 39.8702 25.7656 39.8702C26.4686 39.8702 26.9914 39.7262 27.3278 39.4323C27.6643 39.1443 27.8326 38.7664 27.8326 38.3044C27.8326 37.9025 27.7064 37.5785 27.448 37.3326C27.1896 37.0866 26.781 36.8766 26.2162 36.7087L24.9544 36.3247C24.5638 36.1987 24.2093 36.0548 23.8848 35.8928C23.5664 35.7308 23.296 35.5448 23.0736 35.3229C22.8453 35.1069 22.6771 34.8489 22.5569 34.549C22.4427 34.255 22.3826 33.9071 22.3826 33.5171C22.3826 32.7672 22.623 32.1493 23.1037 31.6634C23.5844 31.1715 24.2574 30.8655 25.1106 30.7455V29.4197C25.1767 29.3957 25.2728 29.3717 25.393 29.3477C25.5192 29.3297 25.6574 29.3177 25.8136 29.3177C26.3965 29.3177 26.6909 29.5577 26.6909 30.0376V30.6915C27.442 30.7515 28.0549 30.9075 28.5356 31.1655C29.0103 31.4234 29.2506 31.7294 29.2506 32.0893C29.2506 32.2813 29.2026 32.4433 29.1064 32.5873C29.0103 32.7252 28.8961 32.8392 28.7579 32.9292C28.4815 32.7192 28.115 32.5333 27.6583 32.3833C27.2017 32.2333 26.7029 32.1553 26.1501 32.1553C25.5372 32.1553 25.0565 32.2813 24.72 32.5273C24.3836 32.7732 24.2153 33.1032 24.2153 33.5171C24.2153 33.8531 24.3355 34.123 24.5698 34.333C24.8042 34.537 25.1947 34.7229 25.7295 34.8789L26.7089 35.1669C27.6463 35.4428 28.3794 35.8268 28.9021 36.3127C29.4249 36.8046 29.6833 37.4645 29.6833 38.3044C29.6833 39.1443 29.4249 39.7682 28.9142 40.2961Z" fill="#0A4BA5"/>
<path d="M51.8375 24.2545L50.2032 19.1552C49.7525 17.7454 48.4426 16.7856 46.9584 16.7856H5.04735C3.56318 16.7856 2.25327 17.7394 1.80262 19.1492L0.162227 24.2545C-0.534789 26.4441 1.09959 28.6818 3.40095 28.6938V51.5985C3.40095 53.4762 4.92717 55 6.80791 55H45.1918C47.0726 55 48.5988 53.4762 48.5988 51.5985V28.6938C50.9002 28.6878 52.5345 26.4501 51.8375 24.2545ZM46.7962 51.5985C46.7962 52.4804 46.0751 53.2003 45.1918 53.2003H6.80791C5.91862 53.2003 5.20357 52.4804 5.20357 51.5985V28.6938H46.7962V51.5985ZM49.8847 26.2342C49.5782 26.6541 49.1096 26.8941 48.5928 26.8941H3.40696C2.8902 26.8941 2.42152 26.6541 2.11507 26.2342C1.80863 25.8142 1.7245 25.2923 1.88073 24.8004L3.51511 19.7011C3.73143 19.0352 4.34432 18.5853 5.04735 18.5853H46.9584C47.6614 18.5853 48.2743 19.0352 48.4846 19.7011L50.119 24.8064C50.2753 25.2983 50.1911 25.8202 49.8847 26.2342Z" fill="#160A00"/>
<path d="M50.119 24.8064L48.4846 19.7011C48.2743 19.0352 47.6614 18.5853 46.9584 18.5853H5.04733C4.34431 18.5853 3.73141 19.0352 3.5151 19.7011L1.88072 24.8004C1.72449 25.2923 1.80861 25.8142 2.11506 26.2342C2.4215 26.6541 2.89019 26.8941 3.40694 26.8941H48.5928C49.1095 26.8941 49.5782 26.6541 49.8847 26.2342C50.1911 25.8202 50.2752 25.2983 50.119 24.8064ZM40.3007 23.6366H11.699C11.2003 23.6366 10.7977 23.2346 10.7977 22.7367C10.7977 22.2388 11.2003 21.8368 11.699 21.8368H40.3007C40.7994 21.8368 41.202 22.2448 41.202 22.7367C41.202 23.2286 40.7994 23.6366 40.3007 23.6366Z" fill="#FAF2D7"/>
<path d="M46.7962 28.6938V51.5985C46.7962 52.4804 46.0751 53.2003 45.1919 53.2003H6.80792C5.91862 53.2003 5.20358 52.4804 5.20358 51.5985V28.6938H46.7962Z" fill="#FAF2D7"/>
<path d="M41.202 22.7367C41.202 23.2346 40.7994 23.6366 40.3007 23.6366H11.699C11.2003 23.6366 10.7977 23.2346 10.7977 22.7367C10.7977 22.2388 11.2003 21.8368 11.699 21.8368H40.3007C40.7994 21.8368 41.202 22.2448 41.202 22.7367Z" fill="#160A00"/>
<path d="M34.5924 34.9389C33.5349 33.8771 32.1408 33.3491 30.7468 33.3491C29.3528 33.3491 27.9588 33.8771 26.8952 34.9389C26.5407 35.2929 26.2222 35.7008 25.9819 36.1387C25.0505 34.483 23.2719 33.3491 21.241 33.3491C19.7989 33.3491 18.3928 33.9251 17.4074 34.9389C15.2923 37.0326 15.2743 40.4881 17.3593 42.6178L17.3773 42.6358L25.6754 49.5588C25.7956 49.6728 25.9819 49.7448 26.1501 49.7448C26.3364 49.7448 26.5106 49.6728 26.6248 49.5408L34.5924 42.6178C36.7255 40.5061 36.7255 37.0506 34.5924 34.9389ZM33.3606 41.304L26.1261 47.5911L18.6031 41.316C17.2451 39.8762 17.2752 37.6085 18.6752 36.2167L18.6872 36.2047L18.6993 36.1927C19.3482 35.5268 20.2736 35.1489 21.241 35.1489C22.5449 35.1489 23.7586 35.8688 24.4076 37.0206L25.9999 39.8462L27.5622 37.0026C27.7124 36.7326 27.9227 36.4627 28.1691 36.2107C28.8541 35.5268 29.7734 35.1489 30.7468 35.1489C31.7202 35.1489 32.6336 35.5268 33.3246 36.2167C34.0096 36.9006 34.3881 37.8065 34.3881 38.7783C34.3881 39.7502 34.0216 40.6261 33.3606 41.304Z" fill="#0A4BA5"/>
<path d="M34.3881 38.7784C34.3881 39.7322 34.0216 40.6261 33.3606 41.304L26.1261 47.5911L18.6031 41.316C17.2451 39.8762 17.2752 37.6085 18.6752 36.2167L18.6872 36.2047L18.6993 36.1927C19.3482 35.5268 20.2735 35.1489 21.241 35.1489C22.5449 35.1489 23.7586 35.8688 24.4076 37.0206L25.9999 39.8462L27.5622 37.0026C27.7124 36.7326 27.9227 36.4627 28.1691 36.2107C28.8541 35.5268 29.7734 35.1489 30.7468 35.1489C31.7202 35.1489 32.6336 35.5268 33.3246 36.2167C34.0096 36.9006 34.3881 37.8065 34.3881 38.7784Z" fill="#0A4BA5"/>
<path d="M15.1801 11V2.252H19.0081C19.8881 2.252 20.6281 2.436 21.2281 2.804C21.8361 3.172 22.2961 3.684 22.6081 4.34C22.9201 4.996 23.0761 5.76 23.0761 6.632C23.0761 7.28 22.9881 7.872 22.8121 8.408C22.6361 8.944 22.3721 9.408 22.0201 9.8C21.6761 10.184 21.2521 10.48 20.7481 10.688C20.2521 10.896 19.6721 11 19.0081 11H15.1801ZM17.3281 9.176H18.6481C18.9601 9.176 19.2481 9.14 19.5121 9.068C19.7841 8.988 20.0201 8.852 20.2201 8.66C20.4281 8.468 20.5881 8.204 20.7001 7.868C20.8201 7.532 20.8801 7.104 20.8801 6.584C20.8801 5.928 20.7801 5.42 20.5801 5.06C20.3881 4.692 20.1241 4.436 19.7881 4.292C19.4601 4.148 19.0801 4.076 18.6481 4.076H17.3281V9.176ZM27.2942 11.12C26.7982 11.12 26.3502 11.048 25.9502 10.904C25.5502 10.752 25.2022 10.532 24.9062 10.244C24.6182 9.948 24.3942 9.592 24.2342 9.176C24.0822 8.76 24.0062 8.288 24.0062 7.76C24.0062 7.088 24.1342 6.504 24.3902 6.008C24.6462 5.504 25.0182 5.112 25.5062 4.832C26.0022 4.544 26.5982 4.4 27.2942 4.4C27.7902 4.4 28.2382 4.476 28.6382 4.628C29.0382 4.772 29.3822 4.992 29.6702 5.288C29.9582 5.576 30.1782 5.928 30.3302 6.344C30.4902 6.752 30.5702 7.224 30.5702 7.76C30.5702 8.424 30.4422 9.008 30.1862 9.512C29.9302 10.016 29.5582 10.412 29.0702 10.7C28.5822 10.98 27.9902 11.12 27.2942 11.12ZM27.2942 9.476C27.5422 9.476 27.7582 9.416 27.9422 9.296C28.1262 9.176 28.2702 8.988 28.3742 8.732C28.4782 8.476 28.5302 8.152 28.5302 7.76C28.5302 7.464 28.4982 7.208 28.4342 6.992C28.3782 6.768 28.2942 6.588 28.1822 6.452C28.0782 6.308 27.9502 6.204 27.7982 6.14C27.6542 6.068 27.4862 6.032 27.2942 6.032C27.0462 6.032 26.8262 6.096 26.6342 6.224C26.4502 6.344 26.3062 6.532 26.2022 6.788C26.1062 7.036 26.0582 7.36 26.0582 7.76C26.0582 8.056 26.0862 8.316 26.1422 8.54C26.1982 8.756 26.2782 8.936 26.3822 9.08C26.4942 9.216 26.6262 9.316 26.7782 9.38C26.9382 9.444 27.1102 9.476 27.2942 9.476ZM31.6198 11V4.52H33.5758L33.6478 5.636H33.7438C33.9118 5.22 34.1718 4.912 34.5238 4.712C34.8838 4.504 35.2838 4.4 35.7238 4.4C36.0438 4.4 36.3398 4.448 36.6118 4.544C36.8918 4.64 37.1358 4.796 37.3438 5.012C37.5518 5.22 37.7118 5.496 37.8238 5.84C37.9438 6.176 38.0038 6.584 38.0038 7.064V11H35.9758V7.508C35.9758 7.18 35.9358 6.908 35.8558 6.692C35.7838 6.476 35.6678 6.316 35.5078 6.212C35.3558 6.1 35.1518 6.044 34.8958 6.044C34.6238 6.044 34.3958 6.108 34.2118 6.236C34.0278 6.364 33.8878 6.528 33.7918 6.728C33.6958 6.928 33.6478 7.14 33.6478 7.364V11H31.6198Z" fill="#160A00"/>
</svg>
