<svg width="52" height="55" viewBox="0 0 52 55" fill="none" xmlns="http://www.w3.org/2000/svg">
<path d="M25.9998 0C19.4623 0 14.1626 5.29123 14.1626 11.8183C14.1626 18.3453 19.4623 23.6306 25.9998 23.6306C32.5374 23.6306 37.8371 18.3393 37.8371 11.8183C37.8371 5.29723 32.5374 0 25.9998 0ZM28.9141 16.1077C28.3973 16.6416 27.6523 16.9715 26.6909 17.0915V18.4053C26.6248 18.4233 26.5286 18.4473 26.4024 18.4713C26.2823 18.4953 26.1381 18.5013 25.9818 18.5013C25.399 18.5013 25.1106 18.2613 25.1106 17.7814V17.1275C24.2633 17.0495 23.5903 16.8575 23.0796 16.5636C22.5688 16.2636 22.3165 15.9337 22.3165 15.5617C22.3165 15.3398 22.3826 15.1478 22.5148 14.9918C22.653 14.8358 22.8092 14.7159 22.9895 14.6379C23.2538 14.8838 23.6264 15.1178 24.0891 15.3458C24.5577 15.5677 25.1106 15.6817 25.7655 15.6817C26.4685 15.6817 26.9913 15.5377 27.3278 15.2438C27.6643 14.9558 27.8325 14.5779 27.8325 14.1159C27.8325 13.714 27.7063 13.3901 27.448 13.1441C27.1896 12.8981 26.781 12.6882 26.2162 12.5202L24.9543 12.1362C24.5638 12.0103 24.2092 11.8663 23.8848 11.7043C23.5663 11.5423 23.2959 11.3563 23.0736 11.1344C22.8453 10.9184 22.677 10.6604 22.5568 10.3605C22.4427 10.0665 22.3826 9.71859 22.3826 9.32864C22.3826 8.57875 22.6229 7.96084 23.1036 7.47491C23.5843 6.98298 24.2573 6.67703 25.1106 6.55705V5.23124C25.1766 5.20724 25.2728 5.18325 25.393 5.15925C25.5191 5.14125 25.6573 5.12925 25.8136 5.12925C26.3964 5.12925 26.6909 5.36922 26.6909 5.84915V6.50305C27.4419 6.56305 28.0548 6.71902 28.5355 6.97699C29.0102 7.23495 29.2506 7.5409 29.2506 7.90085C29.2506 8.09282 29.2025 8.2548 29.1064 8.39878C29.0102 8.53676 28.8961 8.65074 28.7579 8.74073C28.4815 8.53076 28.1149 8.34479 27.6583 8.19481C27.2016 8.04483 26.7029 7.96684 26.1501 7.96684C25.5372 7.96684 25.0565 8.09282 24.72 8.33879C24.3835 8.58475 24.2152 8.9147 24.2152 9.32864C24.2152 9.66459 24.3354 9.93456 24.5698 10.1445C24.8041 10.3485 25.1947 10.5345 25.7295 10.6904L26.7089 10.9784C27.6462 11.2544 28.3793 11.6383 28.9021 12.1242C29.4248 12.6162 29.6832 13.2761 29.6832 14.1159C29.6832 14.9558 29.4248 15.5797 28.9141 16.1077Z" fill="#0A4BA5"/>
<path d="M51.8377 24.2545L50.2033 19.1552C49.7526 17.7454 48.4427 16.7856 46.9585 16.7856H5.04747C3.5633 16.7856 2.2534 17.7394 1.80274 19.1492L0.162349 24.2545C-0.534667 26.4441 1.09971 28.6818 3.40107 28.6938V51.5985C3.40107 53.4762 4.92729 55 6.80803 55H45.192C47.0727 55 48.5989 53.4762 48.5989 51.5985V28.6938C50.9003 28.6878 52.5347 26.4501 51.8377 24.2545ZM46.7963 51.5985C46.7963 52.4804 46.0753 53.2003 45.192 53.2003H6.80803C5.91874 53.2003 5.2037 52.4804 5.2037 51.5985V28.6938H46.7963V51.5985ZM49.8848 26.2342C49.5784 26.6541 49.1097 26.8941 48.5929 26.8941H3.40708C2.89032 26.8941 2.42164 26.6541 2.11519 26.2342C1.80875 25.8142 1.72463 25.2923 1.88085 24.8004L3.51523 19.7011C3.73155 19.0352 4.34444 18.5853 5.04747 18.5853H46.9585C47.6616 18.5853 48.2745 19.0352 48.4848 19.7011L50.1192 24.8064C50.2754 25.2983 50.1913 25.8202 49.8848 26.2342Z" fill="#160A00"/>
<path d="M50.1193 24.8064L48.4849 19.7011C48.2746 19.0352 47.6617 18.5853 46.9587 18.5853H5.04761C4.34458 18.5853 3.73169 19.0352 3.51537 19.7011L1.88099 24.8004C1.72476 25.2923 1.80889 25.8142 2.11533 26.2342C2.42178 26.6541 2.89046 26.8941 3.40721 26.8941H48.5931C49.1098 26.8941 49.5785 26.6541 49.8849 26.2342C50.1914 25.8202 50.2755 25.2983 50.1193 24.8064ZM40.301 23.6366H11.6993C11.2006 23.6366 10.798 23.2346 10.798 22.7367C10.798 22.2388 11.2006 21.8368 11.6993 21.8368H40.301C40.7997 21.8368 41.2023 22.2448 41.2023 22.7367C41.2023 23.2286 40.7997 23.6366 40.301 23.6366Z" fill="#FAF2D7"/>
<path d="M46.7962 28.6938V51.5985C46.7962 52.4804 46.0752 53.2003 45.1919 53.2003H6.80795C5.91866 53.2003 5.20361 52.4804 5.20361 51.5985V28.6938H46.7962Z" fill="#FAF2D7"/>
<path d="M41.2022 22.7367C41.2022 23.2346 40.7996 23.6366 40.3008 23.6366H11.6992C11.2004 23.6366 10.7979 23.2346 10.7979 22.7367C10.7979 22.2388 11.2004 21.8368 11.6992 21.8368H40.3008C40.7996 21.8368 41.2022 22.2448 41.2022 22.7367Z" fill="#160A00"/>
<path d="M34.5923 34.9389C33.5348 33.8771 32.1408 33.3492 30.7467 33.3492C29.3527 33.3492 27.9587 33.8771 26.8951 34.9389C26.5406 35.2929 26.2221 35.7008 25.9818 36.1387C25.0504 34.483 23.2718 33.3492 21.2409 33.3492C19.7988 33.3492 18.3927 33.9251 17.4073 34.9389C15.2922 37.0326 15.2742 40.4881 17.3592 42.6178L17.3772 42.6358L25.6753 49.5588C25.7955 49.6728 25.9818 49.7448 26.15 49.7448C26.3363 49.7448 26.5106 49.6728 26.6247 49.5408L34.5923 42.6178C36.7254 40.5061 36.7254 37.0506 34.5923 34.9389ZM33.3605 41.304L26.126 47.5911L18.603 41.316C17.245 39.8762 17.2751 37.6085 18.6751 36.2167L18.6871 36.2047L18.6992 36.1927C19.3481 35.5268 20.2735 35.1489 21.2409 35.1489C22.5448 35.1489 23.7585 35.8688 24.4075 37.0206L25.9998 39.8462L27.5621 37.0026C27.7123 36.7327 27.9226 36.4627 28.169 36.2107C28.854 35.5268 29.7733 35.1489 30.7467 35.1489C31.7201 35.1489 32.6335 35.5268 33.3245 36.2167C34.0095 36.9006 34.388 37.8065 34.388 38.7784C34.388 39.7502 34.0215 40.6261 33.3605 41.304Z" fill="#0A4BA5"/>
<path d="M34.3881 38.7784C34.3881 39.7322 34.0215 40.6261 33.3606 41.304L26.126 47.5911L18.6031 41.316C17.2451 39.8762 17.2751 37.6085 18.6752 36.2167L18.6872 36.2047L18.6992 36.1927C19.3481 35.5268 20.2735 35.1489 21.2409 35.1489C22.5448 35.1489 23.7586 35.8688 24.4075 37.0206L25.9998 39.8462L27.5621 37.0026C27.7123 36.7327 27.9226 36.4627 28.169 36.2107C28.854 35.5268 29.7733 35.1489 30.7467 35.1489C31.7202 35.1489 32.6335 35.5268 33.3245 36.2167C34.0095 36.9006 34.3881 37.8065 34.3881 38.7784Z" fill="#FAF2D7"/>
</svg>
