<svg width="25" height="48" viewBox="0 0 25 48" fill="none" xmlns="http://www.w3.org/2000/svg">
<path d="M6.09531 3.50651C7.12217 6.65936 11.6772 18.6721 22.4724 23.142C18.1016 21.4391 9.00474 16.823 3.23854 6.34008C2.63296 7.01854 2.06688 7.72361 1.54028 8.45528C1.51395 8.48189 1.50079 8.50849 1.47446 8.5351C0.98736 9.21356 0.539758 9.93193 0.118484 10.6636C0.0789891 10.7301 0.0394945 10.7966 0 10.8631C1.36914 12.6724 9.63665 23.0754 21.5245 23.98C9.63665 24.8714 1.36914 35.2744 0 37.0836C0.0131648 37.1235 0.0394935 37.1502 0.0658231 37.1901C0.513427 37.975 0.987361 38.7199 1.50079 39.4516C2.04055 40.2099 2.6198 40.9416 3.23854 41.6333C9.00474 31.1637 18.1016 26.5209 22.4724 24.8314C11.6772 29.3013 7.12217 41.3007 6.09531 44.4669C7.47762 45.6243 8.99157 46.6353 10.5977 47.5C11.7562 40.8351 14.534 35.5937 17.3512 31.7624C17.3776 31.7225 17.4171 31.656 17.4566 31.616C17.8252 31.0972 18.2069 30.6183 18.5756 30.1793C18.6414 30.0862 18.7204 30.0197 18.773 29.9399C19.2075 29.4077 19.6419 28.9288 20.0632 28.4765L20.129 28.41C22.367 25.9356 24.2891 24.5122 24.842 24.1264C24.9473 24.0466 25 24.0067 25 24.0067C25 24.0067 24.9868 24.0067 24.9868 23.9934C24.9868 23.98 24.9605 23.98 24.9605 23.98C24.8947 23.9401 24.8025 23.8736 24.6577 23.7539C24.0653 23.3149 22.7751 22.3172 21.2217 20.7341C20.8531 20.3882 20.445 19.9891 20.1027 19.5767L20.05 19.5235C19.6024 19.0446 19.1417 18.5125 18.6809 17.9404C18.6414 17.9005 18.6019 17.8473 18.5624 17.8074C18.4176 17.6211 18.2596 17.4482 18.1148 17.2487C17.8647 16.9294 17.6014 16.5968 17.3512 16.2376C14.6524 12.5659 11.98 7.59058 10.7425 1.29819C10.6767 1.03213 10.6372 0.76606 10.5845 0.5C8.97841 1.3514 7.46445 2.37575 6.08215 3.53312L6.09531 3.50651Z" fill="#F06419"/>
</svg>
