<svg width="25" height="48" viewBox="0 0 25 48" fill="none" xmlns="http://www.w3.org/2000/svg">
<path d="M18.9047 3.50651C17.8778 6.65936 13.3228 18.6721 2.52765 23.142C6.89837 21.4391 15.9953 16.823 21.7615 6.34008C22.367 7.01854 22.9331 7.72361 23.4597 8.45528C23.486 8.48189 23.4992 8.50849 23.5255 8.5351C24.0126 9.21356 24.4602 9.93193 24.8815 10.6636C24.921 10.7301 24.9605 10.7966 25 10.8631C23.6309 12.6724 15.3634 23.0754 3.47552 23.98C15.3634 24.8714 23.6309 35.2744 25 37.0836C24.9868 37.1235 24.9605 37.1502 24.9342 37.1901C24.4866 37.975 24.0126 38.7199 23.4992 39.4516C22.9595 40.2099 22.3802 40.9416 21.7615 41.6333C15.9953 31.1637 6.89837 26.5209 2.52765 24.8314C13.3228 29.3013 17.8778 41.3007 18.9047 44.4669C17.5224 45.6243 16.0084 46.6353 14.4023 47.5C13.2438 40.8351 10.466 35.5937 7.64876 31.7624C7.62243 31.7225 7.58294 31.656 7.54345 31.616C7.17483 31.0972 6.79305 30.6183 6.42443 30.1793C6.35861 30.0862 6.27962 30.0197 6.22696 29.9399C5.79252 29.4077 5.35809 28.9288 4.93681 28.4765L4.87099 28.41C2.63297 25.9356 0.710905 24.5122 0.157982 24.1264C0.0526638 24.0466 1.90735e-06 24.0067 1.90735e-06 24.0067C1.90735e-06 24.0067 0.0131683 24.0067 0.0131683 23.9934C0.0131683 23.98 0.0394993 23.98 0.0394993 23.98C0.105324 23.9401 0.197475 23.8736 0.342289 23.7539C0.934706 23.3149 2.22486 22.3172 3.77831 20.7341C4.14692 20.3882 4.55503 19.9891 4.89732 19.5767L4.94998 19.5235C5.39758 19.0446 5.85835 18.5125 6.31912 17.9404C6.35861 17.9005 6.39811 17.8473 6.4376 17.8074C6.58241 17.6211 6.74039 17.4482 6.8852 17.2487C7.13534 16.9294 7.39863 16.5968 7.64876 16.2376C10.3476 12.5659 13.02 7.59058 14.2575 1.29819C14.3233 1.03213 14.3628 0.76606 14.4155 0.5C16.0216 1.3514 17.5355 2.37575 18.9179 3.53312L18.9047 3.50651Z" fill="#F06419"/>
</svg>
