<svg width="47" height="26" viewBox="0 0 47 26" fill="none" xmlns="http://www.w3.org/2000/svg">
<path d="M43.9935 6.82236C40.8406 7.84922 28.8279 12.4042 24.358 23.1994C26.0609 18.8287 30.677 9.73179 41.1599 3.9656C40.4815 3.36001 39.7764 2.79393 39.0447 2.26734C39.0181 2.24101 38.9915 2.22784 38.9649 2.20151C38.2864 1.71441 37.5681 1.26681 36.8364 0.845534C36.7699 0.80604 36.7034 0.766545 36.6369 0.727051C34.8276 2.09619 24.4246 10.3637 23.52 22.2515C22.6286 10.3637 12.2256 2.09619 10.4164 0.727051C10.3765 0.740216 10.3498 0.766544 10.3099 0.792874C9.52505 1.24048 8.78007 1.71441 8.04839 2.22784C7.29012 2.7676 6.55844 3.34685 5.86668 3.9656C16.3363 9.73179 20.9791 18.8287 22.6686 23.1994C18.1987 12.4042 6.19926 7.84922 3.03311 6.82236C1.87574 8.20467 0.864704 9.71862 0 11.3247C6.66487 12.4832 11.9063 15.261 15.7376 18.0783C15.7775 18.1046 15.844 18.1441 15.884 18.1836C16.4028 18.5522 16.8817 18.934 17.3207 19.3026C17.4138 19.3684 17.4803 19.4474 17.5601 19.5001C18.0923 19.9345 18.5712 20.369 19.0235 20.7902L19.09 20.8561C21.5644 23.0941 22.9878 25.0161 23.3736 25.5691C23.4534 25.6744 23.4933 25.727 23.4933 25.727C23.4933 25.727 23.4933 25.7139 23.5066 25.7139C23.52 25.7139 23.52 25.6876 23.52 25.6876C23.5599 25.6217 23.6264 25.5296 23.7461 25.3848C24.1851 24.7923 25.1828 23.5022 26.7659 21.9487C27.1118 21.5801 27.5109 21.172 27.9233 20.8297L27.9765 20.7771C28.4554 20.3295 28.9875 19.8687 29.5596 19.4079C29.5995 19.3684 29.6527 19.3289 29.6926 19.2894C29.8789 19.1446 30.0518 18.9867 30.2513 18.8418C30.5706 18.5917 30.9032 18.3284 31.2624 18.0783C34.9341 15.3795 39.9094 12.707 46.2018 11.4695C46.4679 11.4037 46.7339 11.3642 47 11.3116C46.1486 9.70546 45.1242 8.1915 43.9669 6.8092L43.9935 6.82236Z" fill="#F06419"/>
</svg>
