<svg width="47" height="25" viewBox="0 0 47 25" fill="none" xmlns="http://www.w3.org/2000/svg">
<path d="M3.00651 18.9047C6.15936 17.8778 18.1721 13.3228 22.642 2.52765C20.9392 6.89837 16.323 15.9953 5.84008 21.7615C6.51854 22.367 7.22361 22.9331 7.95528 23.4597C7.98189 23.486 8.00849 23.4992 8.0351 23.5255C8.71356 24.0126 9.43193 24.4602 10.1636 24.8815C10.2301 24.921 10.2966 24.9605 10.3631 25C12.1724 23.6309 22.5754 15.3633 23.48 3.47552C24.3714 15.3633 34.7744 23.6309 36.5836 25C36.6235 24.9868 36.6502 24.9605 36.6901 24.9342C37.475 24.4866 38.2199 24.0126 38.9516 23.4992C39.7099 22.9595 40.4416 22.3802 41.1333 21.7615C30.6637 15.9953 26.0209 6.89837 24.3314 2.52765C28.8013 13.3228 40.8007 17.8778 43.9669 18.9047C45.1243 17.5224 46.1353 16.0084 47 14.4023C40.3351 13.2438 35.0937 10.466 31.2624 7.64876C31.2225 7.62243 31.156 7.58294 31.116 7.54344C30.5972 7.17483 30.1183 6.79305 29.6793 6.42443C29.5862 6.35861 29.5197 6.27962 29.4399 6.22696C28.9077 5.79252 28.4288 5.35808 27.9765 4.93681L27.91 4.87099C25.4356 2.63297 24.0122 0.710903 23.6264 0.15798C23.5466 0.0526618 23.5067 -1.46505e-07 23.5067 -1.46505e-07C23.5067 -1.46505e-07 23.5067 0.0131663 23.4934 0.0131663C23.48 0.0131663 23.48 0.0394972 23.48 0.0394972C23.4401 0.105322 23.3736 0.197473 23.2539 0.342287C22.8149 0.934704 21.8172 2.22486 20.2341 3.77831C19.8882 4.14692 19.4891 4.55503 19.0767 4.89731L19.0235 4.94997C18.5446 5.39758 18.0125 5.85835 17.4404 6.31911C17.4005 6.35861 17.3473 6.3981 17.3074 6.4376C17.1211 6.58241 16.9482 6.74039 16.7487 6.8852C16.4294 7.13533 16.0968 7.39863 15.7376 7.64876C12.0659 10.3476 7.09058 13.02 0.798196 14.2575C0.532132 14.3233 0.266061 14.3628 9.25328e-07 14.4155C0.851399 16.0216 1.87575 17.5355 3.03312 18.9178L3.00651 18.9047Z" fill="#F06419"/>
</svg>
