<svg width="866" height="422" viewBox="0 0 866 422" fill="none" xmlns="http://www.w3.org/2000/svg">
<g filter="url(#filter0_d_4967_975)">
<path d="M850.621 322.82C850.621 317.085 855.27 312.431 861 312.431V287.258C855.27 287.258 850.621 282.604 850.621 276.87C850.621 271.135 855.27 266.482 861 266.482V241.308C855.27 241.308 850.621 236.655 850.621 230.92C850.621 225.185 855.27 220.532 861 220.532V195.358C855.27 195.358 850.621 190.705 850.621 184.97C850.621 179.236 855.27 174.582 861 174.582V149.408C855.27 149.408 850.621 144.755 850.621 139.02C850.621 133.286 855.27 128.632 861 128.632V103.459C855.27 103.459 850.621 98.8051 850.621 93.0705C850.621 87.3359 855.27 82.6823 861 82.6823V58.5715C831.436 58.5715 807.473 34.5889 807.473 5H64.5266C64.5266 34.5889 40.5641 58.5715 11 58.5715V82.6823C16.7298 82.6823 21.3795 87.3359 21.3795 93.0705C21.3795 98.8051 16.7298 103.459 11 103.459V128.632C16.7298 128.632 21.3795 133.286 21.3795 139.02C21.3795 144.755 16.7298 149.408 11 149.408V174.582C16.7298 174.582 21.3795 179.236 21.3795 184.97C21.3795 190.705 16.7298 195.358 11 195.358V220.532C16.7298 220.532 21.3795 225.185 21.3795 230.92C21.3795 236.655 16.7298 241.308 11 241.308V266.482C16.7298 266.482 21.3795 271.135 21.3795 276.87C21.3795 282.604 16.7298 287.258 11 287.258V312.431C16.7298 312.431 21.3795 317.085 21.3795 322.82C21.3795 328.554 16.7298 333.208 11 333.208V357.319C40.5641 357.319 64.5266 381.301 64.5266 410.89H807.473C807.473 381.301 831.436 357.319 861 357.319V333.208C855.27 333.208 850.621 328.554 850.621 322.82Z" fill="#EBF0EE"/>
</g>
<defs>
<filter id="filter0_d_4967_975" x="0.6" y="0.6" width="864.8" height="420.69" filterUnits="userSpaceOnUse" color-interpolation-filters="sRGB">
<feFlood flood-opacity="0" result="BackgroundImageFix"/>
<feColorMatrix in="SourceAlpha" type="matrix" values="0 0 0 0 0 0 0 0 0 0 0 0 0 0 0 0 0 0 127 0" result="hardAlpha"/>
<feOffset dx="-3" dy="3"/>
<feGaussianBlur stdDeviation="3.7"/>
<feComposite in2="hardAlpha" operator="out"/>
<feColorMatrix type="matrix" values="0 0 0 0 0 0 0 0 0 0 0 0 0 0 0 0 0 0 0.35 0"/>
<feBlend mode="normal" in2="BackgroundImageFix" result="effect1_dropShadow_4967_975"/>
<feBlend mode="normal" in="SourceGraphic" in2="effect1_dropShadow_4967_975" result="shape"/>
</filter>
</defs>
</svg>
