<svg width="52" height="40" viewBox="0 0 52 40" fill="none" xmlns="http://www.w3.org/2000/svg">
<path d="M48.5988 0.892567H3.40096C1.52022 0.892567 0 2.41035 0 4.28807V35.7115C0 37.5832 1.52022 39.107 3.40096 39.107H48.5988C50.4735 39.107 51.9998 37.5832 51.9998 35.7115V4.28807C51.9998 2.41035 50.4735 0.892567 48.5988 0.892567ZM1.80263 8.13351L18.1945 19.9998L1.80263 31.8661V8.13351ZM50.065 36.0295C49.9448 36.4074 49.5602 37.2833 48.5988 37.3073H3.40096C2.43955 37.2833 2.05499 36.4074 1.92881 36.0295C1.8507 35.7835 1.80263 35.5075 1.80263 35.2256C1.80263 34.5837 2.03697 33.9238 2.63184 33.4918L19.7267 21.1096L24.1312 24.3012C24.702 24.7091 25.3509 24.9131 25.9999 24.9131C26.6488 24.9131 27.2978 24.7091 27.8686 24.3012L32.273 21.1156L49.3679 33.4918C49.9568 33.9178 50.1972 34.5777 50.1972 35.2196C50.1972 35.5015 50.1491 35.7775 50.065 36.0295ZM50.1972 31.8661L33.8053 19.9998L50.1972 8.13351V31.8661ZM49.3679 6.50775L32.273 18.884L30.7348 19.9998L26.8051 22.8434C26.5587 23.0234 26.2823 23.1133 25.9999 23.1133C25.7175 23.1133 25.4411 23.0234 25.1887 22.8434L21.265 19.9998L19.7267 18.89L2.63184 6.50775C2.03697 6.07581 1.80263 5.41591 1.80263 4.774C1.80263 4.49204 1.8507 4.21608 1.92881 3.96412C2.05499 3.58617 2.43955 2.7163 3.40096 2.69231H48.5988C49.5602 2.7163 49.9448 3.58617 50.065 3.96412C50.1491 4.21608 50.1972 4.49804 50.1972 4.78C50.1972 5.42191 49.9568 6.08181 49.3679 6.50775Z" fill="#FAF2D7"/>
</svg>
