<svg width="34" height="34" viewBox="0 0 34 34" fill="none" xmlns="http://www.w3.org/2000/svg">
<g clip-path="url(#clip0_4209_2020)">
<path d="M19.321 34V21.3284H23.6871C23.9129 19.572 24.1387 17.8908 24.3646 16.1092H19.321C19.321 14.8546 19.2207 13.7255 19.321 12.6214C19.4967 10.9402 20.0236 10.5638 21.7048 10.5387C22.583 10.5387 23.4362 10.5387 24.3897 10.5387V6.02214C17.941 4.56679 12.8974 6.19778 13.876 16.0841H9.61033V21.3284H13.8258V33.9498C13.5247 33.9749 13.2236 34.0502 12.9476 34.0502C9.40959 34.0502 5.84649 34.0502 2.30849 34.0502C0.727675 34.0502 0 33.3225 0 31.7166C0 21.9306 0 12.1948 0 2.45904C0 0.903321 0.702583 0.150553 2.2834 0C2.53432 0 2.81033 0 3.06125 0C12.3705 0 21.6546 0 30.9387 0C33.3476 0 34 0.627306 34 2.98598C34 12.4207 34 21.8303 34 31.2649C34 33.3978 33.3978 34 31.29 34C27.3506 34 23.4111 34 19.2959 34" fill="#FAF2D7"/>
</g>
<defs>
<clipPath id="clip0_4209_2020">
<rect width="34" height="34" fill="white"/>
</clipPath>
</defs>
</svg>
