<svg width="34" height="34" viewBox="0 0 34 34" fill="none" xmlns="http://www.w3.org/2000/svg">
<g clip-path="url(#clip0_4209_2015)">
<path d="M31.2331 0C21.761 0 12.2639 0 2.76686 0C0.922287 0 0 0.903321 0 2.70996C0 12.2701 0 21.8303 0 31.3904C0 33.2974 0.7478 34 2.6173 34C7.40323 34 12.1891 34 17 34C21.7859 34 26.5718 34 31.3827 34C33.2522 34 34 33.2723 34 31.3904C34 21.8303 34 12.2701 34 2.70996C34 0.903321 33.0777 0 31.2581 0L31.2331 0ZM28.1921 23.0347C27.893 25.8199 25.6745 28.2037 22.9326 28.3292C18.9941 28.5048 15.0308 28.4797 11.0674 28.3292C8.5 28.2288 6.03226 25.9956 5.85777 23.4362C5.58358 19.572 5.45894 15.6325 5.73314 11.7683C6.00733 7.92915 7.77713 6.07232 11.5161 5.72103C15.1305 5.36974 18.8446 5.34465 22.4589 5.72103C26.4971 6.1476 28.2419 8.53137 28.4413 12.797C28.5161 14.2524 28.5909 15.6827 28.5909 17.138C28.4663 19.0952 28.4164 21.0775 28.217 23.0347H28.1921Z" fill="#FAF2D7"/>
<path d="M16.9003 11.2919C13.7844 11.317 11.1921 13.9015 11.2419 17.038C11.3167 20.4255 13.7346 22.759 17.0249 22.8594C20.1407 22.9598 22.783 20.1244 22.758 16.9627C22.758 13.776 20.1407 11.2417 16.9003 11.2668V11.2919ZM16.9003 21.0026C14.9061 20.9273 13.0865 19.0454 13.1114 17.0631C13.1114 14.9804 14.9311 13.1738 17.0498 13.1989C19.1686 13.1989 20.9384 15.0306 20.9135 17.1384C20.8885 19.1708 18.9193 21.1029 16.9252 21.0277L16.9003 21.0026Z" fill="#FAF2D7"/>
<path d="M23.3562 9.78613C22.6334 9.78613 22.0601 10.3633 22.0601 11.0909C22.0601 11.8186 22.6334 12.3957 23.3562 12.3957C24.0791 12.3957 24.6524 11.8186 24.6524 11.0909C24.6524 10.3633 24.0791 9.78613 23.3562 9.78613Z" fill="#FAF2D7"/>
</g>
<defs>
<clipPath id="clip0_4209_2015">
<rect width="34" height="34" fill="white"/>
</clipPath>
</defs>
</svg>
