<svg width="34" height="34" viewBox="0 0 34 34" fill="none" xmlns="http://www.w3.org/2000/svg">
<g clip-path="url(#clip0_4209_2023)">
<path d="M4.78556 8.32551C4.78556 9.94575 6.06337 11.1672 7.71702 11.1173C9.27045 11.0924 10.6986 9.79619 10.7237 8.40029C10.7738 6.92962 9.34561 5.55865 7.74208 5.5088C6.11349 5.45894 4.7605 6.70528 4.7605 8.30059M10.2225 13.1364H5.08622V28.3666H10.2225V13.1364ZM28.8887 28.3915C28.8887 24.9267 29.014 21.5616 28.8637 18.2214C28.6883 14.3827 25.3559 11.915 21.5976 12.8123C20.4702 13.0865 19.4679 13.8094 18.4156 14.3328C18.3906 14.0088 18.3405 13.5601 18.3154 13.1364H13.0538V28.3416H18.3405C18.3405 27.9927 18.3906 27.7434 18.3906 27.4941C18.3906 24.8021 18.3906 22.11 18.3906 19.393C18.3906 17.9971 19.4178 17 20.7207 16.9003C22.3744 16.7757 23.101 17.324 23.4517 18.9941C23.577 19.6173 23.6522 20.2903 23.6522 20.9135C23.6772 23.3812 23.6522 25.849 23.6522 28.3666H28.8887V28.3915ZM33.9499 17.0249C33.9499 21.7361 33.9499 26.4472 33.9499 31.1334C33.9499 33.0279 33.073 33.9501 31.1688 33.9501C21.6979 33.9501 12.252 33.9501 2.80619 33.9501C0.876934 33.9501 0 33.0528 0 31.1584C0.0250553 21.7361 0.0751658 12.2889 0 2.84164C0 0.897361 1.27782 0 2.83125 0C12.2771 0 21.748 0 31.1938 0C33.1481 0 33.9749 0.897361 33.9749 2.79179C33.9749 7.52786 33.9749 12.2889 33.9749 17.0249" fill="#FAF2D7"/>
</g>
<defs>
<clipPath id="clip0_4209_2023">
<rect width="34" height="34" fill="white"/>
</clipPath>
</defs>
</svg>
