<svg width="47" height="26" viewBox="0 0 47 26" fill="none" xmlns="http://www.w3.org/2000/svg">
<path d="M3.00651 19.4804C6.15936 18.4535 18.1721 13.8985 22.642 3.10333C20.9392 7.47405 16.323 16.5709 5.84008 22.3371C6.51854 22.9427 7.22361 23.5088 7.95528 24.0354C7.98189 24.0617 8.00849 24.0749 8.0351 24.1012C8.71356 24.5883 9.43193 25.0359 10.1636 25.4572C10.2301 25.4967 10.2966 25.5362 10.3631 25.5757C12.1724 24.2065 22.5754 15.939 23.48 4.0512C24.3714 15.939 34.7744 24.2065 36.5836 25.5757C36.6235 25.5625 36.6502 25.5362 36.6901 25.5099C37.475 25.0623 38.2199 24.5883 38.9516 24.0749C39.7099 23.5351 40.4416 22.9559 41.1333 22.3371C30.6637 16.5709 26.0209 7.47405 24.3314 3.10333C28.8013 13.8985 40.8007 18.4535 43.9669 19.4804C45.1243 18.0981 46.1353 16.5841 47 14.978C40.3351 13.8195 35.0937 11.0417 31.2624 8.22445C31.2225 8.19812 31.156 8.15862 31.116 8.11913C30.5972 7.75051 30.1183 7.36873 29.6793 7.00012C29.5862 6.93429 29.5197 6.85531 29.4399 6.80265C28.9077 6.36821 28.4288 5.93377 27.9765 5.51249L27.91 5.44667C25.4356 3.20865 24.0122 1.28659 23.6264 0.733663C23.5466 0.628345 23.5067 0.575683 23.5067 0.575683C23.5067 0.575683 23.5067 0.58885 23.4934 0.58885C23.48 0.58885 23.48 0.615181 23.48 0.615181C23.4401 0.681005 23.3736 0.773157 23.2539 0.91797C22.8149 1.51039 21.8172 2.80054 20.2341 4.35399C19.8882 4.7226 19.4891 5.13071 19.0767 5.473L19.0235 5.52566C18.5446 5.97326 18.0125 6.43403 17.4404 6.8948C17.4005 6.93429 17.3473 6.97379 17.3074 7.01328C17.1211 7.1581 16.9482 7.31607 16.7487 7.46089C16.4294 7.71102 16.0968 7.97431 15.7376 8.22444C12.0659 10.9232 7.09058 13.5957 0.798196 14.8332C0.532132 14.899 0.266061 14.9385 9.25328e-07 14.9912C0.851399 16.5973 1.87575 18.1112 3.03312 19.4935L3.00651 19.4804Z" fill="#C30F28"/>
</svg>
